<svg width="155" height="143" viewBox="0 0 155 143" fill="none" xmlns="http://www.w3.org/2000/svg">
<path d="M2.09635 31.364C1.92003 31.4081 1.78778 31.4816 1.68492 31.5697C1.39104 31.8342 1.2441 32.2016 1.2588 32.5689C0.994307 32.6571 0.759204 32.804 0.656346 33.0245C0.406549 33.48 0.656346 34.2587 1.15594 34.6408C1.08247 34.9053 1.11186 35.2285 1.2441 35.493C1.11186 35.7869 1.09716 36.1543 1.20002 36.4481C0.994307 36.9037 0.994307 37.4179 1.22941 37.7706C1.17063 38.0645 1.18533 38.373 1.27349 38.6669C1.36166 38.9314 1.52329 39.1665 1.729 39.3282C2.18452 39.622 2.91921 39.5633 3.47758 39.2253C3.47758 39.3135 3.50697 39.3869 3.53636 39.4457C3.6686 39.6808 3.99187 39.8131 4.30044 39.7543C4.35922 39.8424 4.4033 39.9306 4.46208 40.0335C4.53555 40.1804 4.6531 40.298 4.78534 40.3861C4.8882 41.1061 5.35841 41.7233 5.858 41.6645C6.03433 41.6498 6.22535 41.5176 6.40168 41.3706C6.66617 41.3706 6.93066 41.2678 7.12168 41.062C7.15107 41.0326 7.18046 40.9886 7.20984 40.9592C7.26862 40.9886 7.34209 41.0033 7.41556 41.0326C7.51842 41.0767 7.63597 41.0914 7.76821 41.062C8.06209 41.3118 8.42944 41.2824 8.7674 41.018C8.97312 41.1208 9.19353 41.0767 9.39924 40.9151L9.44332 40.9739C9.59026 41.2971 9.85475 41.5029 10.1046 41.4735C10.325 41.8849 10.6188 42.1494 10.898 41.9584C10.9862 41.8996 11.089 41.7673 11.1919 41.6204C11.3829 41.738 11.618 41.7527 11.8384 41.6204C11.8825 41.7086 11.9266 41.782 11.9707 41.8408C12.3674 42.311 12.8376 42.2522 13.2637 41.8114C13.396 41.8555 13.5429 41.8261 13.6752 41.7527C13.7486 41.9731 13.8368 42.1494 13.9544 42.2229C14.116 42.3404 14.3511 42.2669 14.5715 42.0906C14.5862 42.0906 14.6156 42.12 14.6303 42.12C14.8654 42.2082 15.1152 42.1494 15.3356 41.9731C15.6295 42.458 16.1438 42.7225 16.4964 42.3698C16.5258 42.3404 16.5405 42.311 16.5552 42.2816C16.6874 42.2669 16.8197 42.2082 16.9372 42.1053C17.0254 42.1641 17.1136 42.2229 17.2164 42.2816C17.4074 42.4286 17.6719 42.458 17.9217 42.3698C18.054 42.6637 18.2009 42.9429 18.3919 43.178C18.4654 43.2661 18.5389 43.3396 18.627 43.4131C18.6417 43.4865 18.6711 43.5747 18.7005 43.6482C18.627 43.7363 18.5683 43.8098 18.4948 43.898C17.4809 44.1331 16.2319 44.809 15.556 45.7347C15.2327 45.8376 14.8801 45.9698 14.5127 46.249C13.2491 47.1747 12.2352 48.8792 11.9266 51.098C11.9119 51.2155 11.8972 51.3478 11.8825 51.4653V51.4947C11.765 51.8327 11.765 52.2 11.765 52.538C11.765 52.876 11.8384 53.1992 11.9413 53.5225C11.765 54.0809 11.7503 54.7127 11.809 55.3739C11.8972 56.0352 12.1323 56.7111 12.485 57.2988C12.6025 57.9013 12.8523 58.5331 13.2491 59.1356C13.8956 60.1789 15.174 61.0899 16.3054 61.3691C16.4523 61.4572 16.614 61.5307 16.7756 61.6042H16.7903C17.334 62.0303 18.0246 62.2801 18.7299 62.3976C19.6997 62.9854 21.0956 63.1911 22.5503 63.2058C22.9324 63.2352 23.3585 63.2058 23.7699 63.1323C24.3283 63.2058 24.8867 63.2058 25.4303 63.147C25.4303 63.147 25.445 63.147 25.4597 63.147C25.1511 63.3821 24.8867 63.6613 24.725 63.9552C24.5781 63.9699 24.4311 63.9993 24.2989 64.0581C24.2401 64.0874 24.1813 64.1168 24.1226 64.1462C23.8728 64.1462 23.623 64.205 23.4026 64.2785C22.7707 64.4989 22.2417 64.8662 21.8303 65.2776C21.4483 65.2483 21.0809 65.3217 20.7577 65.4687C20.0377 65.8066 19.3764 66.747 19.2001 67.4964C18.8034 67.7022 18.4213 68.0401 18.1274 68.4075C17.6719 68.5544 17.2017 68.8336 16.8491 69.1862C16.2025 69.3185 15.5266 69.6564 15.1152 70.156C14.3217 70.3764 13.5576 70.876 13.1609 71.5226C12.7495 72.1691 12.6907 73.1536 12.867 73.8736C12.7495 73.9177 12.6466 73.9765 12.5437 74.0499C12.1617 74.3585 11.8531 74.961 11.7503 75.5193C11.6033 75.6663 11.4564 75.7985 11.3095 75.9602C11.089 76.1659 10.8833 76.4597 10.707 76.783C10.2515 77.0916 9.78128 77.5765 9.45802 78.223C9.13475 78.8696 8.97312 79.6777 9.09067 80.3977C9.16414 80.8973 9.38455 81.3822 9.67843 81.7936C9.81067 82.2639 10.0458 82.69 10.2809 83.0279L10.6776 83.6745C10.9421 83.9096 11.236 84.0859 11.5005 84.2181C11.6474 84.2916 11.765 84.3357 11.8531 84.3357C11.956 84.3504 12.0588 84.3651 12.147 84.3798C12.2939 84.3798 12.3968 84.3798 12.5291 84.3798C12.8964 84.4826 13.1462 84.4973 13.4842 84.5414C13.8662 84.5561 14.3364 84.5267 14.6597 84.4092C15.6882 84.4092 16.5258 84.0418 17.1136 83.4834C17.6425 83.3512 18.1127 83.1014 18.4507 82.7487H18.5683C19.1413 82.8369 19.9348 82.6606 20.5373 82.2932C21.3454 82.3226 22.2564 82.0875 22.756 81.5732C22.9177 81.3969 23.0499 81.1765 23.1528 80.9267C23.6671 80.7357 24.196 80.4124 24.5487 80.0304C24.7103 80.0304 24.8573 80.0304 25.0042 80.001C26.2091 79.7806 27.1495 79.0753 27.6785 78.1642C27.9871 78.0026 28.281 77.7822 28.4573 77.5471C28.7659 77.5912 29.0891 77.5912 29.3683 77.4736C29.7797 77.3267 30.1912 76.9446 30.485 76.5185C30.5291 76.5038 30.5879 76.4891 30.632 76.4597C31.1757 76.1806 31.6018 75.7985 31.9104 75.3724C32.8214 75.3136 33.9381 74.8434 34.3789 74.1087C34.4083 74.0646 34.423 74.0059 34.4524 73.9618C34.4965 73.9324 34.5406 73.8883 34.57 73.8442C34.8491 74.623 35.3487 75.2842 35.8777 75.5928C35.9365 75.6516 35.9806 75.725 36.0394 75.7838C36.1569 76.3569 36.5977 77.0475 37.2443 77.4442C37.9936 77.9291 38.9488 78.0467 39.6541 77.9144C40.3741 77.7969 40.9177 77.4883 41.1969 77.1797H41.3145C41.3145 77.1797 41.3292 77.1797 41.3439 77.2091V77.2385C41.6377 77.9732 42.152 78.4434 42.6957 78.7961C43.1659 79.8247 44.1651 80.6916 45.2965 81.1177C45.708 81.4851 46.2076 81.8083 46.7953 82.0434C47.2802 82.2345 47.868 82.3667 48.4851 82.3814C48.0737 82.499 47.7357 82.7194 47.6917 83.0426C47.6182 83.4247 47.9121 84.0124 48.3382 84.4973C48.2647 84.512 48.1912 84.5414 48.1472 84.5708C47.9415 84.703 47.8827 85.0116 47.9415 85.3055C47.8533 85.3643 47.7651 85.4084 47.677 85.4671C47.5447 85.5406 47.4272 85.6435 47.339 85.7757C46.6484 85.8639 46.0019 86.2459 46.0165 86.7602C46.0165 86.9365 46.1047 87.1422 46.237 87.348C46.2076 87.6124 46.2663 87.9063 46.428 88.1414C46.4574 88.1855 46.4868 88.2149 46.5161 88.2443C46.4868 88.3178 46.4427 88.3765 46.3986 88.45C46.3251 88.5529 46.2957 88.6851 46.2957 88.8467C45.9872 89.1406 45.9284 89.552 46.1194 89.9929C45.9725 90.2133 45.9578 90.4778 46.0606 90.7276L45.9872 90.757C45.6345 90.9039 45.3553 91.2272 45.3259 91.5798C44.8557 91.8149 44.5325 92.2263 44.6794 92.6084C44.7235 92.7406 44.841 92.8729 44.9733 93.0198C44.8263 93.2696 44.7969 93.5782 44.9145 93.8574C44.8263 93.9161 44.7382 93.9602 44.6794 94.019C44.1798 94.5333 44.1945 95.1504 44.6353 95.6794C44.5912 95.8558 44.6059 96.0321 44.6794 96.2084C44.459 96.3407 44.2827 96.5317 44.2239 96.8256C44.1357 97.2223 44.312 97.9717 44.841 98.5447C44.8704 98.6182 44.8998 98.6917 44.9292 98.7505C45.3994 99.6174 46.1341 99.9407 46.6337 99.9701C47.1774 100.734 48.0737 101.116 48.7349 100.793C48.779 100.778 48.8084 100.749 48.8525 100.719C49.1023 100.705 49.3227 100.631 49.5137 100.514C49.6753 100.558 49.8223 100.587 49.9986 100.617C50.3953 100.719 50.9096 100.617 51.277 100.381C51.5121 100.337 51.7178 100.22 51.8794 100.073C52.1733 100.102 52.4378 100.044 52.6288 99.926C53.0549 99.6468 53.246 99.206 53.2754 98.7211C53.3047 98.7064 53.3341 98.677 53.3635 98.6476C53.4517 98.5594 53.4958 98.4713 53.5398 98.3684C54.0101 98.5741 54.4949 98.6182 54.7301 98.3831C54.8476 98.2656 54.9211 98.0745 54.9358 97.8541C55.2443 97.7219 55.4501 97.4574 55.5235 97.1194C55.6558 97.1929 55.788 97.237 55.9203 97.2664C56.0966 97.3105 56.2582 97.3105 56.4199 97.2664C56.5815 97.237 56.7431 97.1635 56.8313 97.1341C57.037 97.046 57.1546 96.8696 57.1839 96.6198C57.2133 96.326 57.1546 96.0027 57.0664 95.6354L57.0958 95.5913C57.3456 95.7088 57.5513 95.7823 57.7276 95.7676C58.1097 95.7088 58.3007 95.1357 58.1978 94.5774L58.2713 94.548C58.2713 94.548 58.3595 94.5039 58.4035 94.4745C58.5652 94.5627 58.7268 94.6068 58.8591 94.6068C59.1529 94.6068 59.4027 94.3423 59.5056 94.0043C59.6231 93.9749 59.7554 93.9455 59.8729 93.9162C60.2991 93.8574 60.6958 93.4459 60.8133 92.9023C61.0631 92.8729 61.2689 92.7847 61.4305 92.6525C61.6509 91.7414 61.9301 90.8451 62.0917 89.9782C62.1358 89.7431 62.4003 89.7578 62.6795 89.8312C62.7676 90.3455 62.988 90.8451 63.3407 91.1684V91.1978C62.9293 91.7121 62.6942 92.5496 63.0174 93.1521C63.0174 93.4313 63.0468 93.7398 63.0762 94.0484C63.0762 94.0925 63.0762 94.1366 63.0909 94.1953C62.9734 94.3423 62.8558 94.5039 62.7676 94.6802C62.6207 94.9447 62.5325 95.2827 62.5032 95.6354C61.7978 96.4729 61.4305 98.0158 62.1652 98.9268C61.9154 99.2501 61.7978 99.6321 61.8566 100.088C61.9007 100.411 62.0476 100.69 62.2387 100.969C61.7244 101.792 61.5187 102.997 62.1652 103.732V103.82C62.1211 104.334 62.2533 104.966 62.5472 105.48C62.2387 105.789 62.0623 106.186 62.1211 106.656C62.1358 106.788 62.1799 106.906 62.2387 107.038C62.0623 107.537 62.1505 108.066 62.3415 108.654C61.5627 109.462 59.4762 111.064 60.2991 111.99C60.3431 112.504 60.5048 113.018 60.784 113.488C60.784 113.547 60.7693 113.591 60.7693 113.65C60.7693 113.856 60.7693 114.062 60.828 114.282C60.6958 114.576 60.6223 114.884 60.5929 115.222L60.5048 115.296L60.4607 115.34C60.6958 115.502 60.7987 115.707 60.6958 115.972C60.2109 117.265 60.5782 119.337 61.4452 120.424C61.2689 121.144 60.8868 121.791 60.3725 122.32C60.1962 124.509 59.2264 126.919 58.7268 128.888C58.3301 130.489 57.8746 132.12 57.6835 133.766C57.6542 133.957 57.6835 134.28 57.6835 134.618C58.139 135.133 58.4623 135.618 58.6974 136.132C58.7415 136.132 58.7856 136.161 58.8444 136.176C59.0648 136.235 59.0354 136.205 59.1235 136.22C59.1823 136.22 59.2411 136.22 59.2999 136.22C59.535 136.22 59.7848 136.205 60.0052 136.117C60.0052 136.117 60.0199 136.117 60.0346 136.117C60.0346 136.161 60.0346 136.205 60.0346 136.264C60.0786 136.558 60.2256 136.925 60.446 137.205C60.5342 137.763 60.8133 138.174 61.0925 138.38C61.1366 138.409 61.1807 138.439 61.2395 138.454C61.2689 138.571 61.2836 138.674 61.3129 138.791C61.3423 138.982 61.4158 139.144 61.5187 139.306V139.409C61.5187 139.409 61.5627 139.57 61.5921 139.658C61.6509 139.82 61.7244 139.996 61.8125 140.143C61.9595 140.378 62.1799 140.643 62.3709 140.775C62.7676 141.084 63.1497 141.216 63.5023 141.231C63.8697 141.51 64.2811 141.598 64.6485 141.539L64.7072 141.613C64.957 142.024 65.4713 142.318 65.9709 142.362C66.3824 142.832 67.0289 143.141 67.5285 142.935C67.6901 142.876 67.8664 142.744 68.0134 142.582C68.3807 142.685 68.8215 142.656 69.1448 142.48C69.233 142.553 69.3358 142.627 69.4387 142.671C70.2616 143.053 71.1138 142.803 71.6575 142.186C71.9073 142.156 72.1424 142.068 72.304 141.921C72.5244 142.068 72.7595 142.186 72.9946 142.171C73.3326 142.171 73.6999 141.921 73.9497 141.598C73.9938 141.598 74.0232 141.598 74.0673 141.583C74.5228 141.451 74.8755 141.172 75.1106 140.805C75.4926 140.849 75.9334 140.746 76.3155 140.54C76.6828 140.32 76.9914 139.996 77.0942 139.614C77.0942 139.57 77.1089 139.511 77.1236 139.467C77.2999 139.262 77.4175 138.997 77.4616 138.762C77.6085 138.659 77.7702 138.527 77.9171 138.395C78.2991 138.101 78.593 137.528 78.6812 136.955C78.784 136.69 78.8722 136.382 78.8428 136.088C79.0338 135.794 79.1808 135.441 79.1808 135.147C79.1808 134.986 79.1661 134.824 79.1367 134.662C79.1073 134.501 79.0632 134.354 79.0044 134.295C78.8869 134.133 78.7253 133.972 78.5489 133.825C78.5489 133.796 78.5489 133.751 78.5489 133.722C78.5342 133.604 78.4902 133.502 78.4314 133.413C78.8869 133.178 79.2396 132.87 79.2542 132.532C79.2542 132.37 79.1808 132.179 79.0338 131.988C79.1661 131.665 79.1514 131.298 78.9898 130.96C79.1367 130.916 79.2689 130.871 79.3865 130.798C80.0036 130.431 80.2681 129.578 80.0036 129.02C79.842 128.682 79.5922 128.388 79.2836 128.138V128.065C79.5334 127.947 79.7538 127.8 79.8567 127.609C80.1065 127.183 79.8567 126.463 79.3865 126.081L79.4159 125.978C79.4159 125.978 79.4453 125.861 79.46 125.802C79.6363 125.714 79.7832 125.611 79.8861 125.493C80.1065 125.214 80.0918 124.773 79.9302 124.406C80.0036 124.274 80.0624 124.156 80.1359 124.009C80.4004 123.598 80.4004 122.937 80.1065 122.393C80.2681 122.173 80.3563 121.938 80.4004 121.702C80.1653 121.232 79.9595 120.733 79.7685 120.233C79.8567 120.145 79.9449 120.071 80.033 119.969C80.3857 119.836 80.7971 119.542 81.091 119.19C81.3996 118.837 81.6053 118.455 81.7522 118.132C81.8991 117.794 81.9579 117.544 81.9726 117.324C81.9873 117.089 81.9579 116.853 81.8551 116.633C82.7808 116.163 83.5302 115.311 83.2657 114.253C83.1481 113.812 82.8837 113.444 82.531 113.092C82.7661 112.636 82.8836 112.063 83.0159 111.431C83.0894 111.152 83.1041 110.799 83.0747 110.462C83.3979 109.991 83.6036 109.359 83.5155 108.772L83.5449 108.669C84.1326 108.434 84.6028 107.993 84.6763 107.302C84.7204 106.862 84.5881 106.435 84.3677 105.995C84.8379 105.495 85.1024 104.819 84.8232 104.173C84.9996 103.732 85.073 103.232 85.0437 102.733C85.4845 102.248 85.7049 101.586 85.411 100.955C85.3816 100.896 85.3522 100.852 85.3228 100.808C85.4257 100.617 85.4845 100.411 85.5433 100.19C85.749 99.9848 85.8959 99.7203 85.9694 99.397C86.0869 98.8386 85.8665 98.2656 85.5579 97.6925C85.9694 97.1488 86.1898 96.3553 85.9841 95.7088C86.1457 95.5472 86.2633 95.3562 86.3514 95.1064C86.6159 94.2688 86.322 93.3137 85.8665 92.2704C85.8518 92.2117 85.8077 92.1529 85.793 92.0941C85.7637 91.7268 85.602 91.4182 85.3669 91.1243C85.6167 90.5512 85.6167 89.89 85.4404 89.2435C85.5579 88.9349 85.6461 88.6116 85.6608 88.2737C85.6608 87.9504 85.6167 87.5831 85.4845 87.2451C85.6314 87.0541 85.7637 86.8631 85.8959 86.6573C86.3661 86.4075 86.7922 86.0696 87.1302 85.7022C88.2763 85.2761 89.3637 84.4679 89.6282 83.5422C89.7457 83.4834 89.8486 83.4394 89.9661 83.3806C90.8625 82.881 91.318 82.4255 91.9057 81.7496H91.9351C92.1849 81.9406 92.5376 82.1316 92.9931 82.2932C93.3604 82.4108 93.8012 82.5136 94.2568 82.499C94.4772 83.1014 94.8151 83.6598 95.3441 84.0712L95.0649 83.792C95.0649 83.792 95.1825 83.9096 95.256 83.9537C95.9466 84.5561 97.0192 84.7618 97.7833 84.6443C97.8421 84.7618 97.9009 84.8794 97.989 84.9822C98.3123 85.3937 98.9441 85.7316 99.5172 85.8492C99.6641 85.9961 99.8111 86.1577 99.9727 86.3047C100.178 86.5251 100.458 86.7455 100.796 86.9071C101.354 87.8475 102.676 88.7586 103.881 88.7733C104.087 88.7733 104.293 88.7586 104.484 88.7145C104.484 88.7439 104.484 88.7733 104.484 88.8027C104.528 89.1112 104.719 89.3316 104.969 89.4639C104.866 89.699 104.836 89.9194 104.895 90.0663C105.013 90.419 105.6 90.5512 106.144 90.4043C106.218 90.5806 106.365 90.7423 106.585 90.8157C106.585 91.0655 106.703 91.2859 106.864 91.4182C106.82 91.8149 106.908 92.1676 107.129 92.3145C107.099 92.8141 107.246 93.2108 107.569 93.3137C107.907 93.4166 108.495 93.1668 108.995 92.7994C108.995 92.8729 108.995 92.9317 109.024 92.9904C109.098 93.1961 109.377 93.2549 109.641 93.2108C109.671 93.299 109.7 93.3872 109.744 93.4753C109.788 93.6076 109.862 93.7251 109.965 93.8133C109.935 94.4892 110.2 95.1357 110.67 95.1211C110.832 95.1211 111.023 95.0329 111.228 94.9153C111.463 94.9594 111.728 94.886 111.948 94.739C111.978 94.7096 112.022 94.6802 112.051 94.6508L112.227 94.7537C112.316 94.8272 112.433 94.8566 112.565 94.8566C112.801 95.1504 113.168 95.2092 113.55 95.0035C113.741 95.1358 113.961 95.1357 114.182 95.0329L114.211 95.1064C114.329 95.4443 114.608 95.7088 114.916 95.7235C115.122 96.1643 115.504 96.4582 115.842 96.2966C115.96 96.2378 116.077 96.1202 116.18 95.9586C116.415 96.0762 116.665 96.1055 116.915 95.9586C116.974 96.0468 117.032 96.1202 117.091 96.179C117.605 96.6345 118.237 96.517 118.663 95.988C118.84 95.988 119.016 95.9439 119.148 95.8264C119.295 96.0174 119.472 96.1496 119.648 96.179C119.898 96.2231 120.206 96.0468 120.412 95.7823C120.441 95.7823 120.471 95.7823 120.5 95.7823C120.867 95.7382 121.161 95.5031 121.338 95.1945C121.97 95.4002 122.881 95.0182 122.983 94.357C122.983 94.3129 122.983 94.2688 122.983 94.2247C123.116 94.0484 123.189 93.8427 123.219 93.6517C123.351 93.5782 123.468 93.49 123.601 93.3872C123.924 93.1814 124.159 92.7259 124.203 92.2851C124.291 92.0794 124.335 91.8443 124.306 91.6239C124.482 91.4182 124.614 91.139 124.6 90.9333C124.6 90.4337 124.321 90.0516 123.909 89.8018C123.909 89.7725 123.909 89.7284 123.894 89.699C123.865 89.5961 123.806 89.508 123.733 89.4198C124.13 89.1406 124.409 88.7292 124.306 88.4353C124.262 88.2884 124.13 88.1414 123.924 88.0533C123.924 87.7447 123.777 87.4655 123.512 87.2892C123.63 87.1863 123.733 87.0982 123.806 86.9953C124.218 86.4369 124.027 85.6581 123.527 85.4377C123.233 85.3202 122.866 85.2467 122.513 85.3349L122.469 85.3055C122.631 85.0998 122.748 84.9088 122.763 84.7618C122.763 84.6296 122.704 84.5267 122.587 84.4386C123.101 84.4386 123.601 84.3651 124.027 84.1888C124.556 84.3798 125.261 84.4386 125.952 84.321C126.642 84.2034 127.303 83.8949 127.715 83.4688C127.774 83.41 127.803 83.3512 127.862 83.2924C128.259 83.0573 128.596 82.7487 128.817 82.4402C129.081 82.3079 129.346 82.1463 129.625 81.9406C130.301 81.5145 130.962 80.6181 131.241 79.6924C131.477 79.2516 131.609 78.752 131.653 78.2818C131.917 77.7675 132.079 77.1797 132.079 76.6655C132.079 75.5193 131.653 74.5789 131.094 73.9912C131.08 73.903 131.036 73.8148 131.006 73.7414C130.889 73.4916 130.771 73.2565 130.61 73.0654C130.712 72.6246 130.654 72.0809 130.463 71.5667C130.727 71.4491 131.021 71.2875 131.285 71.0671C131.8 70.6556 132.285 70.112 132.579 69.5389L132.725 69.4213C133.181 69.4213 133.754 69.2303 134.268 68.7748C134.548 68.4956 134.841 68.143 135.047 67.6875C135.253 67.2466 135.37 66.747 135.385 66.2768C135.429 65.3511 135.106 64.6017 134.783 64.2344C134.783 64.1462 134.753 64.0581 134.739 63.9552C134.724 63.7936 134.68 63.6466 134.621 63.485C134.694 63.1764 134.694 62.8091 134.592 62.4417C134.489 62.0303 134.195 61.5454 133.857 61.1927C133.519 60.8254 133.122 60.5315 132.74 60.3552C132.534 60.1201 132.314 59.885 132.094 59.6646C131.756 59.2972 131.271 58.974 130.771 58.7535C130.272 58.5331 129.772 58.4009 129.302 58.3568C128.993 58.0629 128.641 57.8278 128.259 57.6368C126.642 57.5046 125.026 57.3135 123.439 57.2254C123.219 57.2254 123.072 57.1225 122.969 57.0197C123.16 56.7405 123.263 56.5348 123.248 56.3731C123.248 56.285 123.219 56.2409 123.189 56.1527C123.307 56.0058 123.292 55.8148 123.395 55.5062C123.483 55.5356 123.556 55.565 123.645 55.565C123.689 55.565 123.718 55.565 123.762 55.5503C123.924 55.6384 124.1 55.6972 124.276 55.7266C124.82 55.8148 125.525 55.8148 126.304 55.6384C126.73 55.8294 127.245 55.9617 127.862 55.8882C128.523 55.8294 129.419 55.4474 130.036 54.9331C130.683 54.4188 131.08 53.7576 131.241 53.2433C131.8 52.7731 132.255 52.0825 132.49 51.4066C132.961 50.8629 133.328 50.0694 133.445 49.2906C133.49 49.2172 133.534 49.129 133.578 49.0408C133.783 48.9821 133.93 49.0849 134.077 49.3053C134.298 49.6727 134.944 49.5111 135.268 49.4964C135.855 49.4964 136.458 49.6874 137.06 49.7168C138.471 49.7608 139.676 49.2172 140.66 48.2915C140.998 47.9682 141.424 48.4825 141.645 49.0996C142.159 49.0996 142.629 48.8939 142.806 48.3355C142.82 48.2768 142.835 48.2033 142.85 48.1445C142.967 48.1004 143.07 48.0417 143.188 47.9682C143.922 48.3649 144.966 48.4237 145.377 47.7037C145.744 48.0123 146.156 48.2327 146.538 48.3061C146.729 48.3355 146.905 48.3355 147.081 48.2768C147.272 48.218 147.464 48.1004 147.655 47.9094C147.948 47.6008 148.125 47.1894 148.228 46.7045C148.727 46.6604 149.286 46.44 149.903 46.1021C150.197 45.9698 150.49 45.72 150.74 45.3968C151.343 45.2498 152.077 44.6327 152.283 43.9567L152.357 43.8539C153.033 43.7951 153.782 43.2808 153.988 42.2376C154.12 41.5763 153.944 40.9004 153.591 40.3567C153.899 39.4163 153.547 38.1967 152.665 37.7412C152.313 37.0947 151.695 36.6539 151.093 36.4334C150.637 35.7869 149.844 35.3902 149.153 35.64C149.095 35.6694 149.05 35.6987 148.992 35.7281C148.801 35.6253 148.58 35.5371 148.375 35.493C148.169 35.2873 147.904 35.1257 147.581 35.0963C147.037 35.0228 146.538 35.2726 146.038 35.64C145.524 35.302 144.789 35.1551 144.304 35.4343C144.172 35.302 144.01 35.1845 143.834 35.1257C143.202 34.8906 142.57 35.2579 141.777 35.6547C141.733 35.6694 141.689 35.6987 141.645 35.7281C141.38 35.7281 141.145 35.8898 140.91 36.1102C140.484 35.831 139.999 35.7281 139.499 35.831C139.294 35.6694 139.059 35.5518 138.809 35.4783C138.515 35.3902 138.162 35.4049 137.81 35.493C137.868 35.3167 137.927 35.1257 137.957 34.92C138.103 34.1265 137.898 33.2155 137.472 32.7747C137.428 32.6718 137.398 32.5542 137.339 32.4514C137.413 31.8342 137.163 31.0408 136.634 30.6293C136.517 30.3061 136.252 29.9975 135.914 29.8065C135.826 29.7477 135.723 29.7183 135.635 29.6742C135.37 29.1893 134.915 28.7338 134.386 28.4399C133.431 27.8816 132.108 27.8963 131.359 28.4399C130.889 28.484 130.419 28.6603 130.081 28.9689C130.022 28.9689 129.963 28.9689 129.904 28.9983C129.757 29.0424 129.596 29.1012 129.449 29.1893C129.184 29.1599 128.934 29.1893 128.67 29.2628L128.552 29.1746C128.214 28.9542 127.774 28.8367 127.333 28.822C127.201 28.7779 127.068 28.7632 126.921 28.7779C126.216 28.8073 125.658 29.4244 125.055 30.1297C124.791 30.1004 124.512 30.1297 124.262 30.2326C123.865 30.0416 123.424 29.9681 123.042 30.071C123.13 29.6742 123.145 29.2628 123.086 28.8808C123.042 28.5575 122.895 28.2048 122.734 27.911C122.807 27.1028 122.631 26.0595 122.146 25.3101C122.131 25.0603 122.087 24.8105 122.028 24.5607C121.94 24.2962 121.837 24.0464 121.72 23.7967C121.587 23.5616 121.426 23.3264 121.264 23.106C120.926 22.6946 120.515 22.2979 120.059 22.0334C119.148 21.475 118.193 21.3134 117.444 21.4015C116.915 21.2546 116.386 21.2252 116.004 21.284C115.695 21.0489 115.313 20.8579 114.916 20.7991C114.343 20.7109 113.609 20.7991 112.992 21.0489C112.933 21.0489 112.859 21.0489 112.801 21.0342C111.992 21.0342 111.258 21.2105 110.655 21.5191C109.568 21.2252 107.937 21.4456 107.099 22.1215C107.04 22.1656 106.996 22.2244 106.952 22.2685C106.57 22.4301 106.218 22.6358 105.953 22.8562C105.689 22.915 105.409 22.9738 105.13 23.0473C104.925 23.0913 104.704 23.1501 104.484 23.2383C104.425 22.4595 104.263 21.6513 103.823 20.8726C103.44 20.1526 102.838 19.5207 102.191 19.0652C101.545 18.6097 100.898 18.3158 100.296 18.1101C99.6935 17.8897 99.1352 17.7574 98.6356 17.6252C98.1507 17.5076 97.7098 17.3901 97.269 17.2138C96.9604 17.0962 96.8723 16.8464 96.9604 16.5966C97.0339 16.3615 97.2837 16.1264 97.5482 15.9354C97.5335 15.7444 97.5629 15.7003 97.5188 15.715C97.4747 15.715 97.3278 15.715 97.1515 15.4799L97.0192 15.3329C97.078 15.1713 97.1221 15.0244 97.1808 14.8627C97.416 14.7305 97.6804 14.5542 97.9596 14.2456C98.2535 13.9517 98.5474 13.4815 98.7825 12.9525C99.047 12.4382 99.1205 11.8505 99.1792 11.3068C99.1792 10.7631 99.1351 10.2341 98.9294 9.80802C99.0911 9.42598 99.238 8.97046 99.2674 8.48557C99.3262 7.98597 99.2821 7.47168 99.1792 6.9427C98.9441 5.89943 98.3711 4.87085 97.5041 4.20963C97.1515 3.93044 96.7988 3.73942 96.4462 3.62187C96.0935 3.50432 95.7702 3.43085 95.4323 3.43085C94.7857 2.66676 93.7866 2.00554 92.611 1.47655C92.0821 1.21206 91.4061 1.05043 90.7302 1.00635C89.7016 0.536141 88.4233 0.41859 87.4094 0.683081H87.2184C86.4984 0.227569 85.3669 -0.00753449 84.1473 0.403896C83.3685 0.668387 82.7808 1.1239 82.2812 1.63819C81.1938 1.69696 79.9889 2.15248 79.3571 3.00472C78.6812 3.2986 78.0493 3.72473 77.491 4.22432C77.3881 4.12146 77.2999 4.00391 77.1971 3.90105C76.9914 3.48962 76.6534 3.0635 76.1391 2.69615C75.2722 2.07901 74.2436 1.8439 73.1856 1.82921C72.3481 1.13859 70.8934 0.609611 69.7179 0.785938C69.424 0.624305 69.042 0.49206 68.5864 0.41859C66.9701 0.183487 65.1187 0.918184 63.5758 2.16717C63.4876 2.22594 63.3995 2.31411 63.326 2.38758H63.2966C62.7383 2.72554 62.3415 3.18105 62.0329 3.69534C61.0778 4.07738 60.1227 4.88555 59.5203 5.92882C59.0942 6.26678 58.6827 6.6929 58.3154 7.20719C57.6982 8.10352 57.3015 9.48475 57.4044 10.5868C57.3603 10.7484 57.3456 10.9101 57.3309 11.0864V11.1158C57.0958 11.7329 57.0958 12.3795 57.1546 12.9672C56.9929 13.3933 56.9048 13.8342 56.8166 14.2162C56.7284 14.5982 56.6697 14.8774 56.508 15.1566C56.4786 15.2301 56.4346 15.3182 56.3758 15.4064C56.317 15.4946 56.2876 15.5974 56.2288 15.715C56.0672 15.7885 55.9496 15.8913 55.8027 15.9942C55.6411 16.097 55.4941 16.2146 55.3472 16.3468C54.5096 16.244 53.3047 16.3468 52.3056 16.964C52.1586 16.8023 51.997 16.6407 51.806 16.4644C51.806 16.4644 51.806 16.4644 51.7913 16.4497C51.8353 16.3468 51.8941 16.244 51.9529 16.1558C51.8941 16.244 51.9529 16.1264 51.9382 16.0676C51.9088 16.0089 51.85 15.9501 51.806 15.906C51.659 15.7885 51.468 15.7444 51.2917 15.6856C51.13 15.6415 51.13 15.4799 51.2476 15.2301C51.4092 14.848 51.0419 14.657 50.9096 14.466C50.6892 14.1427 50.6011 13.6872 50.3953 13.3199C49.9104 12.4823 49.0876 12.115 48.1031 12.2031C47.7651 12.2325 47.9415 11.6007 48.25 11.0276C48.0443 10.719 47.7063 10.5868 47.2802 10.8954C47.2361 10.9248 47.1774 10.9688 47.1333 11.0129C47.0598 10.9688 46.9716 10.9541 46.8835 10.9395C46.8247 10.2194 46.3545 9.54353 45.708 9.88149C45.708 8.99985 45.3553 8.23577 44.65 8.50026C44.3561 8.60312 44.0769 8.86761 43.7831 9.20557C43.5627 8.99985 43.2541 8.897 42.9014 8.79414C42.7545 8.72067 42.5488 8.72067 42.3431 8.79414C42.1373 8.51495 41.7994 8.35332 41.4467 8.45618C41.432 8.45618 41.4173 8.45618 41.388 8.44148C41.3586 7.89781 41.1822 7.47168 40.8002 7.4423C40.5504 7.4276 40.2859 7.57454 40.0067 7.82434C39.8157 7.41291 39.4777 7.1778 39.0663 7.50107C38.8459 7.35413 38.5961 7.29536 38.3169 7.35413C38.1259 6.9427 37.832 6.73699 37.4353 7.04556C37.4059 7.07495 37.3765 7.10433 37.3324 7.13372C37.2443 7.04556 37.1561 6.97209 37.0532 6.92801C36.9945 6.72229 36.8769 6.57535 36.73 6.51658C36.4655 6.39902 36.1275 6.57535 35.7602 6.85454C35.5692 6.44311 35.1724 6.13453 34.7463 6.28147C34.6875 6.11984 34.5847 5.9729 34.4377 5.87004C33.9528 5.50269 33.174 5.7231 32.3953 6.16392C32.3512 6.17862 32.3071 6.2227 32.263 6.23739C31.9985 6.28147 31.7634 6.4725 31.5871 6.72229C31.0728 6.54596 30.4704 6.6929 30.0589 7.10433C29.7797 7.10433 29.4712 7.1925 29.192 7.35413C28.7218 7.63332 28.3103 8.33863 28.3544 8.99985C28.3103 9.07332 28.2957 9.17618 28.2663 9.26434C28.0312 9.55822 27.9577 9.96965 28.0459 10.3958C27.7226 10.9982 27.9283 11.8946 28.3544 12.5264C28.4426 12.7027 28.5895 12.8644 28.7659 12.9819C28.854 13.2464 29.0157 13.4374 29.2214 13.5844C29.0744 14.3191 29.3389 15.1125 29.912 15.0685C29.9267 15.1272 29.9414 15.186 29.9708 15.2448C30.1618 15.7297 30.7936 16.0236 31.543 15.7297C31.5871 15.7297 31.6312 15.7591 31.6753 15.7591C31.7046 16.0529 31.8222 16.288 32.0573 16.3468C32.0573 16.5085 32.1308 16.626 32.263 16.6848C32.2924 16.6995 32.3365 16.7142 32.3806 16.7142C32.3365 17.0374 32.3512 17.346 32.4246 17.5958C32.5716 18.0513 33.0565 18.3893 33.6736 18.3011C33.8647 18.4481 34.1438 18.5215 34.4524 18.4774C34.4818 18.4921 34.4965 18.5215 34.5259 18.5509C34.5994 18.6097 34.7022 18.6538 34.8198 18.6685C34.8785 18.8301 34.9961 18.9477 35.1283 19.0358L35.0989 19.1534C35.0402 19.4766 35.0843 19.8146 35.2165 20.0497C35.2165 20.1526 35.2459 20.2407 35.3047 20.3142C35.5398 20.6962 36.1422 20.6375 36.8622 20.5493C36.9063 20.7256 37.0092 20.8726 37.1414 20.9607C37.0679 21.5632 37.2736 22.0775 37.8908 21.9158C37.9055 21.9746 37.9202 22.0334 37.9496 22.0922C38.1553 22.5036 38.7724 22.724 39.463 22.4007H39.4777C39.419 22.8709 39.6247 23.3264 40.0802 23.2824C40.1684 23.3558 40.2859 23.4146 40.4035 23.4734C39.9773 23.7526 39.4924 23.7232 39.1104 23.5028C38.3463 24.3403 37.8614 25.5452 38.0083 26.5297C37.979 26.5003 37.9643 26.4856 37.9349 26.4563C37.5822 26.1918 37.1855 25.9273 36.73 25.7509C35.8336 25.3689 34.761 25.2367 33.7618 25.4571C33.3504 25.5599 32.983 25.6922 32.6744 25.8538C32.3659 26.0448 32.1014 26.2505 31.881 26.4856C30.8965 26.4416 29.7797 26.6767 28.5895 27.044C28.0459 27.2057 27.4581 27.4848 26.9291 27.8522C25.9299 28.0726 24.7397 28.6603 24.0491 29.4685L23.8875 29.5861C23.6671 29.5861 23.432 29.6155 23.1969 29.6595C22.9618 29.7183 22.7266 29.8065 22.4769 29.924C22.2271 30.0416 21.9773 30.1885 21.7422 30.3648C21.5952 30.4971 21.4336 30.644 21.2866 30.8057C21.1985 30.5559 21.0956 30.3061 20.9928 30.0857C20.934 30.115 20.8752 30.1151 20.8311 30.1151C20.8017 30.1151 20.7724 30.115 20.743 30.1004C20.6989 30.1004 20.6548 30.071 20.6107 30.071H20.596C20.596 30.071 20.4785 30.0857 20.4491 30.0122L20.4197 29.8799C20.4197 29.7771 20.4197 29.6742 20.4344 29.5567V29.4979C20.4344 29.4979 20.3168 29.5567 20.2728 29.4685C20.2287 29.351 20.1699 29.2628 20.0964 29.1893C20.067 29.1599 20.0377 29.1453 20.0083 29.1306C19.9348 29.1746 19.8613 29.1599 19.8319 29.0424C19.7732 29.0277 19.7144 29.013 19.6409 29.013C19.5528 29.0277 19.4646 29.0865 19.3617 29.1453H19.347L19.3177 29.204C19.2148 29.3216 19.1266 29.3363 19.0679 29.2481C19.0385 29.204 19.0385 29.1452 19.0238 29.0865C18.8915 29.2628 18.7446 29.2922 18.7005 29.0277C18.6858 28.9101 18.6858 28.8808 18.6417 28.8367C18.6417 28.822 18.5536 28.7926 18.5095 28.8073C18.436 28.8073 18.2597 28.9395 18.1568 29.0424C17.9658 29.2481 17.8483 29.1012 17.8483 28.7632C17.8483 28.5281 17.8776 28.2636 17.9364 28.0138C17.8483 27.9697 17.7601 27.9403 17.6572 27.8963C17.5838 27.9257 17.5103 27.9844 17.4368 28.0432C17.3046 28.1608 17.2458 28.0138 17.2164 27.8081C17.1723 27.8522 17.1283 27.8963 17.0989 27.9403C16.8932 27.7787 16.658 27.7346 16.4523 27.8963C16.2319 27.6465 15.938 27.4995 15.6001 27.3526C15.5413 27.3232 15.4825 27.2938 15.4091 27.2791C15.3209 27.0587 15.2033 26.8824 15.0711 26.7942C14.7038 26.5738 14.1013 26.9852 13.8074 27.5583C13.734 27.5877 13.6605 27.6171 13.587 27.6759C13.4695 27.573 13.3225 27.5142 13.205 27.5289C12.9993 27.5583 12.8082 27.6905 12.6466 27.8816C12.4997 27.8081 12.3527 27.7934 12.2205 27.8375C12.0001 27.2938 11.5446 26.8677 11.1331 26.8824C11.0744 26.8236 11.0009 26.7648 10.9421 26.7354C10.6629 26.6179 10.2956 26.8383 10.0311 27.191C10.0017 27.191 9.987 27.191 9.95761 27.191C9.63435 27.2644 9.36985 27.5289 9.19353 27.9257C8.92904 27.3379 8.5323 26.853 8.16495 26.8236C7.8123 26.7942 7.40087 27.1616 7.20984 27.6612C7.13637 27.6612 7.0629 27.6612 6.98944 27.6905C6.73964 27.7934 6.53392 28.1901 6.48984 28.631C6.37229 28.6897 6.26943 28.7632 6.19596 28.8808C6.00494 28.7191 5.79923 28.631 5.63759 28.6604C5.3878 28.6897 5.16739 29.013 5.1233 29.3657C4.96167 29.3804 4.84412 29.4685 4.72657 29.5714C4.08003 29.1746 3.03676 29.2922 2.84574 29.924C2.81636 30.0122 2.81636 30.115 2.81636 30.2179C2.59595 30.4677 2.49309 30.8497 2.58125 31.173C2.49309 31.2024 2.40493 31.2465 2.34615 31.3053C2.31676 31.3346 2.30207 31.364 2.28737 31.3934L2.09635 31.364ZM61.7244 87.8182C61.7978 87.5831 61.8713 87.3626 61.9448 87.1422C61.9448 87.1422 61.9448 87.1716 61.9448 87.1863C61.9448 87.348 61.9742 87.539 62.077 87.7153C62.1358 87.8182 62.2534 87.921 62.3562 88.0239C62.4738 87.9651 62.5913 87.8916 62.7089 87.8329C62.7383 88.0092 62.8117 88.1708 62.9146 88.3325C62.8705 88.4353 62.8411 88.5235 62.8117 88.6263C62.7383 88.8761 62.7236 89.1553 62.7236 89.4345C62.6942 89.361 62.6795 89.3022 62.6501 89.2288C62.606 89.1553 62.5619 89.0671 62.5178 88.9937C62.5178 88.9937 62.3856 88.8614 62.3709 88.8467C62.2534 88.7292 62.1358 88.5529 62.1799 88.45C62.2093 88.3912 62.2387 88.2737 62.2827 88.1855C62.1211 88.0826 61.9301 87.9504 61.8125 87.8329C61.7831 87.8329 61.7538 87.8329 61.7391 87.8329C61.7391 87.8329 61.7391 87.8329 61.7391 87.8182H61.7244ZM20.405 31.2906C20.5519 31.2906 20.6989 31.2465 20.8605 31.1436C20.8605 31.1436 20.8458 31.173 20.8311 31.1877C20.787 31.2318 20.743 31.2906 20.6989 31.3346C20.7577 31.2759 20.6989 31.3346 20.6989 31.3934C20.6989 31.3934 20.6989 31.3934 20.6989 31.4081C20.5813 31.364 20.4638 31.3346 20.3462 31.2906C20.3756 31.2906 20.405 31.2906 20.4197 31.2906H20.405Z" fill="white"/>
<g style="mix-blend-mode:multiply">
<path d="M131.315 64.0727C131.315 63.9846 131.286 63.8964 131.271 63.7935C131.256 63.6319 131.212 63.485 131.153 63.3233C131.227 63.0148 131.227 62.6474 131.124 62.2801C131.021 61.8686 130.727 61.3837 130.389 61.0311C130.051 60.6637 129.655 60.3699 129.273 60.1935C129.067 59.9584 128.846 59.7233 128.626 59.5029C128.288 59.1356 127.803 58.8123 127.304 58.5919C126.804 58.3715 126.304 58.2392 125.834 58.1952C125.526 57.9013 125.173 57.6662 124.791 57.4752C123.175 57.3429 121.558 57.1519 119.971 57.0637C119.751 57.0637 119.604 56.9609 119.501 56.858C119.692 56.5788 119.795 56.3731 119.78 56.2115C119.78 56.1233 119.751 56.0792 119.721 55.9911C119.839 55.8441 119.824 55.6531 119.927 55.3445C120.015 55.3739 120.089 55.4033 120.177 55.4033C120.221 55.4033 120.25 55.4033 120.295 55.3886C120.456 55.4768 120.632 55.5355 120.809 55.5649C121.352 55.6531 122.058 55.6531 122.837 55.4768C123.263 55.6678 123.777 55.8 124.394 55.7266C125.055 55.6678 125.952 55.2858 126.569 54.7715C127.215 54.2572 127.612 53.596 127.774 53.0817C128.332 52.6115 128.788 51.9208 129.023 51.2449C129.493 50.7012 129.86 49.9078 129.978 49.129C130.477 48.2914 130.668 46.9837 130.36 45.9698C130.492 44.7208 130.007 43.2367 129.17 42.3698C128.317 41.4588 127.024 41.0767 126.157 41.209C126.069 41.0767 125.966 40.9445 125.834 40.8269C125.349 40.3714 124.497 40.0481 123.762 40.0187C123.542 39.8865 123.307 39.7543 123.072 39.6514C122.763 39.4751 122.381 39.3428 121.999 39.2547C121.573 38.8726 121.059 38.5347 120.618 38.2996C120.177 38.0645 119.839 37.9175 119.604 37.9322C119.428 37.9322 119.281 38.0351 119.06 38.1379C118.972 38.1085 118.869 38.0791 118.722 38.0645C118.619 38.0351 118.458 38.0498 118.34 38.0351H118.208C118.208 38.0351 118.164 37.8734 118.12 37.8C118.09 37.6677 118.032 37.5061 117.943 37.3298C118.032 36.7861 117.973 36.0955 117.752 35.3461C117.885 34.8318 117.914 34.3028 117.841 33.7885L117.914 33.6857C118.311 33.2301 118.663 32.4073 118.781 31.5844C119.325 30.8497 119.736 29.7036 119.575 28.6897C119.53 28.3664 119.383 28.0138 119.222 27.7199C119.295 26.9117 119.119 25.8685 118.634 25.1191C118.619 24.8693 118.575 24.6195 118.517 24.3697C118.428 24.1052 118.326 23.8554 118.208 23.6056C118.076 23.3705 117.914 23.1354 117.752 22.915C117.414 22.5036 117.003 22.1068 116.548 21.8423C115.637 21.284 114.681 21.1223 113.932 21.2105C113.403 21.0636 112.874 21.0342 112.492 21.093C112.183 20.8578 111.801 20.6668 111.405 20.608C110.832 20.5199 110.097 20.608 109.48 20.8578C109.421 20.8578 109.348 20.8578 109.289 20.8432C108.481 20.8432 107.746 21.0195 107.143 21.3281C106.056 21.0342 104.425 21.2546 103.588 21.9305C103.529 21.9746 103.485 22.0334 103.441 22.0774C103.059 22.2391 102.706 22.4448 102.441 22.6652C102.177 22.724 101.898 22.7828 101.619 22.8562C101.413 22.9003 101.192 22.9591 100.972 23.0472C100.913 22.2685 100.752 21.4603 100.311 20.6815C99.9287 19.9615 99.3263 19.3297 98.6797 18.8742C98.0332 18.4187 97.3867 18.1248 96.7842 17.9191C96.1818 17.6986 95.6234 17.5664 95.1238 17.4342C94.6389 17.3166 94.1981 17.1991 93.7572 17.0227C93.4487 16.9052 93.3605 16.6554 93.4487 16.4056C93.5221 16.1705 93.7719 15.9354 94.0364 15.7444C94.0217 15.5533 94.0511 15.5093 94.0071 15.5239C93.963 15.5239 93.816 15.5239 93.6397 15.2888L93.5075 15.1419C93.5662 14.9803 93.6103 14.8333 93.6691 14.6717C93.9042 14.5395 94.1687 14.3631 94.4479 14.0546C94.7417 13.7607 95.0356 13.2905 95.2707 12.7615C95.5352 12.2472 95.6087 11.6594 95.6675 11.1158C95.6675 10.5721 95.6234 10.0431 95.4177 9.61698C95.5793 9.23494 95.7262 8.77942 95.7556 8.29452C95.8144 7.79493 95.7703 7.28064 95.6675 6.75166C95.4324 5.70839 94.8593 4.67981 93.9924 4.01859C93.6397 3.7394 93.287 3.54838 92.9344 3.43083C92.5817 3.31328 92.2585 3.23981 91.9205 3.23981C91.274 2.47572 90.2748 1.8145 89.0993 1.28551C88.5703 1.02102 87.8944 0.859389 87.2185 0.815307C86.1899 0.345101 84.9115 0.22755 83.8976 0.492041H83.7066C82.9866 0.0365286 81.8552 -0.198575 80.6356 0.212856C79.8568 0.477347 79.269 0.932859 78.7694 1.44715C77.6821 1.50592 76.4772 1.96144 75.8453 2.81368C75.1694 3.10756 74.5376 3.53369 73.9792 4.03328C73.8764 3.93042 73.7882 3.81287 73.6853 3.71001C73.4796 3.29858 73.1417 2.87246 72.6274 2.50511C71.7604 1.88797 70.7318 1.65286 69.6739 1.63817C68.8363 0.947553 67.3816 0.418571 66.2061 0.594898C65.9122 0.433265 65.5302 0.30102 65.0747 0.22755C63.4583 -0.00755327 61.6069 0.727144 60.064 1.97613C59.9759 2.0349 59.8877 2.12307 59.8142 2.19654H59.7849C59.2265 2.5345 58.8298 2.99001 58.5212 3.5043C57.5661 3.88634 56.611 4.69451 56.0085 5.73778C55.5824 6.07574 55.171 6.50186 54.8036 7.01615C54.1865 7.91248 53.7897 9.29371 53.8926 10.3958C53.8485 10.5574 53.8338 10.719 53.8191 10.8954V10.9247C53.584 11.5419 53.584 12.1884 53.6428 12.7762C53.4812 13.2023 53.393 13.6431 53.3048 14.0252C53.2167 14.4072 53.1579 14.6864 52.9963 14.9656C52.9669 15.039 52.9228 15.1272 52.864 15.2154C52.8052 15.3035 52.7758 15.4064 52.7171 15.5239C52.5554 15.5974 52.4379 15.7003 52.2909 15.8031C52.1293 15.906 51.9824 16.0235 51.8354 16.1558C50.8803 16.0382 49.4697 16.1705 48.3971 17.0668C48.2354 17.0962 48.0591 17.1403 47.8681 17.1844C47.1334 17.3754 46.1636 17.8456 45.2966 18.6097C45.0762 18.8154 44.8705 19.0211 44.6942 19.2415C44.6942 19.2415 44.6795 19.2709 44.6648 19.2856C43.3276 19.0358 41.8876 19.168 40.5799 19.7558C39.1399 20.3876 38.0378 21.475 37.3031 22.7093C36.8329 23.5468 36.0541 23.6203 35.4811 23.297C34.717 24.1346 34.2321 25.3395 34.379 26.324C34.3496 26.3093 34.335 26.2799 34.3056 26.2505C33.9529 25.9713 33.5562 25.7215 33.1007 25.5452C32.2043 25.1632 31.1317 25.0309 30.1325 25.2513C29.7211 25.3542 29.3537 25.4864 29.0451 25.6481C28.7366 25.8391 28.4721 26.0448 28.2517 26.2799C27.2672 26.2358 26.1504 26.4709 24.9602 26.8383C24.4165 26.9999 23.8288 27.2791 23.2998 27.6464C22.3006 27.8669 21.1104 28.4546 20.4198 29.2628L20.2582 29.3803C20.0377 29.3803 19.8026 29.395 19.5675 29.4538C19.3324 29.5126 19.0973 29.6007 18.8475 29.7183C18.5977 29.8358 18.3479 29.9828 18.1128 30.1591C17.8777 30.3501 17.6573 30.5852 17.4369 30.835C17.1577 31.1583 16.952 31.5256 16.8051 31.893C16.6581 32.275 16.5259 32.613 16.4524 33.0244C15.4826 33.8179 14.7479 35.1551 14.8361 36.3453C14.4981 37.1975 14.3071 38.1673 14.3953 39.1665C14.1896 39.7102 14.1014 40.3714 14.1602 41.0473C14.2043 41.3853 14.2777 41.7232 14.3953 42.0465C14.5422 42.3698 14.6892 42.6784 14.9096 42.9428C14.983 43.031 15.0565 43.1045 15.1447 43.1779C15.1594 43.2514 15.1887 43.3396 15.2181 43.413C15.1447 43.5012 15.0859 43.5747 15.0124 43.6628C13.9985 43.8979 12.7496 44.5739 12.0736 45.4996C11.7504 45.6024 11.3977 45.7347 11.0304 46.0139C9.76668 46.9396 8.7528 48.6441 8.44423 50.8629C8.42953 50.9804 8.41484 51.1127 8.40014 51.2302V51.2596C8.28259 51.5976 8.28259 51.9649 8.28259 52.3029C8.28259 52.6408 8.35606 52.9641 8.45892 53.2874C8.28259 53.8457 8.2679 54.4776 8.32667 55.1388C8.41484 55.8 8.64994 56.476 9.0026 57.0637C9.12015 57.6662 9.36994 58.298 9.76668 58.9005C10.4132 59.9437 11.6916 60.8548 12.823 61.1339C12.97 61.2221 13.1316 61.2956 13.2932 61.369H13.3079C13.8516 61.7952 14.5422 62.045 15.2475 62.1625C16.2173 62.7503 17.6132 62.956 19.0679 62.9707C19.45 63.0001 19.8761 62.9707 20.2875 62.8972C20.8459 62.9707 21.4043 62.9707 21.948 62.9119C22.9912 63.4997 24.6223 63.8964 25.8859 63.485C26.0476 63.5144 26.2239 63.5584 26.3855 63.5731C27.8255 63.7935 29.8974 63.5878 30.9994 62.8825C31.117 62.8531 31.2492 62.8384 31.3668 62.8091C32.028 63.0148 32.8068 63.1029 33.468 62.9854C33.806 63.0882 34.2027 63.147 34.6435 63.1029C34.7611 63.1029 34.8786 63.0735 34.9815 63.0442C35.5546 63.3086 36.2158 63.5291 36.9358 63.6613C37.5823 63.7789 38.3464 63.8229 39.1105 63.7789C39.904 63.7348 40.5652 63.5878 41.0207 63.3968C41.5791 63.4262 41.9611 63.3968 42.3872 63.3527L42.5489 63.4556C42.7105 63.5438 42.9309 63.6466 43.166 63.7495C43.4158 64.0433 43.7391 64.3666 44.1358 64.6899L44.2093 64.9103C44.2974 65.1307 44.4297 65.3805 44.606 65.6303C44.3121 65.7038 44.0183 65.8213 43.7097 66.027C42.9603 66.4972 42.4313 67.2025 42.0052 68.0401C41.0942 68.334 40.0362 69.0099 39.4484 69.9944C39.1399 70.1119 38.8166 70.3177 38.4786 70.6409C37.8909 71.214 37.3913 72.0809 37.2003 73.1683C36.9946 74.2556 37.1562 75.534 37.6999 76.6214C37.7439 76.7389 37.8174 76.8565 37.8909 76.974V77.0034C38.1848 77.7381 38.6991 78.2083 39.2427 78.561C39.7129 79.5895 40.7121 80.4565 41.8436 80.8826C42.255 81.25 42.7546 81.5732 43.3423 81.8083C43.8566 81.9993 44.4591 82.1463 45.0909 82.161C45.7228 82.1757 46.2517 82.0728 46.7366 81.9112C46.8836 81.9112 47.0305 81.8965 47.1775 81.8818H47.1922C47.7505 81.9846 48.3383 81.9112 48.9113 81.7349C49.8371 81.9112 50.9244 81.7055 52.0705 81.5291C52.3791 81.4997 52.7024 81.4263 53.011 81.3234C53.4518 81.3675 53.8779 81.3528 54.2893 81.3234C55.0828 81.9553 56.1114 82.5136 57.1693 82.4255C57.2869 82.4989 57.4044 82.5724 57.522 82.6459C58.5212 83.2042 60.1228 83.7479 61.3424 83.5863C61.4453 83.6157 61.5481 83.6598 61.6657 83.6745C62.0918 84.13 62.6502 84.5414 63.2379 84.7324C63.4583 84.9822 63.7522 85.2026 64.1196 85.3496C64.2224 85.3936 64.3253 85.423 64.4281 85.4524C64.7514 85.952 65.2069 86.4369 65.7653 86.8777C66.7645 87.7006 68.5278 88.3912 69.909 88.3177C70.6437 88.5381 71.4665 88.6263 72.1425 88.5381C72.2453 88.5675 72.3482 88.5822 72.451 88.6116C72.7449 88.6704 73.0976 88.6704 73.4208 88.6704C73.9057 88.8173 74.4347 88.8908 74.9784 88.8761L75.1841 88.9937C75.7719 89.3022 76.6535 89.4786 77.6086 89.4345C77.8731 89.4639 78.167 89.4345 78.4902 89.3904C80.0772 89.1553 81.5025 87.9504 82.3694 86.5104C82.8397 86.2606 83.2658 85.9226 83.6037 85.5553C84.7499 85.1292 85.8372 84.321 86.1017 83.3953C86.2193 83.3365 86.3221 83.2924 86.4397 83.2336C87.336 82.734 87.7915 82.2785 88.3793 81.6026H88.4087C88.6585 81.7936 89.0111 81.9846 89.4666 82.1463C89.834 82.2638 90.2748 82.3667 90.7303 82.352C90.9507 82.9545 91.2887 83.5128 91.8176 83.9243L91.5385 83.6451C91.5385 83.6451 91.656 83.7626 91.7295 83.8067C92.4201 84.4091 93.4928 84.6149 94.2569 84.4973C94.3156 84.6149 94.3744 84.7324 94.4626 84.8353C94.7858 85.2467 95.4177 85.5847 95.9907 85.7022C96.1377 85.8492 96.2846 86.0108 96.4462 86.1577C96.652 86.3781 96.9312 86.5985 97.2691 86.7602C97.8275 87.7006 99.1499 88.6116 100.355 88.6263C100.752 88.641 101.178 88.5235 101.56 88.3765C102.206 88.3765 102.853 88.2443 103.25 87.9945C103.308 87.9651 103.352 87.921 103.411 87.8769C103.602 87.8769 103.793 87.8769 103.984 87.8769C104.293 87.8916 104.631 87.8181 104.983 87.73C105.953 87.7594 106.938 87.392 107.614 86.7749C108.216 86.5985 108.73 86.2606 109.098 85.8345H109.23C109.877 85.7904 110.758 85.3349 111.361 84.7177C112.257 84.4238 113.197 83.6157 113.506 82.734C113.8 82.8075 114.094 82.8516 114.373 82.8516C114.74 83.0573 115.152 83.1896 115.504 83.2189C115.695 83.5128 115.975 83.7773 116.312 83.9536C116.812 84.2034 117.532 84.2769 118.179 84.1594C118.237 84.174 118.311 84.2034 118.37 84.2181C119.163 84.3798 119.927 84.2916 120.559 84.0418C121.088 84.2328 121.793 84.2916 122.484 84.174C123.175 84.0565 123.836 83.7479 124.247 83.3218C124.306 83.263 124.335 83.2042 124.394 83.1455C124.791 82.9104 125.129 82.6018 125.349 82.2932C125.614 82.161 125.878 81.9993 126.157 81.7936C126.833 81.3675 127.495 80.4712 127.774 79.5454C128.009 79.1046 128.141 78.605 128.185 78.1348C128.45 77.6205 128.611 77.0328 128.611 76.5185C128.611 75.3724 128.185 74.432 127.627 73.8442C127.612 73.756 127.568 73.6679 127.539 73.5944C127.421 73.3446 127.304 73.1095 127.142 72.9185C127.245 72.4777 127.186 71.934 126.995 71.4197C127.259 71.3022 127.553 71.1405 127.818 70.9201C128.332 70.5087 128.817 69.965 129.111 69.3919L129.258 69.2744C129.713 69.2744 130.286 69.0834 130.801 68.6279C131.08 68.3487 131.374 67.996 131.579 67.5405C131.785 67.0997 131.903 66.6001 131.917 66.1299C131.962 65.2042 131.638 64.4548 131.315 64.0874V64.0727Z" fill="#9B83DE"/>
</g>
<g style="mix-blend-mode:multiply">
<path d="M78.3727 117.353C77.6968 117.853 76.8886 118.176 76.0657 118.235C72.7743 118.499 69.7473 117.632 66.5735 116.868C65.9269 116.706 65.3979 116.442 64.9865 116.104C63.5318 116.339 62.0477 116.574 60.5342 116.927C60.7987 118.279 60.2845 119.513 59.4175 120.395C59.2412 122.584 58.2714 124.994 57.7718 126.963C57.375 128.564 56.9195 130.195 56.7285 131.841C56.6991 132.032 56.7285 132.355 56.7285 132.693C57.184 133.208 57.5073 133.693 57.7424 134.207C57.7865 134.207 57.8306 134.236 57.8893 134.251C58.1097 134.31 58.0804 134.28 58.1685 134.295C58.2273 134.295 58.2861 134.295 58.3449 134.295C58.58 134.295 58.8298 134.28 59.0502 134.192C59.0502 134.192 59.0649 134.192 59.0795 134.192C59.0795 134.236 59.0795 134.28 59.0795 134.339C59.1236 134.633 59.2706 135 59.491 135.28C59.5791 135.838 59.8583 136.249 60.1375 136.455C60.1816 136.484 60.2257 136.499 60.2845 136.529C60.3138 136.646 60.3285 136.749 60.3579 136.867C60.3873 137.058 60.4608 137.219 60.5636 137.381V137.484C60.5636 137.484 60.6077 137.645 60.6371 137.733C60.6959 137.895 60.7694 138.071 60.8575 138.218C61.0045 138.453 61.2249 138.718 61.4159 138.85C61.7979 139.159 62.1947 139.291 62.5473 139.306C62.9147 139.585 63.3261 139.673 63.6934 139.614L63.7522 139.688C64.002 140.099 64.5163 140.393 65.0159 140.437C65.4273 140.907 66.0739 141.216 66.5735 141.01C66.7351 140.951 66.9114 140.819 67.0584 140.658C67.4257 140.76 67.8665 140.731 68.1898 140.555C68.278 140.628 68.3808 140.702 68.4837 140.746C69.3065 141.128 70.1588 140.878 70.7025 140.261C70.9523 140.231 71.1874 140.143 71.349 139.996C71.5694 140.143 71.8045 140.261 72.0396 140.246C72.3776 140.246 72.7449 139.996 72.9947 139.673C73.0388 139.673 73.0682 139.673 73.1123 139.658C73.5678 139.526 73.9204 139.247 74.1555 138.88C74.5376 138.924 74.9784 138.821 75.3604 138.615C75.7278 138.395 76.0364 138.071 76.1392 137.689C76.1392 137.645 76.1539 137.587 76.1686 137.542C76.3449 137.337 76.4625 137.072 76.5066 136.837C76.6535 136.734 76.8151 136.602 76.9621 136.47C77.3441 136.176 77.638 135.603 77.7262 135.03C77.829 134.765 77.9172 134.457 77.8878 134.163C78.0788 133.869 78.2258 133.516 78.2258 133.222C78.2258 133.061 78.2111 132.899 78.1817 132.738C78.1523 132.576 78.1082 132.429 78.0494 132.37C77.9319 132.209 77.7702 132.047 77.5939 131.9C77.5939 131.871 77.5939 131.827 77.5939 131.797C77.5792 131.68 77.5351 131.577 77.4764 131.489C77.9319 131.253 78.2845 130.945 78.2992 130.607C78.2992 130.445 78.2258 130.254 78.0788 130.063C78.2111 129.74 78.1964 129.373 78.0347 129.035C78.1817 128.991 78.3139 128.947 78.4315 128.873C79.0486 128.506 79.3131 127.653 79.0486 127.095C78.887 126.757 78.6372 126.463 78.3286 126.213V126.14C78.5784 126.022 78.7988 125.875 78.9017 125.684C79.1515 125.258 78.9017 124.538 78.4315 124.156L78.4609 124.053C78.4609 124.053 78.4902 123.936 78.5049 123.877C78.6813 123.789 78.8282 123.686 78.9311 123.569C79.1515 123.289 79.1368 122.849 78.9751 122.481C79.0486 122.349 79.1074 122.231 79.1809 122.084C79.4453 121.673 79.4454 121.012 79.1515 120.468C79.3131 120.248 79.4013 120.013 79.4453 119.777C79.0486 118.984 78.7694 118.176 78.3874 117.294L78.3727 117.353Z" fill="#234D45"/>
<path d="M8.84089 38.0645C8.98783 38.3878 9.25232 38.5935 9.50212 38.5641C9.72253 38.9755 10.0164 39.24 10.2956 39.049C10.3838 38.9902 10.4866 38.858 10.5895 38.7111C10.7805 38.8286 11.0156 38.8433 11.236 38.7111C11.2801 38.7992 11.3242 38.8727 11.3683 38.9315C11.765 39.4017 12.2352 39.3429 12.6613 38.9021C12.7936 38.9462 12.9405 38.9168 13.0727 38.8433C13.1462 39.0637 13.2344 39.24 13.3519 39.3135C13.5136 39.4311 13.7487 39.3576 13.9691 39.1813C13.9838 39.1813 14.0132 39.2107 14.0279 39.2107C14.263 39.2988 14.5128 39.24 14.7332 39.0637C15.027 39.5486 15.5413 39.8131 15.894 39.4604C15.9234 39.4311 15.9381 39.4017 15.9528 39.3723C16.085 39.3576 16.2173 39.2988 16.3348 39.196C16.423 39.2547 16.5111 39.3135 16.614 39.3723C16.805 39.5192 17.0695 39.5486 17.3193 39.4604C17.3193 39.4311 17.2899 39.4017 17.2752 39.3723C17.1577 39.049 17.0842 38.7111 17.0401 38.3731C16.9813 37.6972 17.0695 37.0506 17.2752 36.4923C17.1871 35.5078 17.3781 34.538 17.716 33.671C17.6279 32.4808 18.3626 31.1437 19.3324 30.3502C19.4058 29.9388 19.5234 29.6008 19.685 29.2188C19.7879 28.969 19.9201 28.7339 20.0818 28.4988C19.9642 28.4547 19.8467 28.4253 19.7291 28.3812C19.7585 28.3812 19.7879 28.3812 19.8026 28.3812C19.9495 28.3812 20.0965 28.3371 20.2581 28.2343C20.2728 28.2049 20.2875 28.1902 20.3169 28.1608C20.3903 28.0726 20.4638 27.9992 20.5373 27.911C20.4491 27.6612 20.3463 27.4114 20.2434 27.191C20.1846 27.2204 20.1258 27.2204 20.0818 27.2204C20.0524 27.2204 20.023 27.2204 19.9936 27.2057C19.9495 27.2057 19.9054 27.1763 19.8614 27.1763H19.8467C19.8467 27.1763 19.7291 27.191 19.6997 27.1175L19.6703 26.9853C19.6703 26.8824 19.6703 26.7796 19.685 26.662V26.6032C19.685 26.6032 19.5675 26.662 19.5234 26.5739C19.4793 26.471 19.4205 26.3681 19.3471 26.2947C19.3177 26.2653 19.2883 26.2506 19.2589 26.2359C19.1854 26.28 19.112 26.2653 19.0826 26.1477C19.0238 26.133 18.965 26.1183 18.8916 26.1183C18.8034 26.133 18.7152 26.1918 18.6124 26.2506H18.5977L18.5683 26.3094C18.4654 26.4269 18.3773 26.4416 18.3185 26.3535C18.2891 26.3094 18.2891 26.2506 18.2744 26.1918C18.1422 26.3681 17.9952 26.3975 17.9511 26.133C17.9364 26.0155 17.9364 25.9861 17.8924 25.942C17.8924 25.9273 17.8042 25.8979 17.7601 25.9126C17.6866 25.9126 17.5103 26.0449 17.4075 26.1477C17.2164 26.3535 17.0989 26.2065 17.0989 25.8686C17.0989 25.6334 17.1283 25.369 17.1871 25.1192C17.0989 25.0751 17.0107 25.0457 16.9079 25.0016C16.8344 25.031 16.7609 25.0898 16.6875 25.1485C16.5552 25.2661 16.4964 25.1192 16.467 24.9134C16.423 24.9575 16.3789 25.0016 16.3495 25.0457C16.1438 24.8841 15.9087 24.84 15.703 25.0016C15.4826 24.7518 15.1887 24.6049 14.8507 24.4579C14.7919 24.4285 14.7332 24.3992 14.6597 24.3845C14.5715 24.1641 14.454 23.9877 14.3217 23.8996C13.9544 23.6792 13.3519 24.0906 13.0581 24.6636C12.9846 24.693 12.9111 24.7224 12.8376 24.7665C12.7201 24.6636 12.5732 24.6049 12.4556 24.6196C12.2499 24.649 12.0589 24.7812 11.8972 24.9722C11.7503 24.8988 11.6034 24.8841 11.4711 24.9281C11.2507 24.3845 10.7952 23.9583 10.3838 23.973C10.325 23.9143 10.2515 23.8555 10.1927 23.8261C9.91355 23.7085 9.5462 23.929 9.28171 24.2816C9.25232 24.2816 9.23763 24.2816 9.20824 24.2816C8.88498 24.3551 8.62048 24.6196 8.44416 25.0163C8.17967 24.4285 7.78293 23.9436 7.41558 23.9143C7.06293 23.8849 6.6515 24.2522 6.46047 24.7518C6.387 24.7518 6.31354 24.7518 6.24007 24.7812C5.99027 24.8841 5.78455 25.2808 5.74047 25.7216C5.62292 25.7804 5.52006 25.8539 5.44659 25.9714C5.25557 25.8098 5.04986 25.7216 4.88822 25.751C4.63842 25.7804 4.41802 26.1037 4.37393 26.4563C4.2123 26.471 4.09475 26.5592 3.9772 26.662C3.33066 26.2653 2.28739 26.3828 2.09637 27.0147C2.06699 27.1028 2.06699 27.2057 2.06699 27.3086C1.84658 27.5584 1.74372 27.9404 1.83188 28.2637C1.74372 28.2931 1.65555 28.3371 1.59678 28.3959C1.56739 28.4253 1.5527 28.4547 1.538 28.4841C1.36168 28.5282 1.22943 28.6016 1.12657 28.6898C0.832694 28.9543 0.685754 29.3216 0.700448 29.689C0.435957 29.7771 0.200854 29.9241 0.0979966 30.1445C-0.1518 30.6 0.0979966 31.3788 0.597591 31.7608C0.524121 32.0253 0.553509 32.3486 0.685754 32.6131C0.553509 32.9069 0.538815 33.2743 0.641672 33.5682C0.435957 34.0237 0.435957 34.538 0.67106 34.8906C0.612285 35.1845 0.626979 35.4931 0.715142 35.787C0.803306 36.0515 0.964939 36.2866 1.17065 36.4482C1.62617 36.7421 2.36086 36.6833 2.91923 36.3453C2.91923 36.4335 2.94862 36.507 2.97801 36.5657C3.11025 36.8008 3.43352 36.9331 3.74209 36.8743C3.80087 36.9625 3.84495 37.0506 3.90373 37.1535C3.9772 37.3004 4.09475 37.418 4.22699 37.5062C4.32985 38.2262 4.80006 38.8433 5.29965 38.7845C5.47598 38.7698 5.667 38.6376 5.84333 38.4906C6.10782 38.4906 6.37231 38.3878 6.56333 38.1821C6.59272 38.1527 6.62211 38.1086 6.6515 38.0792C6.71027 38.1086 6.78374 38.1233 6.85721 38.1527C6.96007 38.1968 7.07762 38.2115 7.20987 38.1821C7.50374 38.4319 7.87109 38.4025 8.20905 38.138C8.41477 38.2409 8.63518 38.1968 8.84089 38.0351L8.88497 38.0939L8.84089 38.0645Z" fill="#234D45"/>
<path d="M27.5905 9.61705C27.6787 9.79337 27.8256 9.95501 28.002 10.0726C28.0901 10.337 28.2517 10.5281 28.4575 10.675C28.3105 11.4097 28.575 12.2032 29.1481 12.1591C29.1628 12.2179 29.1775 12.2766 29.2069 12.3354C29.3979 12.8203 30.0297 13.1142 30.7791 12.8203C30.8232 12.8203 30.8673 12.8497 30.9114 12.8497C30.9407 13.1436 31.0583 13.3787 31.2934 13.4375C31.2934 13.5991 31.3669 13.7167 31.4991 13.7754C31.5285 13.7901 31.5726 13.8048 31.6167 13.8048C31.5726 14.1281 31.5873 14.4367 31.6754 14.6865C31.8224 15.142 32.3073 15.4799 32.9244 15.3918C33.1154 15.5387 33.3946 15.6122 33.7032 15.5681C33.7326 15.5975 33.7473 15.6122 33.7767 15.6416C33.8501 15.7003 33.953 15.7444 34.0705 15.7591C34.1293 15.9207 34.2469 16.0383 34.3791 16.1265L34.3497 16.244C34.291 16.5673 34.335 16.9052 34.4673 17.1403C34.4673 17.2432 34.4967 17.3314 34.5554 17.4048C34.7906 17.7869 35.393 17.7281 36.113 17.6399C36.1571 17.8163 36.2599 17.9632 36.3922 18.0514C36.3187 18.6538 36.5244 19.1681 37.1416 19.0065C37.1563 19.0653 37.171 19.124 37.2004 19.1828C37.4061 19.5942 38.0232 19.8146 38.7138 19.4914H38.7285C38.6698 19.9616 38.8755 20.4171 39.331 20.373C39.4191 20.4465 39.5367 20.5053 39.6542 20.564C39.8453 20.4465 40.0216 20.2555 40.1685 20.0057C40.8885 18.7714 42.0053 17.684 43.4453 17.0522C44.753 16.4644 46.1931 16.3322 47.5302 16.582C47.5302 16.582 47.5449 16.5526 47.5596 16.5379C47.7506 16.3175 47.9416 16.1118 48.162 15.9061C49.0143 15.1273 49.9841 14.6718 50.7335 14.4807C50.9245 14.422 51.0861 14.3926 51.2625 14.3632C51.3947 14.2603 51.527 14.1722 51.6592 14.084C51.5123 13.9224 51.3506 13.7607 51.1596 13.5844C51.1596 13.5844 51.1596 13.5844 51.1449 13.5697C51.189 13.4669 51.2478 13.364 51.3065 13.2758C51.2478 13.364 51.3065 13.2464 51.2918 13.1877C51.2625 13.1289 51.2037 13.0701 51.1596 13.026C51.0127 12.9085 50.8216 12.8644 50.6453 12.8056C50.4837 12.7615 50.4837 12.5999 50.6012 12.3501C50.7629 11.9681 50.3955 11.7771 50.2633 11.586C50.0429 11.2628 49.9547 10.8073 49.749 10.4399C49.2641 9.60235 48.4412 9.235 47.4567 9.32317C47.1188 9.35255 47.2951 8.72072 47.6037 8.14765C47.398 7.83908 47.06 7.70683 46.6339 8.00071C46.5898 8.0301 46.531 8.07418 46.4869 8.11826C46.4135 8.07418 46.3253 8.05949 46.2371 8.04479C46.1784 7.32479 45.7082 6.64887 45.0616 6.98683C45.0616 6.10519 44.709 5.34111 44.0037 5.6056C43.7098 5.70846 43.4306 5.97295 43.1367 6.31091C42.9163 6.10519 42.6077 6.00234 42.2551 5.89948C42.1081 5.82601 41.9024 5.82601 41.6967 5.89948C41.491 5.62029 41.153 5.45866 40.8004 5.56152C40.7857 5.56152 40.771 5.56152 40.7416 5.54682C40.7122 5.00315 40.5359 4.57702 40.1538 4.54764C39.904 4.53294 39.6396 4.67988 39.3604 4.92968C39.1547 4.51825 38.8314 4.28314 38.42 4.60641C38.1995 4.45947 37.9497 4.4007 37.6706 4.45947C37.4795 4.04804 37.1857 3.84233 36.7889 4.1509C36.7595 4.18029 36.7302 4.20967 36.6861 4.23906C36.5979 4.1509 36.5097 4.07743 36.4069 4.03335C36.3481 3.82763 36.2306 3.68069 36.0836 3.62192C35.8191 3.50437 35.4812 3.68069 35.1138 3.95988C34.9228 3.54845 34.5261 3.23987 34.0999 3.38681C34.0412 3.22518 33.9383 3.07824 33.7914 2.97538C33.3065 2.60803 32.5277 2.82844 31.7489 3.26926C31.7048 3.28396 31.6607 3.32804 31.6167 3.34273C31.3522 3.38681 31.1171 3.57784 30.9407 3.82763C30.4265 3.65131 29.824 3.79824 29.4126 4.20967C29.1334 4.20967 28.8248 4.29784 28.5456 4.45947C28.0754 4.73866 27.664 5.44397 27.7081 6.10519C27.664 6.17866 27.6493 6.28152 27.6199 6.36968C27.3848 6.66356 27.3113 7.07499 27.3995 7.50112C27.0762 8.10357 27.2819 8.9999 27.7081 9.63174L27.5905 9.61705Z" fill="#234D45"/>
<path d="M64.2666 80.9267C64.2666 80.9267 64.1784 80.9267 64.1196 80.9267C64.1784 80.9267 64.2519 80.9267 64.3253 80.9267C64.3107 80.9267 64.2813 80.9267 64.2666 80.912V80.9267Z" fill="#234D45"/>
<path d="M20.2142 28.2783C20.2142 28.2783 20.126 28.3812 20.0819 28.4253C20.1407 28.3665 20.0819 28.4253 20.0819 28.484C20.126 28.4106 20.1701 28.3518 20.2288 28.2783H20.2142Z" fill="#234D45"/>
<path d="M46.6338 63.3674C46.9423 63.1764 47.2509 63.0442 47.5301 62.9707C47.3685 62.7062 47.2215 62.4711 47.1334 62.2507L47.0599 62.0303C46.6631 61.707 46.3399 61.3838 46.0901 61.0899C45.855 60.987 45.6493 60.8842 45.4729 60.796L45.3113 60.6931C44.8852 60.7372 44.5031 60.7666 43.9448 60.7372C43.4746 60.9283 42.828 61.0752 42.0345 61.1193C41.2705 61.1634 40.4917 61.1193 39.8598 61.0017C39.1251 60.8695 38.4639 60.6491 37.9056 60.3846C37.788 60.414 37.6851 60.4287 37.5676 60.4433C37.1415 60.4874 36.7447 60.4434 36.3921 60.3258C35.7162 60.4434 34.9521 60.3552 34.2908 60.1495C34.1733 60.1789 34.041 60.1936 33.9235 60.2229C32.8068 60.9429 30.7496 61.134 29.3096 60.9136C29.1333 60.8842 28.9716 60.8548 28.81 60.8254C27.561 61.2368 25.93 60.8548 24.8867 60.267C24.5781 60.5021 24.3137 60.7813 24.152 61.0752C24.0051 61.0899 23.8581 61.1193 23.7259 61.178C23.6671 61.2074 23.6083 61.2368 23.5496 61.2662C23.2998 61.2662 23.05 61.325 22.8296 61.3985C22.1977 61.6189 21.6687 61.9862 21.2573 62.3976C20.8753 62.3683 20.5079 62.4417 20.1847 62.5887C19.4647 62.9266 18.8034 63.867 18.6271 64.6164C18.2304 64.8221 17.8483 65.1601 17.5544 65.5275C17.0989 65.6744 16.6287 65.9536 16.2761 66.3062C15.6295 66.4385 14.9536 66.7764 14.5422 67.276C13.7487 67.4964 12.9846 67.996 12.5879 68.6426C12.1765 69.2891 12.1177 70.2736 12.294 70.9936C12.1765 71.0377 12.0736 71.0965 11.9707 71.1699C11.5887 71.4785 11.2801 72.081 11.1773 72.6393C11.0303 72.7863 10.8834 72.9185 10.7365 73.0801C10.516 73.2859 10.3103 73.5797 10.134 73.903C9.67849 74.2116 9.20828 74.6965 8.88502 75.343C8.56175 75.9895 8.40012 76.783 8.51767 77.5177C8.59114 78.0173 8.81155 78.5022 9.10543 78.9136C9.23767 79.3838 9.47277 79.81 9.70788 80.1479L10.1046 80.7945C10.3691 81.0296 10.663 81.2059 10.9275 81.3381C11.0744 81.4116 11.192 81.4557 11.2801 81.4557C11.383 81.4704 11.4858 81.4851 11.574 81.4998C11.7209 81.4998 11.8238 81.4998 11.9561 81.4998C12.3234 81.6026 12.5732 81.6173 12.9112 81.6614C13.2932 81.6761 13.7634 81.6467 14.0867 81.5292C15.1152 81.5292 15.9528 81.1618 16.5406 80.6034C17.0695 80.4712 17.5397 80.2214 17.8777 79.8687H17.9953C18.5683 79.9569 19.3618 79.7806 19.9642 79.4132C20.7724 79.4426 21.6834 79.2075 22.183 78.6932C22.3447 78.5169 22.4769 78.2965 22.5798 78.0467C23.0941 77.8557 23.623 77.5324 23.9757 77.1504C24.1373 77.1504 24.2843 77.1504 24.4312 77.121C25.6361 76.9006 26.5765 76.1953 27.1055 75.2842C27.4141 75.1226 27.708 74.9022 27.8843 74.6671C28.1929 74.7112 28.5161 74.7112 28.7953 74.5936C29.2067 74.4467 29.6182 74.0646 29.912 73.6385C29.9561 73.6238 30.0149 73.6091 30.059 73.5797C30.6027 73.3006 31.0288 72.9185 31.3374 72.4924C32.2484 72.4336 33.3651 71.9634 33.8059 71.2287C33.8353 71.1846 33.85 71.1258 33.8794 71.0818C33.9235 71.0524 33.9676 71.0083 33.997 70.9642C34.2761 71.743 34.7757 72.4042 35.3047 72.7128C35.3635 72.7716 35.4076 72.845 35.4664 72.9038C35.5839 73.4769 36.0247 74.1675 36.6713 74.5642C37.4207 75.0491 38.3758 75.1667 39.0811 75.0344C39.8011 74.9169 40.3447 74.6083 40.6239 74.2997C40.668 74.2997 40.7121 74.2997 40.7415 74.285C40.6827 74.1822 40.6239 74.094 40.5798 73.9765C40.0362 72.8891 39.8745 71.6107 40.0803 70.5234C40.286 69.436 40.7709 68.5691 41.3586 67.996C41.6966 67.6581 42.0345 67.4671 42.3284 67.3495C42.9162 66.3503 43.9742 65.6891 44.8852 65.3952C45.326 64.5724 45.8403 63.867 46.5897 63.3821L46.6338 63.3674Z" fill="#234D45"/>
<path d="M153.018 37.5502C153.326 36.6098 152.974 35.3902 152.092 34.9347C151.74 34.2882 151.122 33.8474 150.52 33.6269C150.064 32.9804 149.271 32.569 148.58 32.8335C148.522 32.8629 148.477 32.8922 148.419 32.9216C148.228 32.8188 148.007 32.7306 147.802 32.6865C147.596 32.4808 147.331 32.3192 147.008 32.2898C146.464 32.2163 145.95 32.4661 145.465 32.8335C144.951 32.4955 144.216 32.3486 143.731 32.6278C143.599 32.4955 143.437 32.378 143.261 32.3192C142.629 32.0841 141.997 32.4514 141.204 32.8482C141.16 32.8629 141.116 32.8922 141.072 32.9216C140.807 32.9216 140.572 33.0833 140.337 33.3037C139.911 33.0245 139.426 32.9216 138.926 33.0245C138.721 32.8629 138.486 32.7453 138.236 32.6718C137.942 32.5837 137.589 32.5984 137.237 32.6865C137.295 32.5102 137.354 32.3192 137.384 32.1135C137.53 31.32 137.325 30.409 136.884 29.9682C136.84 29.8653 136.81 29.7477 136.752 29.6449C136.825 29.0277 136.575 28.2343 136.046 27.8228C135.929 27.4996 135.664 27.191 135.326 27C135.238 26.9412 135.135 26.9118 135.047 26.8677C134.783 26.3828 134.327 25.9273 133.798 25.6334C132.843 25.0751 131.521 25.0898 130.771 25.6334C130.301 25.6775 129.831 25.8538 129.493 26.1624C129.434 26.1624 129.375 26.1624 129.317 26.1918C129.17 26.2359 129.008 26.2947 128.861 26.3828C128.597 26.3534 128.347 26.3828 128.082 26.4563L127.965 26.3681C127.627 26.1477 127.186 26.0302 126.745 26.0155C126.613 25.9714 126.481 25.9567 126.334 25.9714C125.628 26.0008 125.07 26.6179 124.468 27.3232C124.203 27.2939 123.924 27.3232 123.674 27.4261C123.277 27.2351 122.837 27.1616 122.454 27.2645C122.322 27.8963 122.043 28.5135 121.705 28.969C121.588 29.8065 121.235 30.6294 120.838 31.0702L120.765 31.1731C120.838 31.6873 120.809 32.2163 120.677 32.7306C120.897 33.48 120.956 34.1706 120.868 34.7143C120.956 34.9053 121.014 35.0523 121.044 35.1845C121.088 35.258 121.088 35.3608 121.132 35.4196H121.264C121.397 35.4196 121.543 35.4196 121.646 35.449C121.779 35.449 121.881 35.4931 121.984 35.5225C122.205 35.4196 122.352 35.3314 122.528 35.3167C122.763 35.3021 123.086 35.449 123.542 35.6841C123.983 35.9192 124.497 36.2572 124.923 36.6392C125.305 36.7274 125.687 36.8596 125.996 37.0359C126.231 37.1535 126.451 37.271 126.686 37.4033C127.421 37.4327 128.273 37.7559 128.758 38.2115C128.876 38.329 128.993 38.4466 129.081 38.5935C129.963 38.4613 131.241 38.858 132.094 39.7543C132.931 40.6213 133.401 42.0907 133.284 43.3543C133.563 44.2801 133.431 45.4409 133.034 46.2784C133.24 46.2197 133.387 46.3225 133.534 46.5429C133.754 46.9103 134.401 46.7486 134.724 46.7339C135.312 46.7339 135.914 46.925 136.517 46.9544C137.927 46.9984 139.132 46.4548 140.117 45.529C140.455 45.2058 140.881 45.7201 141.101 46.3372C141.615 46.3372 142.086 46.1315 142.262 45.5731C142.277 45.5143 142.291 45.4409 142.306 45.3674C142.424 45.3233 142.526 45.2645 142.644 45.1911C143.379 45.5878 144.422 45.6466 144.833 44.9266C145.201 45.2352 145.612 45.4556 145.994 45.529C146.185 45.5584 146.362 45.5584 146.538 45.4997C146.729 45.4409 146.92 45.3233 147.111 45.1323C147.405 44.8237 147.581 44.4123 147.684 43.9274C148.184 43.8833 148.742 43.6629 149.359 43.3249C149.653 43.1927 149.947 42.9429 150.197 42.6196C150.799 42.4727 151.534 41.8556 151.74 41.1796L151.813 41.0768C152.489 41.018 153.238 40.5037 153.444 39.4604C153.576 38.7992 153.4 38.1233 153.047 37.5796L153.018 37.5502Z" fill="#234D45"/>
<path d="M57.1839 92.917C57.5659 92.8582 57.7569 92.2852 57.6688 91.7268L57.7422 91.6974C57.7422 91.6974 57.8304 91.6533 57.8745 91.6239C58.0361 91.7121 58.1978 91.7562 58.33 91.7562C58.6239 91.7562 58.8737 91.4917 58.9765 91.1537C59.0941 91.1243 59.2263 91.095 59.3439 91.0656C59.77 91.0068 60.1667 90.5954 60.2843 90.0517C60.5341 90.0223 60.7398 89.9341 60.9014 89.8019C61.1219 88.8909 61.401 87.9945 61.5627 87.1276C61.6068 86.8778 61.9006 86.9072 62.2092 86.9953L62.1798 86.8631C62.1357 86.6868 62.1063 86.5251 62.0182 86.3488C61.9741 86.2753 61.93 86.1872 61.8859 86.1137C61.8859 86.1137 61.7537 85.9815 61.739 85.9668C61.6214 85.8639 61.5039 85.6729 61.548 85.57C61.5774 85.5113 61.6068 85.3937 61.6508 85.3055C61.4892 85.2027 61.2982 85.0704 61.1806 84.9529C61.1512 84.9529 61.1218 84.9529 61.1072 84.9529C61.1072 84.9529 61.1072 84.9529 61.1072 84.9382C61.1806 84.7031 61.2541 84.4827 61.3276 84.2623C61.3276 84.2623 61.3276 84.2917 61.3276 84.3064C61.3276 84.468 61.357 84.659 61.4598 84.8353C61.5186 84.9382 61.6361 85.041 61.739 85.1439C62.0035 85.0117 62.268 84.8647 62.5031 84.7178C62.4737 84.659 62.4737 84.5855 62.4737 84.5268C62.4737 84.4974 62.4737 84.4533 62.4884 84.4239C62.5031 84.3798 62.5178 84.321 62.5178 84.277C62.4884 84.1741 62.5178 84.1153 62.5765 84.0859L62.7235 84.0419C62.8263 84.0272 62.9292 84.0272 63.0468 84.0419H63.1055C63.1055 84.0419 63.0614 83.8949 63.1496 83.8508C63.2672 83.7921 63.3553 83.7186 63.4435 83.6451C63.4729 83.6157 63.4876 83.5717 63.5023 83.5423C63.4582 83.4541 63.4876 83.3806 63.6051 83.3366C63.6198 83.2631 63.6492 83.1896 63.6492 83.1161C63.6345 83.0133 63.5904 82.9104 63.5317 82.7929H63.517L63.4876 82.7341C63.37 82.6166 63.3553 82.5137 63.4582 82.4402C63.5023 82.4108 63.561 82.3961 63.6198 82.3814C63.4582 82.2345 63.4288 82.0582 63.6933 81.9994C63.8108 81.97 63.8402 81.97 63.899 81.9259C63.9137 81.9112 63.9431 81.8231 63.9431 81.7643C63.9431 81.6761 63.8255 81.4704 63.7374 81.3676C63.561 81.1618 63.6786 81.0296 63.9725 81.0002C62.797 81.059 61.3423 80.5594 60.4165 80.0451C60.299 79.9716 60.1814 79.8982 60.0639 79.8247C59.0059 79.9129 57.9773 79.3398 57.1839 78.7227C56.7724 78.7667 56.3463 78.7814 55.9055 78.7227C55.5822 78.8255 55.259 78.899 54.9651 78.9284C53.8337 79.1047 52.7463 79.3104 51.8059 79.1341C51.2328 79.2957 50.6451 79.3692 50.0867 79.281H50.072C49.9251 79.281 49.7781 79.2957 49.6312 79.2957C49.1463 79.4574 48.6173 79.5602 47.9855 79.5455C47.9561 79.5455 47.9414 79.5455 47.9267 79.5455C47.5153 79.6631 47.1773 79.8835 47.1332 80.2067C47.0597 80.5888 47.3536 81.1765 47.7798 81.6614C47.7063 81.6761 47.6328 81.7055 47.5887 81.7349C47.383 81.8672 47.3242 82.1757 47.383 82.4696C47.2948 82.5284 47.2067 82.5725 47.1185 82.6312C46.9863 82.7047 46.8687 82.8076 46.7806 82.9398C46.0899 83.028 45.4434 83.41 45.4581 83.9243C45.4581 84.1006 45.5463 84.3064 45.6785 84.5121C45.6491 84.7766 45.7079 85.0704 45.8695 85.3055C45.8989 85.3496 45.9283 85.379 45.9577 85.4084C45.9283 85.4819 45.8842 85.5406 45.8402 85.6141C45.7667 85.717 45.7373 85.8492 45.7373 86.0108C45.4287 86.3047 45.3699 86.7162 45.561 87.157C45.414 87.3774 45.3993 87.6419 45.5022 87.8917L45.4287 87.9211C45.0761 88.068 44.7969 88.3913 44.7675 88.7439C44.2973 88.979 43.974 89.3905 44.121 89.7725C44.165 89.9047 44.2826 90.037 44.4148 90.1839C44.2679 90.4337 44.2385 90.7423 44.3561 91.0215C44.2679 91.0803 44.1797 91.1243 44.121 91.1831C43.6214 91.6974 43.6361 92.3146 44.0769 92.8435C44.0328 93.0199 44.0475 93.1962 44.121 93.3725C43.9005 93.5048 43.7242 93.6958 43.6654 93.9897C43.5773 94.3864 43.7536 95.1358 44.2826 95.7088C44.312 95.7823 44.3414 95.8558 44.3708 95.9146C44.841 96.7815 45.5757 97.1048 46.0753 97.1342C46.6189 97.8982 47.5153 98.2803 48.1765 97.957C48.2206 97.9423 48.25 97.9129 48.294 97.8836C48.5438 97.8689 48.7642 97.7954 48.9553 97.6778C49.1169 97.7219 49.2638 97.7513 49.4402 97.7807C49.8369 97.8836 50.3512 97.7807 50.7185 97.5456C50.9536 97.5015 51.1594 97.384 51.321 97.237C51.6149 97.2664 51.8794 97.2076 52.0704 97.0901C52.4965 96.8109 52.6875 96.3701 52.7169 95.8852C52.7463 95.8705 52.7757 95.8411 52.8051 95.8117C52.8932 95.7235 52.9373 95.6354 52.9814 95.5325C53.4516 95.7382 53.9365 95.7823 54.1716 95.5472C54.2892 95.4297 54.3626 95.2386 54.3773 95.0182C54.6859 94.886 54.8916 94.6215 54.9651 94.2835C55.0973 94.357 55.2296 94.4011 55.3618 94.4305C55.5382 94.4746 55.6998 94.4746 55.8614 94.4305C56.0231 94.4011 56.1847 94.3276 56.2729 94.2982C56.4786 94.2101 56.5961 94.0337 56.6255 93.7839C56.6549 93.4901 56.5961 93.1668 56.508 92.7994L56.5373 92.7554C56.7871 92.8729 56.9929 92.9464 57.1692 92.9317L57.1839 92.917Z" fill="#234D45"/>
<path d="M123.336 86.966C123.336 86.966 123.336 86.8925 123.321 86.8631C123.292 86.7602 123.233 86.6721 123.16 86.5839C123.556 86.3047 123.836 85.8933 123.733 85.5994C123.689 85.4525 123.556 85.3055 123.351 85.2174C123.351 84.9088 123.204 84.6296 122.939 84.4533C123.057 84.3504 123.16 84.2623 123.233 84.1594C123.645 83.601 123.454 82.8223 122.954 82.6019C122.66 82.4843 122.293 82.4108 121.94 82.499L121.911 82.4696C122.072 82.2639 122.19 82.0729 122.205 81.9259C122.205 81.7937 122.146 81.6908 122.028 81.6027C121.779 81.6027 121.543 81.5733 121.294 81.5292C121.235 81.5292 121.161 81.4998 121.103 81.4704C120.456 81.5733 119.736 81.4998 119.236 81.2647C118.899 81.1031 118.619 80.8386 118.428 80.53C118.09 80.5006 117.679 80.3684 117.297 80.1627C117.003 80.1627 116.709 80.1186 116.43 80.0451C116.136 80.9267 115.181 81.7349 114.285 82.0288C113.682 82.6606 112.801 83.1014 112.154 83.1308H112.022C111.654 83.5717 111.14 83.9096 110.538 84.1006C109.862 84.7178 108.877 85.0998 107.907 85.0557C107.569 85.1439 107.217 85.2174 106.908 85.2027C106.717 85.2027 106.526 85.2027 106.335 85.2027C106.276 85.2468 106.232 85.2908 106.174 85.3202C105.777 85.57 105.145 85.7023 104.484 85.7023C104.293 85.7757 104.102 85.8492 103.896 85.8933C103.896 85.9227 103.896 85.9521 103.896 85.9815C103.94 86.29 104.131 86.5104 104.381 86.6427C104.278 86.8778 104.249 87.0982 104.307 87.2451C104.425 87.5978 105.013 87.73 105.556 87.5831C105.63 87.7594 105.777 87.9211 105.997 87.9798C105.997 88.2296 106.115 88.45 106.276 88.5823C106.218 88.979 106.321 89.3317 106.541 89.4786C106.512 89.9782 106.658 90.3749 106.982 90.4778C107.32 90.5807 107.907 90.3309 108.407 89.9635C108.407 90.037 108.407 90.0958 108.436 90.1545C108.51 90.3603 108.789 90.419 109.054 90.375C109.083 90.4631 109.112 90.5513 109.156 90.6394C109.201 90.7717 109.274 90.8892 109.377 90.9774C109.347 91.6533 109.612 92.2999 110.082 92.2852C110.244 92.2852 110.435 92.197 110.641 92.0794C110.876 92.1235 111.14 92.0501 111.361 91.9031C111.39 91.8737 111.434 91.8443 111.463 91.815L111.64 91.9178C111.728 91.9913 111.845 92.0207 111.978 92.0207C112.213 92.3145 112.58 92.3733 112.962 92.1676C113.153 92.2999 113.374 92.2999 113.594 92.197L113.623 92.2705C113.741 92.6084 114.02 92.8729 114.329 92.8876C114.534 93.3284 114.916 93.6223 115.254 93.4607C115.372 93.4019 115.49 93.2843 115.592 93.1227C115.827 93.2403 116.077 93.2697 116.327 93.1227C116.386 93.2109 116.445 93.2844 116.503 93.3431C117.018 93.7986 117.65 93.6811 118.076 93.1521C118.252 93.1521 118.428 93.108 118.561 92.9905C118.707 93.1815 118.884 93.3137 119.06 93.3431C119.31 93.3872 119.619 93.2109 119.824 92.9464C119.854 92.9464 119.883 92.9464 119.912 92.9464C120.28 92.9023 120.574 92.6672 120.75 92.3586C121.382 92.5643 122.293 92.1823 122.396 91.5211C122.396 91.477 122.396 91.4329 122.396 91.3888C122.528 91.2125 122.601 91.0068 122.631 90.8158C122.763 90.7423 122.881 90.6541 123.013 90.5513C123.336 90.3456 123.571 89.89 123.615 89.4492C123.703 89.2435 123.748 89.0084 123.718 88.788C123.894 88.5823 124.027 88.3031 124.012 88.0974C124.012 87.5978 123.733 87.2158 123.321 86.966H123.336Z" fill="#234D45"/>
</g>
<path d="M44.3709 47.0573C44.3709 47.0573 44.3268 47.0279 44.3121 47.0279C44.3121 46.9838 44.3121 46.9544 44.2827 46.9103C44.5178 46.734 44.5619 46.3079 44.2827 46.2197C44.5031 45.9552 44.5325 45.5732 44.2387 45.4997C44.1211 45.4703 43.9742 45.4997 43.8125 45.5585C43.7831 45.4556 43.695 45.3675 43.6068 45.2793C43.5627 45.2352 43.504 45.2058 43.4305 45.2058C43.4158 45.0883 43.3129 44.9854 43.1807 44.9854C43.1807 44.9854 43.1807 44.9854 43.166 44.9854C43.2248 44.7944 43.2248 44.6181 43.0925 44.574C43.0044 44.5446 42.9015 44.574 42.784 44.6475C42.7546 44.4858 42.6517 44.383 42.4901 44.4711C42.4313 44.3977 42.3431 44.3683 42.2403 44.383C42.1962 44.2213 42.0933 44.1332 41.9464 44.236C41.9464 44.236 41.917 44.2507 41.9023 44.2654C41.8729 44.236 41.8435 44.2066 41.8142 44.1772C41.7995 44.1038 41.7701 44.045 41.7113 44.0156C41.6231 43.9715 41.4909 44.045 41.3733 44.1479C41.3146 44.0009 41.1823 43.8981 41.0501 43.9568C41.0354 43.8981 41.006 43.854 40.9619 43.8099C40.8297 43.6777 40.6386 43.7805 40.4476 43.9275C40.4476 43.9275 40.4329 43.9421 40.4182 43.9568C40.4182 43.9568 40.3007 44.0156 40.2419 44.0891C40.1537 43.9862 40.0215 43.9568 39.9186 44.0009C39.8599 43.9568 39.8011 43.9128 39.7423 43.8981C39.6395 43.8687 39.5072 43.9275 39.419 44.0597C39.4043 44.0597 39.3897 44.0597 39.375 44.0597C39.375 44.0597 39.2427 44.045 39.1839 44.1038C39.0664 44.0303 38.9341 44.0744 38.7872 44.1332C38.7431 44.1332 38.7137 44.1772 38.6843 44.2213C38.6256 44.2213 38.5668 44.2213 38.508 44.2801C38.317 44.1185 38.0819 44.045 37.9937 44.2654C37.9643 44.2654 37.9496 44.2654 37.9203 44.2654C37.7145 44.2654 37.5235 44.4858 37.5823 44.7797C37.5823 44.7944 37.5823 44.8091 37.5676 44.8238C37.4647 44.8238 37.3619 44.8385 37.3325 44.9266C37.2737 44.9266 37.2296 44.9266 37.2003 44.9854C37.2003 44.9854 37.2003 45.0148 37.1856 45.0295C37.068 45.0001 36.9505 45.0001 36.8476 45.0295C36.6713 45.0883 36.5243 45.3087 36.5978 45.5438C36.5537 45.6319 36.539 45.7495 36.5978 45.8671C36.5978 45.8671 36.5978 45.8817 36.5831 45.8964C36.5831 45.9258 36.5684 45.9699 36.5831 46.0287C36.539 46.0728 36.4949 46.1315 36.4803 46.205C36.4656 46.205 36.4509 46.205 36.4362 46.205C36.3186 46.2491 36.2011 46.3226 36.1423 46.4401C36.1129 46.4695 36.0835 46.4989 36.0688 46.543C35.9807 46.7487 36.1423 46.9838 36.3627 47.1748C36.3333 47.2483 36.3333 47.3218 36.3627 47.3952C36.3333 47.4393 36.3039 47.4834 36.2892 47.5275L36.3186 47.6303C36.2892 47.8654 36.348 47.983 36.539 48.0124C36.539 48.0418 36.539 48.0564 36.539 48.0858C36.5831 48.2622 36.8035 48.3944 37.068 48.3062C37.0239 48.4679 37.0827 48.6589 37.259 48.6295C37.3031 48.6589 37.3619 48.6883 37.406 48.7177C37.406 48.7177 37.4207 48.7177 37.4354 48.7177C37.4354 48.7765 37.4354 48.8205 37.4354 48.8646C37.4354 48.9381 37.4794 48.9969 37.5382 49.0409C37.5235 49.3495 37.7733 49.6287 38.0672 49.4524C38.0819 49.5699 38.1554 49.6287 38.2435 49.6434C38.317 49.6434 38.3905 49.614 38.4639 49.5552C38.5521 49.805 38.7872 49.9226 38.9782 49.7022H38.9929C39.0958 49.7463 39.2133 49.7022 39.3309 49.5993C39.375 49.7169 39.4484 49.7903 39.5366 49.7756C39.566 49.7756 39.5807 49.7609 39.6101 49.7316C39.6982 49.805 39.8011 49.7756 39.9039 49.6875C40.0509 49.9667 40.3888 50.143 40.5211 49.7756C40.6093 49.7316 40.6974 49.6581 40.7562 49.5405C40.7562 49.5405 40.7709 49.5405 40.7856 49.5405C40.815 49.5405 40.859 49.5111 40.8884 49.4818C40.9472 49.5111 41.006 49.5258 41.0648 49.5258V49.5552H41.0942C41.0942 49.4524 41.1235 49.4083 41.1823 49.4377C41.4321 49.5405 41.7407 49.2614 41.7995 48.8646C41.7995 48.8058 41.8288 48.7911 41.8582 48.8058C41.9464 48.8499 42.064 48.8499 42.108 48.7324C42.1227 48.6589 42.108 48.5413 42.1227 48.4826C42.1227 48.4532 42.1668 48.4385 42.1962 48.4238C42.2697 48.3944 42.3431 48.3797 42.4019 48.3503C42.4313 48.3797 42.446 48.4238 42.4607 48.4532C42.446 48.4238 42.4607 48.4532 42.4901 48.4532C42.5195 48.4532 42.5342 48.4532 42.5489 48.4532C42.5929 48.4238 42.637 48.3797 42.6664 48.3209C42.6958 48.2769 42.7399 48.3062 42.8133 48.3797C42.9162 48.4973 43.0191 48.4091 43.0925 48.3797C43.2101 48.3503 43.3864 48.3797 43.5333 48.3356C43.8713 48.2475 44.077 47.8801 43.9889 47.4981C43.9595 47.3805 44.1946 47.3805 44.4444 47.4246C44.5472 47.2924 44.5619 47.0866 44.3709 46.9691V47.0573Z" fill="white"/>
<path d="M72.0689 40.3715C72.0689 40.3715 72.0248 40.3421 72.0101 40.3421C72.0101 40.298 72.0101 40.2686 71.9807 40.2245C72.2158 40.0482 72.2599 39.6221 71.9807 39.5339C72.2011 39.2694 72.2305 38.8874 71.9367 38.8139C71.8191 38.7845 71.6722 38.8139 71.5105 38.8727C71.4811 38.7698 71.393 38.6817 71.3048 38.5935C71.2607 38.5494 71.202 38.52 71.1285 38.52C71.1138 38.4025 71.0109 38.2996 70.8787 38.2996C70.8787 38.2996 70.8787 38.2996 70.864 38.2996C70.9228 38.1086 70.9228 37.9323 70.7905 37.8882C70.7024 37.8588 70.5995 37.8882 70.482 37.9617C70.4526 37.8 70.3497 37.6972 70.1881 37.7853C70.1293 37.7119 70.0411 37.6825 69.9383 37.6972C69.8942 37.5355 69.7913 37.4474 69.6444 37.5502C69.6444 37.5502 69.615 37.5649 69.6003 37.5796C69.5709 37.5502 69.5415 37.5208 69.5122 37.4915C69.4975 37.418 69.4681 37.3592 69.4093 37.3298C69.3211 37.2857 69.1889 37.3592 69.0713 37.4621C69.0126 37.3151 68.8803 37.2123 68.7481 37.271C68.7334 37.2123 68.704 37.1682 68.6599 37.1241C68.5277 36.9919 68.3366 37.0947 68.1456 37.2417C68.1456 37.2417 68.1309 37.2564 68.1162 37.271C68.1162 37.271 67.9987 37.3298 67.9399 37.4033C67.8517 37.3004 67.7195 37.2711 67.6166 37.3151C67.5579 37.2711 67.4991 37.227 67.4403 37.2123C67.3374 37.1829 67.2052 37.2417 67.117 37.3739C67.1023 37.3739 67.0877 37.3739 67.073 37.3739C67.073 37.3739 66.9407 37.3592 66.8819 37.418C66.7644 37.3445 66.6321 37.3886 66.4852 37.4474C66.4411 37.4474 66.4117 37.4915 66.3823 37.5355C66.3236 37.5355 66.2648 37.5355 66.206 37.5943C66.015 37.4327 65.7799 37.3592 65.6917 37.5796C65.6623 37.5796 65.6476 37.5796 65.6183 37.5796C65.4125 37.5796 65.2215 37.8 65.2803 38.0939C65.2803 38.1086 65.2803 38.1233 65.2656 38.138C65.1627 38.138 65.0599 38.1527 65.0305 38.2408C64.9717 38.2408 64.9276 38.2409 64.8983 38.2996C64.8983 38.2996 64.8983 38.329 64.8836 38.3437C64.766 38.3143 64.6485 38.3143 64.5456 38.3437C64.3693 38.4025 64.2223 38.6229 64.2958 38.858C64.2517 38.9462 64.237 39.0637 64.2958 39.1813C64.2958 39.1813 64.2958 39.196 64.2811 39.2106C64.2811 39.24 64.2664 39.2841 64.2811 39.3429C64.237 39.387 64.1929 39.4458 64.1782 39.5192C64.1636 39.5192 64.1489 39.5192 64.1342 39.5192C64.0166 39.5633 63.8991 39.6368 63.8403 39.7543C63.8109 39.7837 63.7815 39.8131 63.7668 39.8572C63.6787 40.0629 63.8403 40.298 64.0607 40.489C64.0313 40.5625 64.0313 40.636 64.0607 40.7094C64.0313 40.7535 64.0019 40.7976 63.9872 40.8417L64.0166 40.9445C63.9872 41.1796 64.046 41.2972 64.237 41.3266C64.237 41.356 64.237 41.3707 64.237 41.4C64.2811 41.5764 64.5015 41.7086 64.766 41.6205C64.7219 41.7821 64.7807 41.9731 64.957 41.9437C65.0011 41.9731 65.0599 42.0025 65.104 42.0319C65.104 42.0319 65.1187 42.0319 65.1334 42.0319C65.1334 42.0907 65.1334 42.1347 65.1334 42.1788C65.1334 42.2523 65.1774 42.3111 65.2362 42.3552C65.2215 42.6637 65.4713 42.9429 65.7652 42.7666C65.7799 42.8841 65.8534 42.9429 65.9415 42.9576C66.015 42.9576 66.0885 42.9282 66.1619 42.8694C66.2501 43.1192 66.4852 43.2368 66.6762 43.0164H66.6909C66.7938 43.0605 66.9113 43.0164 67.0289 42.9135C67.073 43.0311 67.1464 43.1045 67.2346 43.0899C67.264 43.0899 67.2787 43.0752 67.3081 43.0458C67.3962 43.1192 67.4991 43.0898 67.6019 43.0017C67.7489 43.2809 68.0868 43.4572 68.2191 43.0899C68.3072 43.0458 68.3954 42.9723 68.4542 42.8547C68.4542 42.8547 68.4689 42.8547 68.4836 42.8547C68.513 42.8547 68.557 42.8254 68.5864 42.796C68.6452 42.8254 68.704 42.8401 68.7628 42.8401V42.8694H68.7921C68.7921 42.7666 68.8215 42.7225 68.8803 42.7519C69.1301 42.8547 69.4387 42.5756 69.4975 42.1788C69.4975 42.1201 69.5268 42.1054 69.5562 42.1201C69.6444 42.1641 69.762 42.1641 69.806 42.0466C69.8207 41.9731 69.806 41.8556 69.8207 41.7968C69.8207 41.7674 69.8648 41.7527 69.8942 41.738C69.9677 41.7086 70.0411 41.6939 70.0999 41.6645C70.1293 41.6939 70.144 41.738 70.1587 41.7674C70.144 41.738 70.1587 41.7674 70.1881 41.7674C70.2175 41.7674 70.2322 41.7674 70.2468 41.7674C70.2909 41.738 70.335 41.6939 70.3644 41.6352C70.3938 41.5911 70.4379 41.6205 70.5113 41.6939C70.6142 41.8115 70.7171 41.7233 70.7905 41.6939C70.9081 41.6645 71.0844 41.6939 71.2313 41.6498C71.5693 41.5617 71.775 41.1943 71.6869 40.8123C71.6575 40.6947 71.8926 40.6947 72.1424 40.7388C72.2452 40.6066 72.2599 40.4009 72.0689 40.2833V40.3715Z" fill="white"/>
<path d="M116.401 71.2288C116.401 71.2288 116.356 71.1994 116.342 71.1994C116.342 71.1553 116.342 71.1259 116.312 71.0818C116.548 70.9055 116.592 70.4794 116.312 70.3912C116.533 70.1267 116.562 69.7447 116.268 69.6712C116.151 69.6418 116.004 69.6712 115.842 69.73C115.813 69.6271 115.725 69.539 115.636 69.4508C115.592 69.4067 115.534 69.3773 115.46 69.3773C115.445 69.2598 115.343 69.1569 115.21 69.1569C115.21 69.1569 115.21 69.1569 115.196 69.1569C115.254 68.9659 115.254 68.7896 115.122 68.7455C115.034 68.7161 114.931 68.7455 114.814 68.819C114.784 68.6573 114.681 68.5545 114.52 68.6426C114.461 68.5692 114.373 68.5398 114.27 68.5545C114.226 68.3928 114.123 68.3047 113.976 68.4075C113.976 68.4075 113.947 68.4222 113.932 68.4369C113.903 68.4075 113.873 68.3781 113.844 68.3488C113.829 68.2753 113.8 68.2165 113.741 68.1871C113.653 68.143 113.521 68.2165 113.403 68.3194C113.344 68.1724 113.212 68.0696 113.08 68.1284C113.065 68.0696 113.036 68.0255 112.992 67.9814C112.859 67.8492 112.668 67.952 112.477 68.099C112.477 68.099 112.463 68.1137 112.448 68.1284C112.448 68.1284 112.33 68.1871 112.272 68.2606C112.183 68.1577 112.051 68.1283 111.948 68.1724C111.89 68.1283 111.831 68.0843 111.772 68.0696C111.669 68.0402 111.537 68.099 111.449 68.2312C111.434 68.2312 111.419 68.2312 111.405 68.2312C111.405 68.2312 111.272 68.2165 111.214 68.2753C111.096 68.2018 110.964 68.2459 110.817 68.3047C110.773 68.3047 110.743 68.3488 110.714 68.3928C110.655 68.3928 110.596 68.3928 110.538 68.4516C110.347 68.29 110.112 68.2165 110.023 68.4369C109.994 68.4369 109.979 68.4369 109.95 68.4369C109.744 68.4369 109.553 68.6573 109.612 68.9512C109.612 68.9659 109.612 68.9806 109.597 68.9953C109.494 68.9953 109.392 69.01 109.362 69.0982C109.303 69.0982 109.259 69.0981 109.23 69.1569C109.23 69.1569 109.23 69.1863 109.215 69.201C109.098 69.1716 108.98 69.1716 108.877 69.201C108.701 69.2598 108.554 69.4802 108.627 69.7153C108.583 69.8035 108.569 69.921 108.627 70.0386C108.627 70.0386 108.627 70.0533 108.613 70.068C108.613 70.0973 108.598 70.1414 108.613 70.2002C108.569 70.2443 108.525 70.3031 108.51 70.3765C108.495 70.3765 108.481 70.3765 108.466 70.3765C108.348 70.4206 108.231 70.4941 108.172 70.6116C108.143 70.641 108.113 70.6704 108.098 70.7145C108.01 70.9202 108.172 71.1553 108.392 71.3463C108.363 71.4198 108.363 71.4933 108.392 71.5667C108.363 71.6108 108.334 71.6549 108.319 71.699L108.348 71.8018C108.319 72.0369 108.378 72.1545 108.569 72.1839C108.569 72.2133 108.569 72.228 108.569 72.2573C108.613 72.4337 108.833 72.5659 109.098 72.4778C109.054 72.6394 109.112 72.8304 109.289 72.801C109.333 72.8304 109.392 72.8598 109.436 72.8892C109.436 72.8892 109.45 72.8892 109.465 72.8892C109.465 72.948 109.465 72.992 109.465 73.0361C109.465 73.1096 109.509 73.1684 109.568 73.2125C109.553 73.521 109.803 73.8002 110.097 73.6239C110.112 73.7414 110.185 73.8002 110.273 73.8149C110.347 73.8149 110.42 73.7855 110.494 73.7267C110.582 73.9765 110.817 74.0941 111.008 73.8737H111.023C111.125 73.9178 111.243 73.8737 111.361 73.7708C111.405 73.8884 111.478 73.9618 111.566 73.9472C111.596 73.9472 111.61 73.9325 111.64 73.9031C111.728 73.9765 111.831 73.9471 111.934 73.859C112.081 74.1382 112.419 74.3145 112.551 73.9472C112.639 73.9031 112.727 73.8296 112.786 73.712C112.786 73.712 112.801 73.712 112.815 73.712C112.845 73.712 112.889 73.6827 112.918 73.6533C112.977 73.6827 113.036 73.6974 113.094 73.6974V73.7267H113.124C113.124 73.6239 113.153 73.5798 113.212 73.6092C113.462 73.712 113.77 73.4329 113.829 73.0361C113.829 72.9774 113.859 72.9627 113.888 72.9774C113.976 73.0214 114.094 73.0214 114.138 72.9039C114.152 72.8304 114.138 72.7129 114.152 72.6541C114.152 72.6247 114.196 72.61 114.226 72.5953C114.299 72.5659 114.373 72.5512 114.432 72.5218C114.461 72.5512 114.476 72.5953 114.49 72.6247C114.476 72.5953 114.49 72.6247 114.52 72.6247C114.549 72.6247 114.564 72.6247 114.579 72.6247C114.623 72.5953 114.667 72.5512 114.696 72.4924C114.725 72.4484 114.77 72.4778 114.843 72.5512C114.946 72.6688 115.049 72.5806 115.122 72.5512C115.24 72.5218 115.416 72.5512 115.563 72.5071C115.901 72.419 116.107 72.0516 116.019 71.6696C115.989 71.552 116.224 71.552 116.474 71.5961C116.577 71.4639 116.592 71.2582 116.401 71.1406V71.2288Z" fill="white"/>
<path d="M105.468 43.4865C105.512 43.3396 105.439 43.1927 105.174 43.1927C105.145 43.1927 105.116 43.1927 105.086 43.1927C105.086 43.1633 105.057 43.1339 105.027 43.1192C105.262 42.8694 105.277 42.5167 104.925 42.5167C105.189 42.1935 105.248 41.8114 104.866 41.782C104.719 41.782 104.528 41.8261 104.337 41.929C104.293 41.8114 104.175 41.7233 104.043 41.6351C103.984 41.591 103.896 41.5616 103.808 41.5763C103.764 41.4294 103.631 41.3265 103.47 41.3559C103.47 41.3559 103.47 41.3559 103.455 41.3559C103.514 41.1061 103.47 40.9004 103.293 40.871C103.176 40.8563 103.044 40.9151 102.911 41.0327C102.853 40.8416 102.706 40.7241 102.515 40.8857C102.427 40.8269 102.309 40.7976 102.191 40.8416C102.118 40.6653 101.971 40.5771 101.809 40.7535C101.809 40.7535 101.78 40.7829 101.78 40.7976C101.736 40.7682 101.707 40.7388 101.662 40.7241C101.633 40.6359 101.574 40.5771 101.501 40.5624C101.383 40.5331 101.251 40.6506 101.133 40.8122C101.031 40.6506 100.854 40.5478 100.722 40.6653C100.693 40.5918 100.649 40.5331 100.59 40.5037C100.413 40.3861 100.222 40.5625 100.031 40.7682C100.031 40.7682 100.017 40.7976 100.002 40.8122C100.002 40.8122 99.8845 40.9151 99.8404 41.018C99.7082 40.9004 99.5612 40.9004 99.4584 40.9886C99.3849 40.9298 99.3114 40.9004 99.2233 40.8857C99.091 40.8857 98.9588 40.9739 98.9 41.1502C98.8853 41.1502 98.8706 41.1649 98.8559 41.1796C98.7678 41.1502 98.709 41.1796 98.6502 41.2531C98.4886 41.1796 98.3416 41.2531 98.1947 41.3559C98.1506 41.3706 98.1065 41.4147 98.0918 41.4735C98.0184 41.4735 97.9449 41.5176 97.9008 41.5763C97.6216 41.4147 97.269 41.4147 97.2543 41.6939C97.2249 41.6939 97.1955 41.6939 97.1661 41.7086C96.9163 41.782 96.7253 42.12 96.9457 42.4433C96.9457 42.458 96.9457 42.4874 96.9457 42.502C96.7988 42.5314 96.6959 42.6196 96.6959 42.7372C96.6224 42.7665 96.5637 42.8106 96.5637 42.8694C96.5637 42.8841 96.5637 42.9135 96.5637 42.9282C96.402 42.9576 96.2551 43.031 96.1522 43.1339C95.9612 43.3249 95.9465 43.6629 96.1963 43.8686C96.1963 43.9861 96.2845 44.1037 96.402 44.1919C96.402 44.1919 96.402 44.2212 96.402 44.2359C96.402 44.28 96.4461 44.3241 96.4755 44.3682C96.4461 44.4417 96.4461 44.5151 96.4755 44.5886L96.4314 44.6327C96.3139 44.7355 96.2404 44.8825 96.2257 45.0147C96.211 45.0588 96.1963 45.1029 96.1963 45.147C96.211 45.3674 96.5196 45.4702 96.8722 45.5143C96.8722 45.6025 96.8869 45.6759 96.9457 45.72C96.8282 45.9845 96.9016 46.249 97.2249 46.1902C97.2249 46.2196 97.2249 46.249 97.2396 46.2784C97.3278 46.4694 97.6804 46.5723 97.9743 46.3666C97.9743 46.587 98.1065 46.7633 98.2976 46.6751C98.3563 46.6898 98.4298 46.7045 98.5033 46.7192H98.5327C98.5327 46.778 98.562 46.8368 98.5767 46.8955C98.6061 46.9837 98.6796 47.0425 98.7531 47.0719C98.8265 47.4392 99.238 47.689 99.5025 47.3657C99.5612 47.4833 99.6641 47.5568 99.7669 47.5274C99.8551 47.5127 99.9139 47.4392 99.9874 47.351C100.178 47.6008 100.502 47.6743 100.634 47.351C100.634 47.351 100.634 47.351 100.663 47.351C100.751 47.351 100.854 47.2923 100.942 47.2041C101.06 47.5568 101.471 47.7772 101.751 47.4392C101.898 47.4245 102.045 47.3511 102.162 47.2041C102.162 47.2041 102.191 47.2041 102.206 47.2041C102.25 47.2041 102.309 47.1894 102.368 47.16C102.441 47.2041 102.529 47.2335 102.618 47.2188L102.647 47.2482H102.662C102.676 47.1453 102.72 47.0866 102.794 47.1159C102.985 47.1894 103.191 47.1159 103.352 46.9543C103.499 46.7927 103.587 46.5723 103.543 46.3225C103.543 46.249 103.543 46.2196 103.602 46.2343C103.734 46.2637 103.881 46.2343 103.867 46.0727C103.867 45.9845 103.778 45.8523 103.778 45.7788C103.778 45.72 103.808 45.6906 103.822 45.6612C103.881 45.6172 103.94 45.5731 103.999 45.5143C104.043 45.5437 104.102 45.5731 104.131 45.6025C104.087 45.5731 104.131 45.6025 104.175 45.6025C104.205 45.6025 104.219 45.5731 104.234 45.5584C104.278 45.5143 104.278 45.4408 104.278 45.3674C104.278 45.3086 104.351 45.3086 104.484 45.338C104.689 45.3968 104.719 45.2204 104.792 45.1617C104.895 45.0441 105.101 44.9412 105.204 44.7943C105.453 44.4417 105.336 44.0449 104.983 43.8245C104.866 43.751 105.145 43.6188 105.468 43.5159V43.4865Z" fill="white"/>
<path d="M84.0444 21.9452C84.0444 21.9452 83.9709 21.9011 83.9121 21.8717C83.868 21.7395 83.7211 21.6219 83.5595 21.5925C83.5742 21.5485 83.5889 21.5191 83.5889 21.4897C83.5889 21.4897 83.5889 21.4603 83.5889 21.4456C83.6329 21.3721 83.6623 21.3134 83.6623 21.2546C83.6623 21.093 83.5595 20.9901 83.4272 20.9166C83.5007 20.7991 83.5301 20.6962 83.5154 20.6081C83.4713 20.417 83.1333 20.3583 82.8248 20.4464C82.7954 20.3583 82.7072 20.2995 82.6044 20.2701C82.6044 20.1525 82.5603 20.0497 82.4868 19.9909C82.5162 19.7852 82.4574 19.6089 82.3105 19.5354C82.3105 19.2856 82.1782 19.0652 81.9725 19.0505C81.7668 19.0211 81.4435 19.1974 81.2084 19.4325C81.2084 19.4032 81.1937 19.3591 81.179 19.3444C81.1203 19.2415 80.9586 19.2562 80.8264 19.315L80.7382 19.1974C80.7382 19.1974 80.6501 19.0946 80.5766 19.0652C80.5031 18.7272 80.2386 18.4627 79.9888 18.5362C79.9007 18.5656 79.8125 18.6391 79.739 18.7419C79.6068 18.7566 79.4892 18.8448 79.4158 18.9623C79.4158 18.977 79.4011 19.0064 79.3864 19.0211H79.2835C79.2835 19.0211 79.166 19.0064 79.1072 19.0211C78.9309 18.9329 78.7398 18.9917 78.6076 19.168C78.4901 19.1387 78.3872 19.1974 78.3137 19.3003L78.2843 19.2709C78.1521 19.1387 77.9464 19.0946 77.7994 19.1534C77.579 19.0064 77.3145 18.9623 77.2117 19.1387C77.1823 19.1974 77.1676 19.2709 77.1676 19.3738C77.0207 19.3738 76.9031 19.4472 76.8443 19.5795C76.7856 19.5501 76.7415 19.5354 76.6974 19.5354C76.33 19.4766 76.1243 19.697 76.1537 20.0056C76.0802 20.035 76.0362 20.1085 76.0362 20.1819C75.9186 20.1378 75.8011 20.1085 75.7276 20.1378C75.6247 20.1672 75.566 20.2848 75.5807 20.417H75.5513C75.4337 20.4905 75.3896 20.6081 75.4043 20.7403C75.0811 20.7256 74.8019 20.8725 74.89 21.093C74.89 21.093 74.9047 21.1223 74.9194 21.137C74.89 21.1958 74.89 21.2693 74.9194 21.3281L74.7725 21.4015C74.6255 21.4456 74.5521 21.5779 74.5521 21.7101C74.508 21.7689 74.4933 21.8276 74.508 21.9011C74.4051 21.9452 74.3317 22.004 74.317 22.0774C74.2876 22.2391 74.3904 22.4007 74.5815 22.533V22.5623C74.5815 22.6064 74.5962 22.6358 74.6255 22.6799C74.3464 22.7093 74.1406 22.8121 74.126 22.9297C74.126 22.9885 74.17 23.0619 74.2435 23.1207C74.17 23.2236 74.1847 23.3558 74.2876 23.4734C74.1994 23.4881 74.126 23.5028 74.0672 23.5321C73.7145 23.6644 73.6264 24.0024 73.8321 24.1934C73.9643 24.2962 74.1406 24.3844 74.3464 24.4285C74.3464 24.4285 74.3464 24.4285 74.3464 24.4432C74.2141 24.5166 74.1113 24.5901 74.0819 24.6783C74.0084 24.8693 74.2876 25.075 74.5962 25.1044V25.1485C74.5962 25.1485 74.5962 25.1926 74.5962 25.2073C74.5227 25.266 74.4639 25.3395 74.4345 25.3983C74.3904 25.5452 74.508 25.6922 74.6843 25.7509C74.6843 25.8097 74.6843 25.8685 74.6843 25.942C74.6843 26.1624 74.9194 26.3828 75.2427 26.4122C75.2574 26.5297 75.3309 26.6326 75.4043 26.706C75.948 26.7501 76.4329 26.7354 76.8003 26.6326C76.9031 26.6032 76.9178 26.7501 76.9031 26.9118L76.9619 26.8824C76.9619 26.8824 77.0941 26.7795 77.1382 26.7207C77.1676 26.6913 77.197 26.6473 77.2117 26.6179C77.2117 26.6179 77.2558 26.5297 77.2558 26.515C77.2852 26.4415 77.3439 26.3534 77.388 26.3534C77.4174 26.3534 77.4615 26.3534 77.4909 26.3534C77.5203 26.2652 77.5496 26.1477 77.5937 26.0742C77.5937 26.0742 77.5937 26.0448 77.5937 26.0301C77.6672 26.0301 77.7554 26.0301 77.8288 26.0301C77.7701 26.0595 77.7113 26.1036 77.6525 26.1771C77.6231 26.2211 77.5937 26.2946 77.5496 26.3534C77.6231 26.4709 77.6966 26.5738 77.7847 26.6767C77.8141 26.6473 77.8288 26.6473 77.8582 26.6326C77.8582 26.6326 77.8876 26.6326 77.9023 26.6326C77.9317 26.6326 77.9464 26.6326 77.9611 26.6326C77.9611 26.6326 78.0198 26.6032 78.0345 26.6326L78.0786 26.6913C78.0786 26.6913 78.1227 26.7942 78.1227 26.853V26.8824C78.1227 26.8824 78.1815 26.8383 78.2109 26.8824C78.2549 26.9264 78.299 26.9558 78.3431 26.9852C78.3578 26.9852 78.3725 26.9852 78.4019 26.9852C78.4313 26.9558 78.4607 26.9411 78.5047 26.9852C78.5341 26.9852 78.5635 26.9852 78.6076 26.9558C78.6517 26.9264 78.6811 26.8824 78.7105 26.8383V26.8089C78.7398 26.7354 78.7692 26.706 78.8133 26.7354C78.828 26.7354 78.8574 26.7795 78.8721 26.8089C78.8868 26.6913 78.9456 26.6473 79.019 26.7648C79.0484 26.8236 79.0631 26.8236 79.0925 26.8383C79.0925 26.8383 79.1366 26.8383 79.166 26.8236C79.1954 26.8089 79.2394 26.706 79.2541 26.6326C79.2835 26.5003 79.357 26.5444 79.4599 26.6913C79.5186 26.7942 79.5774 26.9264 79.6215 27.0587C79.6803 27.0587 79.7243 27.0587 79.7684 27.0587C79.7978 27.0293 79.8125 26.9852 79.8272 26.9411C79.8566 26.853 79.9154 26.9118 79.9888 26.9852C79.9888 26.9558 79.9888 26.9264 80.0035 26.8971C80.1358 26.9264 80.2533 26.8824 80.2974 26.7648C80.4737 26.8236 80.6354 26.7942 80.8264 26.7648C80.8558 26.7648 80.8999 26.7648 80.9292 26.7501C81.0468 26.8236 81.1497 26.8677 81.2378 26.8677C81.4582 26.853 81.5758 26.515 81.4729 26.1918C81.4876 26.1624 81.5023 26.133 81.517 26.0889C81.6052 26.0889 81.6786 26.0889 81.7227 26.0448C81.7962 25.9713 81.8109 25.8685 81.7962 25.7362C81.8844 25.7362 81.9431 25.6775 81.9725 25.6334C82.2664 25.7803 82.6191 25.7803 82.766 25.6334C82.8101 25.6334 82.8689 25.6334 82.8982 25.6334C83.0599 25.5893 83.104 25.3836 83.0305 25.1632C83.0305 25.1632 83.0452 25.1485 83.0599 25.1338C83.1333 25.0015 83.1039 24.8252 82.9864 24.6489C83.3537 24.7517 83.6917 24.7517 83.8386 24.6195C83.9709 24.4873 83.9415 24.2522 83.7505 24.0317C83.7799 24.0024 83.7946 23.973 83.8093 23.9436C83.8386 23.826 83.7064 23.635 83.5007 23.5028C83.5007 23.444 83.5007 23.3999 83.4713 23.3411C83.6035 23.3117 83.7064 23.2677 83.7505 23.1942C83.8093 23.0913 83.7211 22.9444 83.5595 22.8415C83.6035 22.7828 83.6182 22.724 83.5889 22.6505C83.9709 22.5183 84.2501 22.1362 84.0591 21.9158L84.0444 21.9452Z" fill="white"/>
<path d="M75.0958 68.0989C75.0811 67.9667 74.9783 67.8344 74.8166 67.761C74.8166 67.7463 74.8166 67.7316 74.8166 67.7169C74.8019 67.6728 74.7726 67.6287 74.7138 67.5846C74.7285 67.4965 74.7138 67.423 74.6844 67.3495L74.7285 67.3055C74.8607 67.1585 74.9195 66.9969 74.9195 66.8499C74.9342 66.8059 74.9489 66.7471 74.9342 66.703C74.8901 66.4679 74.5521 66.4238 74.1848 66.4532C74.1848 66.365 74.1701 66.2916 74.1113 66.2475C74.2436 65.9536 74.1848 65.6744 73.8615 65.8067C73.8615 65.7773 73.8615 65.7479 73.8615 65.7185C73.8028 65.5275 73.5089 65.4687 73.1709 65.7185C73.2297 65.4834 73.1415 65.2777 72.9358 65.3805C72.8917 65.3512 72.8183 65.3512 72.7595 65.3365C72.7595 65.3365 72.7448 65.3365 72.7301 65.3365C72.7301 65.263 72.7448 65.1895 72.7301 65.1307C72.7301 65.0279 72.686 64.9544 72.6272 64.9103C72.6713 64.4695 72.4362 64.1463 72.0836 64.4695C72.0836 64.3226 72.0248 64.2197 71.9219 64.2197C71.8485 64.2197 71.7603 64.2785 71.6721 64.3814C71.5987 64.0434 71.3636 63.8671 71.1285 64.205C71.1285 64.205 71.1285 64.205 71.1138 64.205C71.0109 64.1609 70.864 64.2197 70.7317 64.3814C70.7023 64.205 70.6289 64.0728 70.5113 64.1169C70.4819 64.1169 70.4525 64.1463 70.4232 64.1756C70.3203 64.0728 70.2027 64.1169 70.0705 64.2344C69.9236 63.7789 69.4387 63.5438 69.2917 64.0875C69.1742 64.1463 69.0713 64.2638 68.9978 64.4695C68.9978 64.4695 68.9684 64.4695 68.9538 64.4695C68.9097 64.4695 68.8656 64.5136 68.8215 64.5577C68.7333 64.5136 68.6599 64.4989 68.5717 64.5283L68.5423 64.4989H68.5276C68.5423 64.6312 68.5276 64.7046 68.4395 64.6899C68.2484 64.6312 68.0574 64.7634 67.9399 64.9544C67.837 65.1748 67.8223 65.4393 67.9399 65.7332C67.9693 65.8214 67.9693 65.8507 67.9105 65.8507C67.7635 65.8507 67.6313 65.8948 67.7048 66.0859C67.7489 66.174 67.8811 66.3063 67.9252 66.3797C67.9546 66.4385 67.9252 66.4679 67.9252 66.512C67.8811 66.5708 67.8517 66.6295 67.8223 66.703C67.7635 66.6883 67.6901 66.6589 67.646 66.6442C67.7048 66.6589 67.6313 66.6442 67.6019 66.6442C67.5725 66.6442 67.5725 66.6736 67.5578 66.703C67.5431 66.7618 67.5578 66.8352 67.5872 66.894C67.6166 66.9528 67.5284 66.9675 67.3815 66.9381C67.1464 66.9087 67.1464 67.0557 67.0876 67.1291C66.9848 67.2467 66.7937 67.3495 66.6762 67.4818C66.4117 67.805 66.5146 68.2018 66.8966 68.4222C67.0289 68.4957 66.6762 68.6426 66.3088 68.7455C66.2354 68.9071 66.3088 69.054 66.6027 69.054C66.6321 69.054 66.6762 69.054 66.7056 69.054C66.7056 69.0834 66.735 69.1128 66.7644 69.1422C66.4705 69.4067 66.397 69.8181 66.7938 69.8034C66.4558 70.1708 66.3529 70.6116 66.7644 70.6263C66.926 70.6263 67.1317 70.5528 67.3668 70.4353C67.3962 70.5675 67.4991 70.6704 67.6313 70.7585C67.6754 70.8173 67.7635 70.832 67.8811 70.832C67.9105 70.9936 68.028 71.1259 68.2044 71.0818C68.2044 71.0818 68.2044 71.0818 68.2191 71.0818C68.1309 71.3757 68.1456 71.6255 68.3219 71.6549C68.4395 71.6696 68.5717 71.5961 68.7334 71.4491C68.7774 71.6842 68.9097 71.8165 69.1154 71.6108C69.2036 71.6989 69.3064 71.7136 69.424 71.6549C69.4827 71.8753 69.6297 71.9634 69.7913 71.7577C69.7913 71.743 69.8207 71.7136 69.8354 71.6989C69.8648 71.743 69.9089 71.7724 69.9529 71.7871C69.9823 71.89 70.0411 71.9634 70.1146 71.9928C70.2321 72.0222 70.3644 71.8753 70.4819 71.6696C70.5848 71.8753 70.7611 71.9928 70.8934 71.8459C70.9374 71.934 70.9815 71.9928 71.0256 72.0369C71.2166 72.1838 71.4076 71.9634 71.5693 71.6989C71.5693 71.6989 71.584 71.6696 71.5987 71.6549C71.5987 71.6549 71.7162 71.5373 71.7456 71.3904C71.8925 71.5226 72.0395 71.5373 72.1276 71.4198C72.2011 71.4785 72.2893 71.5226 72.3628 71.5373C72.495 71.5373 72.6126 71.4344 72.6419 71.214C72.6566 71.214 72.6713 71.1993 72.686 71.1847C72.7742 71.214 72.833 71.1847 72.877 71.0818C73.0534 71.17 73.1856 71.0818 73.3179 70.9495C73.3619 70.9202 73.3913 70.8761 73.406 70.8026C73.4795 70.8026 73.553 70.7438 73.5824 70.6704C73.9056 70.8614 74.273 70.8614 74.2436 70.5381C74.273 70.5381 74.3024 70.5381 74.3464 70.5087C74.6109 70.4353 74.7432 70.0238 74.4493 69.6712C74.4493 69.6418 74.4493 69.6271 74.4493 69.5977C74.6109 69.5683 74.7138 69.4655 74.6844 69.3479C74.7579 69.3185 74.8166 69.2744 74.8166 69.201C74.8166 69.1863 74.8166 69.1569 74.8166 69.1422C74.993 69.0981 75.1546 69.0099 75.2575 68.8924C75.4485 68.672 75.4338 68.2753 75.1252 68.0695L75.0958 68.0989Z" fill="white"/>
</svg>
