<?xml version="1.0" encoding="UTF-8"?>
<svg id="_레이어_2" data-name="레이어 2" xmlns="http://www.w3.org/2000/svg" viewBox="0 0 15.97 22">
  <defs>
    <style>
      .cls-1 {
        fill: #fff;
      }
    </style>
  </defs>
  <g id="_레이어_1-2" data-name="레이어 1">
    <path class="cls-1" d="m.46,21.9c.29.18.45.05.51.04.14-.07.2-.12.27-.18.17-.06.36-.14.53-.23.16-.08.33-.15.51-.27.05-.02.1-.03.15-.04.42-.13,1.01-.38,1.3-.62.04-.02.06-.03.11-.05h0c.21-.03.45-.09.64-.17.11-.01.23-.04.36-.09.03-.01.06-.03.1-.04.19,0,.4-.03.63-.07.4-.07.94-.25,1.3-.45.23-.07.46-.17.64-.28l.09-.03c.09-.03.19-.07.28-.12.15-.04.31-.09.46-.15h.07c.19-.02.44-.07.69-.17.07-.02.15-.04.23-.08.41-.16.76-.46,1.1-.81.14-.08.29-.16.42-.27.34-.14.77-.42.97-.74.04-.03.09-.07.13-.09.34-.27.75-.73.85-1.05h0c.25-.17.57-.49.72-.77.08-.11.18-.24.28-.39.01-.02.03-.04.04-.06.06-.05.13-.11.2-.18.11-.1.22-.25.32-.4h0c.35-.31.82-1.04.86-1.57.11-.15.2-.34.26-.57.04-.16.07-.32.07-.46.22-.4.43-1.01.38-1.46v-.05c.06-.31.03-.67-.04-.96.04-.18.05-.4,0-.65-.01-.07-.03-.13-.05-.2,0-.27-.08-.56-.18-.85.05-.46-.04-1.31-.27-1.74-.06-.26-.12-.51-.21-.74v-.08c-.02-.1-.04-.21-.06-.32,0-.15,0-.31,0-.49v-.05s.02-.03.02-.03c-.05-.07-.08-.18-.07-.32.04-.71-.18-1.81-.48-2.3-.05-.08-.07-.15-.08-.25-.02-.26-.14-.62-.28-.81-.09-.14-.18-.17-.31-.23-.02-.01-.05,0-.08-.01,0,0-.01,0-.02,0-.04,0-.08-.01-.13,0-.17.02-.39.13-.69.43,0,0,0,0-.01.01-.04.01-.08.02-.1.02.03,0-.01,0-.06.04-.05.04-.1.09-.14.14-.12.13-.23.26-.34.4-.09.12-.18.18-.26.2-.13.03-.38.33-.52.47-.2.19-.51.49-.74.71-.29.3-.54.57-.79.9-.25.34-.43.69-.6,1.04-.12.24-.29.28-.39.21-.19.21-.37.43-.45.63l-.03.07c-.05.05-.1.1-.16.16-.33.13-.87.46-1.13.79-.36.09-.85.32-1.21.7-.15.16-.24.3-.3.45-.23.14-.47.33-.74.54-.13.09-.26.21-.38.34-.24.15-.54.36-.72.59l-.04.04c-.22.06-.48.21-.72.49-.16.17-.26.36-.35.55-.25.2-.51.48-.62.78-.16.19-.3.42-.42.64-.21.22-.4.52-.47.82v.07c-.07.09-.12.19-.17.29-.08.09-.15.22-.23.38-.12.27-.17.54-.2.83-.16.26-.31.64-.35.95-.05.07-.1.17-.14.28-.15.37-.23.92-.17,1.49,0,.03,0,.06.01.09h0c0,.19.03.36.08.52-.04.3-.01.64.06.97,0,.15,0,.31.02.49.03.29.12.65.22.92l.02.13h0c0,.18.03.35.07.53-.02.31-.01.53-.13.95-.03.11-.06.22-.07.4,0,.04-.01.06-.01.14,0,.02,0,.08.03.15.03.07.07.12.13.17Z"/>
  </g>
</svg>