<?xml version="1.0" encoding="UTF-8"?>
<svg id="_레이어_2" data-name="레이어 2" xmlns="http://www.w3.org/2000/svg" viewBox="0 0 17.96 14.58">
  <defs>
    <style>
      .cls-1 {
        fill: #fff;
      }
    </style>
  </defs>
  <g id="_레이어_1-2" data-name="레이어 1">
    <path class="cls-1" d="m.42,13.59c.33.09.65.11.94.1.13.03.26.05.36.05.08.06.17.1.28.14.15.05.36.07.54.07.02,0,.04.01.05.02.22.06.43.09.62.09.27.14.7.27,1.01.25.02,0,.04,0,.06,0,.12.02.24.02.33.02l.23.07c.18.06.44.1.69.11.12.02.26.03.38.03.15.04.3.06.43.07.3,0,.56-.04.76-.11h.07c.08,0,.15-.02.22-.03.18.08.43.12.66.1.12-.02.24-.05.35-.09.23-.02.47-.07.68-.15.04.02.09.03.15.04.31.04.91-.11,1.23-.31.18-.13.33-.24.42-.37.01,0,.02-.02.04-.02.11,0,.24-.02.36-.08.29-.13.64-.45.74-.67l.06-.04s.06-.05.1-.08c.07-.03.15-.06.22-.12.17-.11.36-.35.47-.56l.18-.2c.2-.22.41-.57.51-.86.09-.1.18-.21.26-.32.19-.47.44-.9.82-1.24.11-.1.21-.11.28-.08l.04-.05c.06-.06.11-.12.16-.18.02-.03.04-.06.06-.09,0,0,.02-.05.02-.06.01-.04.07-.12.14-.16.04-.03.11-.07.17-.11,0-.04.02-.11.05-.16,0,0-.01,0-.02,0,0,0,0,0,.01,0h0c.15-.11.29-.22.42-.35,0,0,0,0-.01.01-.09.09-.18.18-.25.28-.04.05-.06.11-.09.16.15-.07.31-.16.47-.25.04-.05.07-.08.09-.11.02-.02.04-.04.06-.06.03-.03.05-.06.09-.1h0c.03-.06.06-.09.11-.12l.06-.04s.07-.03.09-.02h.01s.05-.1.1-.14c.06-.05.11-.11.17-.17.02-.03.04-.05.06-.08.03-.05.05-.11.1-.16.03-.05.05-.1.09-.16.03-.07.06-.14.07-.21h0s0-.04,0-.04c0-.07.03-.14.07-.22.02-.03.04-.05.06-.06,0-.09.04-.22.12-.29.03-.04.04-.04.06-.09,0-.02.03-.09.04-.13.02-.07.03-.21.02-.28,0-.14.03-.27.11-.34.05-.04.1-.06.15-.05.02-.09.04-.18.06-.27,0-.05-.01-.11-.02-.19-.02-.11.01-.19.05-.24l-.02-.1c.03-.22.01-.45-.03-.63,0-.25,0-.57-.09-.9-.02-.07-.03-.13-.05-.19,0-.13-.02-.26-.07-.4-.12-.37-.52-.81-.79-.91-.05-.04-.1-.09-.17-.14-.07-.12-.18-.2-.28-.27-.17-.11-.32-.22-.49-.24-.12-.08-.25-.14-.38-.2h0c-.17-.18-.54-.41-.9-.5-.05-.03-.1-.05-.16-.07-.24-.1-.58-.11-.83-.1h-.06c-.29-.03-.53-.02-.73.03-.16-.12-.43-.24-.72-.25-.28-.01-.63.05-.87.16-.06,0-.11,0-.17.01-.21.02-.43.13-.58.23-.1.02-.2.04-.29.08-.1-.02-.22-.02-.33,0-.19.03-.41.14-.55.24-.11.03-.22.06-.32.11-.28-.02-.82.1-1.12.34-.04.03-.08.07-.12.1-.19.12-.38.28-.48.41-.05.02-.1.05-.14.08-.02.02-.04.03-.06.05-.08.04-.16.08-.24.13-.22.13-.38.33-.53.49-.12.05-.22.13-.32.23-.22.21-.41.58-.46.83-.1.13-.2.3-.27.45-.11.13-.22.29-.3.46-.15.16-.3.37-.38.58-.17.2-.34.45-.42.69-.09.24-.11.52-.08.71-.03.03-.05.06-.07.09-.09.13-.17.32-.23.49l-.12.15c-.06.07-.12.15-.18.25-.24.18-.52.49-.66.78-.05.1-.09.21-.11.31-.09.16-.17.32-.2.44v.05s-.11.14-.11.14c-.06.07-.11.15-.17.24-.19.2-.36.45-.47.69-.12.14-.23.29-.3.44l-.03.02c-.15.1-.35.3-.5.51-.21.15-.47.41-.58.67-.04.09-.06.18-.08.27-.12.19-.22.46-.24.69-.03.06-.05.12-.07.18-.03.1-.04.21-.04.32v.34s.41.11.41.11Z"/>
  </g>
</svg>