<?xml version="1.0" encoding="UTF-8"?>
<svg id="_레이어_2" data-name="레이어 2" xmlns="http://www.w3.org/2000/svg" viewBox="0 0 20.79 19.02">
  <defs>
    <style>
      .cls-1 {
        fill: #fff;
      }
    </style>
  </defs>
  <g id="_레이어_1-2" data-name="레이어 1">
    <path class="cls-1" d="m.06,16.02c-.04-.12-.06-.25-.06-.39,0-.21.04-.47.11-.68,0-.02,0-.05,0-.07.03-.29.09-.55.18-.77,0-.39.13-.95.33-1.27.01-.02.03-.04.04-.06.05-.14.13-.27.19-.37l.09-.29c.07-.23.2-.52.36-.77.06-.14.15-.28.23-.41.07-.17.14-.34.23-.48.19-.31.41-.54.61-.7l.05-.07c.06-.08.12-.14.18-.2.06-.22.19-.5.37-.71.09-.11.2-.22.32-.3.18-.22.39-.43.61-.59.02-.05.04-.11.07-.17.18-.32.77-.82,1.19-.98.25-.1.47-.16.66-.17.02,0,.03-.01.05-.02.09-.09.21-.18.36-.25.33-.17.87-.26,1.13-.24l.08-.03s.09-.03.13-.04c.07-.05.15-.1.24-.14.21-.09.54-.17.8-.2l.29-.11c.31-.12.77-.23,1.14-.28.15-.07.31-.13.46-.19.58-.11,1.28-.31,1.89-.49.18-.05.26-.14.29-.22l.08-.02c.1-.02.19-.04.28-.05.04,0,.08,0,.12-.01,0,0,.06,0,.07,0,.05.01.15,0,.24-.05.05-.03.14-.08.21-.12.05.01.12.02.19,0,0,0,0,.01,0,.02,0,0,.01,0,.02,0,.21-.12.41-.25.62-.36-.02.01-.05.03-.07.04-.14.07-.29.13-.41.18-.08.03-.14.03-.2.04.15-.14.31-.28.47-.41.05-.02.1-.05.15-.07.03-.02.06-.03.09-.05.04-.02.09-.05.13-.07h.02c.06-.03.11-.06.16-.1l.06-.06s.05-.07.05-.09h0c.06-.03.12-.06.17-.1.07-.06.14-.11.22-.16.04-.02.06-.04.09-.06.06-.02.13-.06.18-.11.06-.03.12-.06.19-.1.08-.04.16-.07.24-.09h.02s.03-.01.03-.01c.08-.01.16-.05.23-.11.03-.02.05-.05.06-.07.1-.01.24-.08.31-.18.03-.04.04-.05.08-.09.02-.01.08-.05.13-.08.07-.04.22-.09.29-.12.16-.05.27-.15.31-.25.03-.07.02-.12-.01-.16l.24-.18c.05-.03.11-.05.18-.09.11-.05.16-.12.19-.19.03-.01.06-.03.1-.04.17-.17.35-.33.51-.44.08-.09.2-.25.4-.39.09-.07.23-.15.42-.18.18-.04.46.01.63.15.12.09.22.2.27.3.15.16.23.34.29.52.15.49.08,1.1-.04,1.41,0,.08-.02.16-.03.24,0,.15,0,.3,0,.43-.03.23-.08.42-.13.59,0,.16-.03.32-.06.47h0c.03.13.05.32.05.54,0,.11,0,.22-.01.33,0,.06-.01.12-.02.17-.01.05,0,0-.03.15l-.03.09c-.01.07-.03.15-.05.22-.1.31-.31.65-.51.88l-.04.07c-.17.3-.36.52-.53.68,0,.24-.09.55-.27.85-.17.29-.44.58-.66.77-.03.06-.06.11-.1.16-.14.19-.33.39-.5.51-.07.1-.13.19-.21.28-.03.11-.07.24-.14.36-.11.19-.29.41-.45.55-.07.12-.14.23-.23.33-.07.32-.38.89-.74,1.19-.05.04-.1.08-.16.11-.19.2-.43.38-.61.46-.04.05-.09.1-.14.15l-.07.06c-.07.08-.15.16-.23.23-.24.2-.49.35-.74.46-.11.1-.23.2-.38.29-.32.17-.8.29-1.09.28-.19.08-.4.14-.59.19-.17.09-.38.18-.58.25-.21.14-.47.28-.72.37-.25.18-.56.35-.84.45-.29.1-.62.15-.85.13-.04.03-.07.06-.12.08-.16.1-.4.2-.61.26l-.19.13c-.09.06-.2.13-.32.2-.25.25-.66.56-1.03.72-.12.05-.26.09-.38.12-.2.1-.41.18-.55.22h-.06s-.18.12-.18.12c-.09.06-.2.12-.31.18-.27.21-.58.38-.88.51-.17.13-.44.27-.65.31l-.04.03c-.2.14-.56.27-.9.31-.32.12-.76.19-1.11.13-.12-.02-.23-.05-.33-.1-.08,0-.15-.01-.25-.04-.04,0-.11-.03-.18-.07-.07-.04-.09-.06-.13-.09-.16-.12-.25-.27-.32-.4-.05-.06-.1-.12-.14-.19-.32-.57-.34-1.16-.26-1.61,0-.17,0-.34.02-.47Z"/>
  </g>
</svg>