<?xml version="1.0" encoding="UTF-8"?>
<svg id="_레이어_2" data-name="레이어 2" xmlns="http://www.w3.org/2000/svg" viewBox="0 0 17.79 15.36">
  <defs>
    <style>
      .cls-1 {
        fill: #fff;
      }
    </style>
  </defs>
  <g id="_레이어_1-2" data-name="레이어 1">
    <path class="cls-1" d="m17.7,5.28c.17-.62.09-1.62-.13-2.07-.03-.07-.04-.14-.04-.23.02-.23,0-.53-.09-.74-.05-.11-.12-.15-.17-.26-.05-.14-.07-.21-.1-.29-.08-.24-.16-.44-.26-.56,0,0,0,0-.01-.01,0-.03-.01-.07-.01-.09,0,.02,0,0-.05-.05-.04-.05-.1-.08-.15-.11-.14-.09-.3-.11-.44-.16-.13-.02-.21-.07-.26-.13-.07-.1-.42-.16-.6-.2-.3-.07-.59-.16-.89-.22-.71-.13-1.43-.11-2.11.03-.23.05-.37-.06-.38-.18-.27-.02-.56.03-.76.14l-.06.04c-.07.01-.13.03-.21.04-.35-.06-.92,0-1.25.2-.34-.07-.85-.02-1.27.25-.17.11-.28.23-.36.35-.23.08-.48.21-.75.37-.12.07-.26.16-.38.26-.23.1-.51.27-.69.45l-.04.03c-.2.02-.44.12-.68.33-.15.13-.27.27-.36.43-.25.12-.52.31-.66.54-.17.12-.34.27-.49.44-.23.12-.47.33-.6.56l-.03.06c-.07.06-.14.13-.22.2-.1.05-.19.14-.3.25-.18.19-.28.42-.38.66-.21.18-.43.47-.54.74-.06.05-.12.12-.19.21-.23.32-.34.73-.45,1.21,0,.02,0,.05-.01.08h0c-.05.16-.07.3-.08.44-.12.22-.23.5-.28.8-.06.12-.12.25-.17.4-.08.25-.14.57-.14.84l-.02.12h0c-.06.15-.08.31-.1.48-.1.24-.17.58-.22.95-.02.1-.03.21-.03.32-.03.15-.05.3-.06.45-.15.28-.27.74-.21,1.11,0,.05-.02.1-.02.15-.03.21-.03.47.02.76.01.07.04.16.07.24.02.06.05.11.08.16.03.06.15.19.25.23.05.02.11.03.16.04.07.01.16.01.23,0,.18-.04.27-.14.31-.2.04-.04.07-.09.09-.12h0c.16-.14.26-.23.37-.35.08-.03.15-.08.24-.14.02-.01.04-.03.07-.05.15-.02.31-.05.48-.09.31-.07.75-.19,1.07-.35.2-.05.4-.11.57-.18h.08c.08-.03.17-.05.25-.08.13,0,.27-.03.41-.06h.06c.16.03.38.04.6.02.06,0,.13,0,.21,0,.37-.04.71-.19,1.09-.37.14,0,.28-.03.42-.06.32.03.75-.02,1.03-.19.05,0,.1-.01.14-.02.37-.06.88-.25,1.09-.46,0,0,0,0,.01,0,.26,0,.64-.11.87-.26.11-.05.24-.1.38-.16.02,0,.04-.02.06-.03.07,0,.15-.01.23-.03.13-.02.28-.07.43-.12h0c.4-.02,1.1-.25,1.42-.56.16-.03.34-.08.51-.2.13-.08.23-.17.33-.27.39-.12.9-.41,1.1-.73l.04-.02c.2-.15.42-.37.55-.58.15-.06.31-.17.45-.35.04-.05.08-.1.11-.15.18-.16.34-.37.48-.61.18-.11.4-.32.58-.56.18-.22.36-.58.36-.81.1-.25.14-.5.15-.73l.02-.07c.02-.09.04-.2.06-.3.05-.13.09-.29.12-.44l.02-.04v-.02c-.02-.08-.03-.17,0-.3Z"/>
  </g>
</svg>