<?xml version="1.0" encoding="UTF-8"?>
<svg id="_레이어_2" data-name="레이어 2" xmlns="http://www.w3.org/2000/svg" viewBox="0 0 17.59 20">
  <defs>
    <style>
      .cls-1 {
        fill: #fff;
      }
    </style>
  </defs>
  <g id="_레이어_1-2" data-name="레이어 1">
    <g>
      <path class="cls-1" d="m17.5.8s0,.02,0,.02c0,0,0,0,0,.01v-.04Z"/>
      <path class="cls-1" d="m17.57,1.34c.01-.16-.02-.34-.07-.52-.02-.07-.03-.09-.05-.13-.09-.33-.42-.56-.71-.64-.3-.08-.58-.07-.8,0-.06,0-.12,0-.18,0-.52.03-1.17.3-1.46.54-.04.02-.06.03-.1.05h0c-.21.03-.44.09-.64.18-.11.01-.23.04-.36.09-.03.01-.06.03-.1.04-.19,0-.4.03-.63.08-.4.08-.94.28-1.29.49-.23.08-.45.19-.63.3l-.09.03c-.09.03-.18.08-.27.12-.15.04-.3.09-.45.16h-.07c-.18.02-.43.07-.68.15-.07.02-.15.04-.23.07-.4.14-.75.38-1.14.67-.15.05-.31.11-.45.18-.36.06-.82.26-1.09.51-.05.02-.1.04-.15.06-.39.19-.9.52-1.07.8h-.01c-.27.11-.68.31-.89.56-.11.09-.23.19-.37.3-.02.01-.04.03-.06.05-.08.03-.16.07-.25.11-.13.07-.27.19-.42.3h0c-.43.18-1.07.76-1.28,1.22-.14.11-.29.27-.43.47-.1.16-.16.26-.23.45-.34.39-.59,1.04-.56,1.47v.05c-.09.28-.12.63-.1.91-.08.16-.13.38-.14.64,0,.07,0,.14.01.21-.05.27-.02.57.02.88-.14.46-.1,1.37.09,1.78.03.26.07.51.13.75v.08c0,.1,0,.21,0,.32-.03.15-.05.31-.06.48l-.02.04v.02c.03.08.04.18,0,.32-.12.66-.35,1.66-.23,2.28.01.09,0,.16-.02.27-.09.25-.14.62-.04.87.05.14.12.18.2.3.02.04.06.09.1.14,0,0,0,0,0,0,.03.03.06.04.09.07.03.02.06.05.11.06,0,0,0,0,0,0,0,0,0,0,0,0,.14.03.32,0,.58-.18,0,0,.01,0,.02-.01.04,0,.08,0,.1,0-.02,0,.01,0,.07-.03.07-.04.11-.07.17-.11.15-.1.28-.21.41-.32.11-.1.21-.14.3-.14.13,0,.44-.25.6-.36.29-.2.58-.36.87-.56.67-.47,1.24-1.06,1.66-1.76.14-.23.32-.29.42-.23.23-.26.35-.49.43-.72l.02-.07c.04-.06.08-.11.13-.18.3-.18.77-.56,1-.9.35-.11.8-.34,1.15-.69.14-.15.24-.28.3-.42.23-.12.48-.27.77-.43.13-.07.28-.15.42-.25.26-.08.57-.2.81-.34l.05-.02c.21.02.47.01.79-.09.23-.07.41-.17.58-.29.32-.04.69-.15.94-.35.24-.1.48-.22.69-.39.29-.11.62-.34.78-.62.01-.02.02-.05.04-.07.09-.08.17-.16.25-.26.1-.08.21-.2.31-.36.18-.29.24-.59.26-.89.15-.28.28-.67.29-.99.04-.08.08-.17.12-.29.13-.4.15-.85.21-1.35,0-.02,0-.06.01-.08h0c.04-.16.07-.31.08-.47.14-.24.28-.54.38-.86.08-.13.16-.27.23-.42.13-.27.24-.63.28-.93l.04-.13h0c.08-.17.13-.35.17-.55.13-.28.23-.66.27-1.13,0-.13.02-.26,0-.41Z"/>
    </g>
  </g>
</svg>