<svg width="63" height="16" viewBox="0 0 63 16" fill="none" xmlns="http://www.w3.org/2000/svg">
<g clip-path="url(#clip0_244_283)">
<path d="M4.09 3.57003C6.74 2.89003 8.53 3.10003 9.03 5.05003C9.4 6.49003 8.74 7.52003 7.22 8.19003V8.22003C9.15 7.99003 10.51 8.59003 10.91 10.14C11.53 12.58 9.64 13.72 6.79 14.45L2.77 15.48L2.66 15.03L3.82 14.73L1.28 4.77003L0.12 5.07003L0 4.62003L4.09 3.58003V3.57003ZM4.76 8.70003L5.16 8.60003C6.79 8.18003 7.09 7.35003 6.66 5.69003C6.24 4.06003 5.61 3.66003 4.09 4.05003L3.59 4.17003L4.75 8.70003H4.76ZM6.15 14.13L6.88 13.94C8.57 13.51 8.88 12.6 8.43 10.82C8 9.15003 7.27 8.55003 5.47 9.01003L4.88 9.16003L6.15 14.12V14.13Z" fill="white"/>
<path d="M18.38 6.54997L18.97 11.59L20.32 11.43L20.37 11.89L15.44 12.46L15.39 12L16.58 11.86L15.39 1.65997L14.2 1.79997L14.15 1.33997L18.44 0.839973C21.32 0.509973 23.14 0.649973 23.4 2.94997C23.62 4.86997 22.55 5.62997 20.79 5.97997V6.02997C22.65 6.02997 23.46 6.60997 23.67 8.44997L23.8 9.52997C23.89 10.34 23.99 10.73 24.51 10.67C24.94 10.62 25.02 10.3 25.11 9.14997L25.48 9.18997C25.43 10.55 25.29 11.48 23.75 11.66C22.05 11.86 21.48 11.26 21.28 9.49997L21.09 7.85997C20.97 6.82997 20.51 6.29997 19.33 6.43997L18.38 6.54997ZM18.33 6.08997L18.76 6.03997C20.4 5.84997 21.07 5.09997 20.85 3.24997C20.63 1.39997 19.82 1.14997 18.26 1.32997L17.78 1.38997L18.33 6.09997V6.08997Z" fill="white"/>
<path d="M33.8 0V0.46H32.76L32.81 10.73H33.85V11.19L29.37 11.21V10.75H30.41L30.36 0.48H29.32V0.02L33.8 0Z" fill="white"/>
<path d="M41.72 11.67L37.73 11.23L37.78 10.77L38.99 10.9L40.13 0.689976L38.92 0.559976L38.97 0.0999756L43.41 0.599976C47.31 1.02998 49.39 2.69998 48.95 6.65998C48.45 11.14 45.49 12.1 41.72 11.68V11.67ZM42.03 11.24C44.69 11.54 45.96 10.1 46.37 6.38998C46.82 2.31998 45.66 1.29998 42.91 0.999976L42.53 0.959976L41.39 11.17L42.03 11.24Z" fill="white"/>
<path d="M62.8 4.26003L62.2 7.30003L61.84 7.21003C61.83 4.95003 61.07 4.31003 59.17 3.83003L58.15 3.57003L56.98 8.21003L57.65 8.38003C58.77 8.66003 59.39 8.17003 59.98 6.85003L60.32 6.94003L59.17 11.54L58.8 11.45C58.89 9.76003 58.6 9.16003 57.37 8.85003L56.86 8.72003L55.65 13.55L56.75 13.83C58.86 14.36 60.16 13.66 61.04 11.87L61.37 11.95L60.43 15.23L52.14 13.15L52.25 12.7L53.32 12.97L55.82 3.00003L54.75 2.73003L54.86 2.28003L62.79 4.27003L62.8 4.26003Z" fill="white"/>
</g>
<defs>
<clipPath id="clip0_244_283">
<rect width="62.8" height="15.47" fill="white"/>
</clipPath>
</defs>
</svg>
