<svg width="92" height="20" viewBox="0 0 92 20" fill="none" xmlns="http://www.w3.org/2000/svg">
<path d="M8.65166 16.43L7.65166 13.95L6.49166 14.42L6.32166 13.99L10.4017 12.34L10.5717 12.77L9.80166 13.08L11.3317 16.86L11.0517 16.97C10.8617 16.79 10.6617 16.7 10.3117 16.84C9.78166 17.06 8.91166 18.03 7.62166 18.55C4.60166 19.77 2.04166 18.93 0.581659 15.31C-0.868341 11.72 0.511659 8.98997 3.40166 7.81997C4.73166 7.27997 5.77166 7.39997 6.25166 7.19997C6.47166 7.10997 6.47166 6.98997 6.47166 6.76997L6.74166 6.65997L8.12166 9.75997L7.78166 9.89997C6.51166 8.38997 5.07166 7.67997 3.62166 8.26997C1.89166 8.96997 1.45166 10.67 2.93166 14.31C4.23166 17.53 5.80166 18.76 7.55166 18.05C8.47166 17.68 8.76166 17.13 8.67166 16.42L8.65166 16.43Z" fill="#C8B59E"/>
<path d="M20.0717 10.48L16.8017 11.31L16.4717 14.76L17.7017 14.45L17.8117 14.9L15.0717 15.59L14.9617 15.14L15.8717 14.91L17.1317 3.50998L18.0017 3.28998L24.4617 12.74L25.3917 12.5L25.5017 12.95L20.8617 14.12L20.7517 13.67L21.9417 13.37L20.0717 10.48ZM16.8417 10.82L19.8217 10.07L17.3317 6.28998L16.8417 10.82Z" fill="#C8B59E"/>
<path d="M32.7415 0.669983L32.7915 1.12998L31.1015 1.32998L32.3015 11.53L33.1915 11.43C35.3415 11.18 36.0715 10.04 36.4615 7.81998L36.8615 7.76998L37.0615 11.44L28.8815 12.4L28.8315 11.94L29.9315 11.81L28.7315 1.60998L27.6315 1.73998L27.5815 1.27998L32.7515 0.669983H32.7415Z" fill="#C8B59E"/>
<path d="M46.4116 0.03V0.49L44.7116 0.48L44.6516 10.75H45.5516C47.7116 10.77 48.5816 9.73 49.2316 7.58H49.6316L49.3816 11.25L41.1416 11.2V10.74H42.2516L42.3116 0.47H41.2116V0L46.4116 0.03Z" fill="#C8B59E"/>
<path d="M63.0116 1.45001L62.7716 4.53001L62.4016 4.48001C62.1316 2.23001 61.3016 1.69001 59.3616 1.43001L58.3116 1.29001L57.6916 6.04001L58.3716 6.13001C59.5116 6.28001 60.0716 5.72002 60.5116 4.34001L60.8616 4.39001L60.2416 9.09001L59.8616 9.04001C59.7616 7.35001 59.4016 6.78001 58.1416 6.62001L57.6216 6.55001L56.9716 11.49L58.1016 11.64C60.2616 11.92 61.4716 11.08 62.1316 9.20001L62.4616 9.24001L61.9116 12.61L53.4316 11.5L53.4916 11.04L54.5916 11.18L55.9316 0.990015L54.8416 0.850015L54.9016 0.390015L63.0116 1.45001Z" fill="#C8B59E"/>
<path d="M70.8817 8.93002L69.5617 13.83L70.8717 14.18L70.7517 14.63L65.9617 13.34L66.0817 12.89L67.2417 13.2L69.9117 3.28002L68.7517 2.97002L68.8717 2.52002L73.0417 3.64002C75.8417 4.39002 77.4817 5.20002 76.8717 7.44002C76.3717 9.31002 75.0917 9.61002 73.3217 9.29002V9.34002C75.0317 10.04 75.5717 10.86 75.0817 12.65L74.8017 13.7C74.5917 14.49 74.5317 14.89 75.0417 15.02C75.4617 15.13 75.6417 14.87 76.1617 13.83L76.4917 14C75.9417 15.24 75.4717 16.06 73.9717 15.66C72.3217 15.21 72.0117 14.45 72.4717 12.74L72.9017 11.15C73.1717 10.15 72.9317 9.49002 71.7917 9.18002L70.8617 8.93002H70.8817ZM71.0017 8.48002L71.4217 8.59002C73.0117 9.02002 73.9117 8.57002 74.4017 6.77002C74.8817 4.98002 74.2217 4.43002 72.7017 4.03002L72.2417 3.91002L71.0117 8.48002H71.0017Z" fill="#C8B59E"/>
<path d="M89.5317 9.84002L88.1117 9.26002L88.2817 8.83002L91.2717 10.05L91.1017 10.48L90.0817 10.06L85.6217 14.02L83.7717 18.59L84.8517 19.03L84.6817 19.46L80.2917 17.68L80.4717 17.25L81.5517 17.69L83.3417 13.27L82.8217 7.12002L81.9317 6.76002L82.1017 6.33002L86.5517 8.14002L86.3817 8.57002L85.2417 8.11002L85.5317 13.43L89.5417 9.86002L89.5317 9.84002Z" fill="#C8B59E"/>
</svg>
