<svg width="154" height="31" viewBox="0 0 154 31" fill="none" xmlns="http://www.w3.org/2000/svg">
<g clip-path="url(#clip0_244_291)">
<path d="M8.44999 19.99L6.32999 18.12L5.37999 18.62L5.15999 18.21L9.12999 16.13L9.34999 16.54L7.95999 17.27L14.45 23.19L12.94 14.66L11.51 15.41L11.29 15L14.22 13.46L14.44 13.87L13.5 14.36L15.36 25.69L15.03 25.86L9.08999 20.57L9.75999 28.62L9.42999 28.79L1.15999 20.84L0.20999 21.34L-0.0100098 20.93L3.95999 18.85L4.17999 19.26L2.78999 19.99L9.00999 26.27L8.44999 20.01V19.99Z" fill="#C8B59E"/>
<path d="M19.13 15.26C20.98 14.46 22.4 15.19 23.27 17.45L18.71 19.42L18.8 19.63C19.71 21.75 20.68 22.65 22.28 21.96C23.47 21.45 23.81 20.41 23.58 19.27L24.03 19.15C24.3 20.46 24.01 21.81 22.14 22.61C19.88 23.59 18.25 22.6 17.32 20.45C16.21 17.88 17.17 16.1 19.12 15.26H19.13ZM21.63 17.69C21.03 16.05 20.27 15.19 19.15 15.67C18.06 16.14 17.93 17.29 18.55 19.01L21.62 17.68L21.63 17.69Z" fill="#C8B59E"/>
<path d="M22.88 13.8C23.31 13.24 23.71 12.41 23.44 11.7C23.38 11.54 23.28 11.37 23.06 11.35L22.76 11.95C22.5 11.9 22.07 11.77 21.87 11.25C21.71 10.83 21.84 10.28 22.39 10.07C23.05 9.80997 23.64 10.24 23.9 10.91C24.33 12.01 23.82 13.14 23.17 14.03L22.88 13.82V13.8Z" fill="#C8B59E"/>
<path d="M29.16 15.05L30.45 18.73L32.05 18.17L32.19 18.56L28.01 20.03L27.87 19.64L29 19.24L26.75 12.84L25.62 13.24L25.48 12.85L28.06 11.94L28.57 13.39C28.5 12.21 29 11.44 29.87 11.14C30.81 10.81 31.6 11.18 31.88 11.98C32.19 12.86 31.83 13.32 31.33 13.5C30.82 13.68 30.36 13.45 30.15 12.85C30.1 12.71 30.07 12.57 30.05 12.43L30.52 12.27C30.52 12.17 30.49 12.08 30.47 12.02C30.36 11.7 30.1 11.73 29.85 11.81C28.97 12.12 28.69 13.71 29.16 15.07V15.05Z" fill="#C8B59E"/>
<path d="M35.83 9.26999C37.76 8.69999 39.08 9.59999 39.67 11.94L34.91 13.34L34.97 13.55C35.62 15.76 36.47 16.78 38.14 16.28C39.38 15.91 39.84 14.93 39.75 13.77L40.21 13.7C40.32 15.03 39.87 16.34 37.92 16.91C35.56 17.61 34.06 16.43 33.4 14.19C32.61 11.51 33.77 9.85999 35.81 9.25999L35.83 9.26999ZM38.01 11.98C37.61 10.28 36.96 9.33999 35.8 9.67999C34.66 10.01 34.4 11.14 34.81 12.93L38.02 11.98H38.01Z" fill="#C8B59E"/>
<path d="M49.34 5.20001C49.26 4.99001 49.11 4.89001 48.88 4.94001C48.58 5.00001 48.24 5.48001 48.44 6.39001C48.47 6.55001 48.53 6.73001 48.6 6.93001C49.12 7.29001 49.5 7.75001 49.67 8.57001C50.01 10.18 49.17 11.46 47.47 11.82C47.08 11.9 46.68 11.94 46.35 11.94C45.85 12.45 45.54 12.9 45.58 13.09C45.62 13.26 45.76 13.31 46.2 13.22L48.35 12.76C50.15 12.38 51.56 12.47 51.97 14.39C52.33 16.08 51.53 17.54 48.34 18.22C46.18 18.68 44.96 18.24 44.71 17.08C44.53 16.23 45.09 15.8 45.6 15.58L46.08 15.82C46.01 16.1 46.03 16.42 46.08 16.64C46.27 17.55 47.06 18.07 48.71 17.71C50.71 17.28 51.55 16.24 51.3 15.05C51.09 14.05 50.31 13.84 48.74 14.17L46.72 14.6C45.61 14.84 45.05 14.5 44.91 13.87C44.8 13.34 45.14 12.79 45.9 11.89C44.81 11.71 44.26 10.95 44.03 9.87001C43.74 8.51001 44.37 7.02001 46.45 6.57001C47.08 6.44001 47.66 6.48001 48.2 6.70001C48.16 6.59001 48.14 6.50001 48.12 6.39001C47.91 5.40001 48.29 4.49001 49.27 4.28001C49.86 4.15001 50.38 4.42001 50.5 5.00001C50.59 5.41001 50.36 5.80001 49.91 5.90001C49.55 5.98001 49.23 5.80001 49.11 5.63001L49.36 5.18001L49.34 5.20001ZM47.36 11.41C48.13 11.25 48.56 10.65 48.19 8.94001C47.84 7.31001 47.27 6.79001 46.4 6.98001C45.59 7.15001 45.15 7.79001 45.52 9.52001C45.87 11.18 46.48 11.59 47.36 11.4V11.41Z" fill="#C8B59E"/>
<path d="M54.61 5.07999C56.6 4.76999 57.79 5.81999 58.07 8.21999L53.17 8.99999L53.2 9.21999C53.56 11.49 54.27 12.61 55.99 12.34C57.27 12.14 57.85 11.22 57.91 10.06H58.38C58.32 11.39 57.7 12.62 55.7 12.94C53.27 13.33 51.93 11.97 51.57 9.65999C51.13 6.89999 52.5 5.40999 54.6 5.07999H54.61ZM56.42 8.04999C56.24 6.30999 55.72 5.28999 54.52 5.48999C53.35 5.67999 52.94 6.75999 53.11 8.57999L56.41 8.05999L56.42 8.04999Z" fill="#C8B59E"/>
<path d="M65.05 4.41002L61.26 4.76002L61.74 10C61.83 10.94 62.1 11.32 62.93 11.24C63.81 11.16 64.13 10.52 64.18 9.42002H64.55C64.52 10.69 64.16 11.88 62.46 12.04C61.26 12.15 60.36 11.77 60.23 10.33L59.73 4.90002L58.53 5.01002L58.49 4.60002L59.68 4.49002L59.49 2.43002L60.98 1.88002L61.21 4.35002L65 4.00002L64.81 1.95002L66.3 1.40002L66.53 3.87002L68.76 3.66002L68.8 4.08002L66.57 4.28002L67.05 9.52003C67.14 10.46 67.41 10.84 68.24 10.76C69.12 10.68 69.44 10.04 69.49 8.94002H69.86C69.83 10.21 69.47 11.4 67.77 11.56C66.57 11.67 65.67 11.29 65.54 9.85003L65.04 4.42002L65.05 4.41002Z" fill="#C8B59E"/>
<path d="M73.09 3.53997L73.34 10.74L74.55 10.7V11.12L70.62 11.26L70.6 10.84L71.8 10.8L71.56 4.01997L70.36 4.05997L70.34 3.63997L73.07 3.53997H73.09ZM72.07 -3.30539e-05C72.63 -0.0200331 73.06 0.239967 73.08 0.909967C73.1 1.48997 72.78 1.89997 72.15 1.91997C71.41 1.94997 71.16 1.45997 71.14 0.979967C71.12 0.469967 71.44 0.0199669 72.07 -3.30539e-05Z" fill="#C8B59E"/>
<path d="M77.98 3.45999L77.96 4.95999C78.34 4.17999 79.19 3.30999 80.8 3.33999C82.27 3.35999 83.16 4.10999 83.13 6.04999L83.06 10.74L84.28 10.76V11.18L80.32 11.12V10.7L81.53 10.72L81.61 5.77999C81.63 4.59999 81.35 3.92999 80.36 3.91999C79.11 3.89999 77.97 4.93999 77.95 6.42999L77.88 10.67L79.1 10.69V11.11L75.14 11.05V10.64L76.35 10.66L76.46 3.87999L75.26 3.85999V3.43999L78 3.47999L77.98 3.45999Z" fill="#C8B59E"/>
<path d="M92.04 3.24C92.03 3.01 91.91 2.88 91.67 2.86C91.37 2.84 90.91 3.2 90.83 4.13C90.82 4.29 90.82 4.48 90.83 4.69C91.23 5.19 91.45 5.73 91.39 6.56C91.26 8.2 90.1 9.19 88.36 9.05C87.96 9.02 87.57 8.94 87.25 8.85C86.63 9.2 86.2 9.54 86.19 9.73C86.18 9.91 86.3 10 86.74 10.03L88.93 10.2C90.76 10.34 92.09 10.83 91.94 12.79C91.81 14.51 90.63 15.69 87.37 15.44C85.17 15.27 84.12 14.5 84.21 13.32C84.28 12.46 84.94 12.2 85.49 12.14L85.88 12.51C85.73 12.76 85.66 13.07 85.64 13.29C85.57 14.22 86.17 14.94 87.86 15.07C89.9 15.23 91 14.46 91.1 13.25C91.18 12.23 90.49 11.81 88.89 11.68L86.83 11.52C85.7 11.43 85.25 10.95 85.3 10.31C85.34 9.77 85.82 9.34 86.8 8.69C85.81 8.21 85.49 7.32 85.58 6.22C85.69 4.83 86.71 3.58 88.84 3.74C89.48 3.79 90.02 3.99 90.48 4.36C90.48 4.25 90.48 4.15 90.48 4.04C90.56 3.04 91.18 2.26 92.18 2.34C92.79 2.39 93.2 2.79 93.16 3.38C93.13 3.8 92.8 4.11 92.34 4.07C91.97 4.04 91.72 3.78 91.66 3.58L92.02 3.22L92.04 3.24ZM88.38 8.64C89.16 8.7 89.74 8.25 89.88 6.51C90.01 4.85 89.61 4.19 88.72 4.13C87.89 4.07 87.29 4.55 87.15 6.32C87.02 8.01 87.49 8.58 88.38 8.65V8.64Z" fill="#C8B59E"/>
<path d="M99.7 5.07998L99.44 6.50998C99.93 5.84998 100.73 5.09998 102.28 5.37998C103.48 5.58998 104.12 6.25998 104.16 7.51998C104.68 6.77998 105.59 5.96998 107.12 6.23998C108.41 6.46998 109.25 7.31998 108.9 9.27998L108.07 13.9L109.27 14.12L109.2 14.53L105.31 13.83L105.38 13.42L106.56 13.63L107.46 8.63998C107.67 7.45998 107.49 6.90998 106.6 6.74998C105.39 6.52998 104.27 7.41998 104.01 8.86998L103.26 13.05L104.46 13.26L104.39 13.67L100.5 12.97L100.57 12.56L101.75 12.77L102.63 7.85998C102.85 6.61998 102.68 6.04998 101.78 5.88998C100.57 5.66998 99.45 6.55998 99.19 8.00998L98.44 12.18L99.64 12.39L99.57 12.8L95.68 12.1L95.75 11.69L96.93 11.9L98.13 5.21998L96.95 5.00998L97.02 4.59998L99.71 5.07998H99.7Z" fill="#C8B59E"/>
<path d="M114.98 12.21L115.28 11.08C115.65 9.66995 115.56 8.66995 114.28 8.33995C113.68 8.17995 113 8.18995 112.86 8.70995C112.84 8.76995 112.84 8.84995 112.83 8.92995L113.26 9.03995C113.28 9.25995 113.28 9.46995 113.22 9.66995C113.07 10.23 112.62 10.46 112.11 10.32C111.6 10.19 111.41 9.71995 111.56 9.12995C111.86 7.98995 113.27 7.65995 114.71 8.03995C116.57 8.52995 117.28 9.45995 116.7 11.69L115.88 14.83C115.71 15.46 115.84 15.73 116.18 15.82C116.57 15.92 116.84 15.76 117.26 14.55L117.61 14.67C117.14 16.2 116.51 16.71 115.44 16.43C114.62 16.21 114.23 15.7 114.31 14.94C113.74 15.55 112.83 15.74 111.87 15.49C110.71 15.19 109.84 14.46 110.19 13.13C110.6 11.57 112.09 11.43 114.06 11.94L114.99 12.18L114.98 12.21ZM114.52 13.96L114.88 12.6L114.31 12.45C112.72 12.03 112.03 12.65 111.79 13.56C111.59 14.32 111.81 14.87 112.57 15.07C113.37 15.28 114.28 14.91 114.53 13.96H114.52Z" fill="#C8B59E"/>
<path d="M121.36 13.56L120.17 17.28L121.78 17.8L121.65 18.19L117.43 16.84L117.56 16.44L118.7 16.81L120.77 10.35L119.63 9.97996L119.76 9.57996L122.36 10.41L121.89 11.87C122.54 10.89 123.41 10.58 124.28 10.85C125.22 11.15 125.63 11.92 125.37 12.73C125.09 13.61 124.52 13.77 124.01 13.61C123.49 13.44 123.27 12.99 123.46 12.38C123.5 12.24 123.56 12.11 123.64 11.98L124.11 12.13C124.17 12.05 124.2 11.96 124.22 11.9C124.32 11.58 124.1 11.44 123.85 11.36C122.97 11.08 121.78 12.17 121.34 13.55L121.36 13.56Z" fill="#C8B59E"/>
<path d="M127.94 15.8299L126.57 19.4899L128.16 20.0799L128.01 20.4699L123.86 18.9199L124.01 18.5299L125.13 18.9499L127.5 12.5999L126.38 12.1799L126.53 11.7899L129.09 12.7499L128.55 14.1899C129.25 13.2399 130.13 12.9699 130.99 13.2899C131.92 13.6399 132.29 14.4299 131.99 15.2199C131.66 16.0899 131.09 16.2199 130.59 16.0299C130.08 15.8399 129.88 15.3699 130.1 14.7699C130.15 14.6399 130.22 14.5099 130.3 14.3799L130.76 14.5499C130.82 14.4699 130.86 14.3799 130.88 14.3199C131 13.9999 130.78 13.8599 130.54 13.7699C129.67 13.4499 128.43 14.4799 127.92 15.8299H127.94Z" fill="#C8B59E"/>
<path d="M135.69 15.38L132.89 22.01L134.01 22.48L133.85 22.86L130.21 21.32L130.37 20.94L131.48 21.4L134.11 15.15L133 14.68L133.16 14.3L135.68 15.36L135.69 15.38ZM136.25 11.75C136.77 11.97 137.04 12.38 136.78 13C136.56 13.53 136.09 13.77 135.52 13.53C134.84 13.24 134.81 12.69 135 12.25C135.2 11.78 135.68 11.51 136.25 11.75Z" fill="#C8B59E"/>
<path d="M141.25 17.71C143.07 18.57 143.46 20.12 142.34 22.26L137.85 20.14L137.75 20.34C136.76 22.42 136.72 23.75 138.3 24.5C139.47 25.05 140.47 24.62 141.18 23.7L141.57 23.96C140.76 25.03 139.56 25.7 137.72 24.83C135.49 23.77 135.16 21.9 136.16 19.79C137.36 17.26 139.33 16.81 141.25 17.72V17.71ZM141.07 21.19C141.9 19.65 142.05 18.52 140.95 18C139.88 17.49 138.93 18.16 138.04 19.76L141.06 21.19H141.07Z" fill="#C8B59E"/>
<path d="M146.9 28.01C146.06 28.48 145.14 28.63 144.03 28.01C142.37 27.1 141.93 25.38 143.18 23.11C144.46 20.78 146.28 20.19 148.09 21.19C149.07 21.73 149.46 22.45 149.51 23.25L151.88 18.93L150.56 18.21L150.76 17.85L153.43 19.31L147.85 29.47L148.99 30.09L148.79 30.46L146.42 29.16L146.9 28.02V28.01ZM147.65 26.74L148.86 24.54C149.28 23.77 149.18 22.36 148.09 21.76C146.88 21.1 145.81 21.82 144.69 23.87C143.7 25.67 143.4 26.98 144.64 27.66C145.62 28.2 147.01 27.94 147.66 26.75L147.65 26.74Z" fill="#C8B59E"/>
</g>
<defs>
<clipPath id="clip0_244_291">
<rect width="153.43" height="30.46" fill="white"/>
</clipPath>
</defs>
</svg>
