<svg width="73" height="17" viewBox="0 0 73 17" fill="none" xmlns="http://www.w3.org/2000/svg">
<path d="M8.31135 13.7712L7.53135 11.2112L6.34135 11.5812L6.20135 11.1412L10.4114 9.86122L10.5514 10.3012L9.75135 10.5412L10.9413 14.4412L10.6514 14.5312C10.4713 14.3312 10.2914 14.2212 9.92135 14.3312C9.37135 14.5012 8.42135 15.3912 7.09135 15.8012C3.97135 16.7512 1.50135 15.6812 0.36135 11.9512C-0.76865 8.25122 0.85135 5.64122 3.83135 4.73122C5.21135 4.31122 6.23135 4.52122 6.73135 4.36122C6.96135 4.29122 6.97135 4.17122 6.99135 3.95122L7.26135 3.87122L8.36135 7.08122L8.01135 7.19122C6.88135 5.58122 5.51135 4.74122 4.01135 5.20122C2.22135 5.75122 1.63135 7.40122 2.78135 11.1612C3.79135 14.4812 5.25135 15.8512 7.05135 15.2912C8.00135 15.0012 8.34135 14.4812 8.31135 13.7712Z" fill="white"/>
<path d="M18.0114 7.36125L18.8014 12.3713L20.1414 12.1613L20.2114 12.6213L15.3114 13.4013L15.2414 12.9413L16.4214 12.7513L14.8114 2.61125L13.6214 2.80125L13.5514 2.34125L17.8114 1.66125C20.6714 1.21125 22.4914 1.27125 22.8614 3.56125C23.1614 5.47125 22.1214 6.27125 20.3814 6.69125V6.74125C22.2414 6.67125 23.0714 7.21125 23.3614 9.04125L23.5314 10.1113C23.6614 10.9113 23.7714 11.3013 24.2914 11.2213C24.7214 11.1513 24.7814 10.8413 24.8214 9.68125L25.2014 9.70125C25.2014 11.0613 25.1114 12.0013 23.5814 12.2413C21.8914 12.5113 21.3014 11.9413 21.0214 10.1913L20.7614 8.56125C20.6014 7.53125 20.1114 7.03125 18.9414 7.21125L17.9914 7.36125H18.0114ZM17.9414 6.90125L18.3714 6.83125C20.0014 6.57125 20.6414 5.79125 20.3414 3.96125C20.0414 2.13125 19.2214 1.90125 17.6714 2.15125L17.2014 2.23125L17.9414 6.91125V6.90125Z" fill="white"/>
<path d="M34.0813 0.0012634C37.3313 -0.0587366 39.1913 2.02126 39.2613 5.62126C39.3313 9.22126 37.6413 11.4813 34.1313 11.5413C30.7213 11.6013 28.9413 9.57126 28.8813 5.99126C28.8113 2.37126 30.7713 0.0612634 34.0813 0.0012634ZM34.0113 0.501263C31.6713 0.541263 31.3713 2.44126 31.4413 5.92126C31.5013 9.07126 31.9213 11.0813 34.1913 11.0413C36.3713 11.0013 36.7513 9.17126 36.6913 5.71126C36.6313 2.28126 36.2713 0.451263 34.0213 0.491263L34.0113 0.501263Z" fill="white"/>
<path d="M50.1714 0.88132C53.3913 1.29132 54.9413 3.61132 54.4914 7.19132C54.0414 10.7613 52.0414 12.7513 48.5714 12.3113C45.1914 11.8813 43.7213 9.62132 44.1613 6.06132C44.6113 2.47132 46.8814 0.47132 50.1714 0.88132ZM50.0314 1.36132C47.7114 1.07132 47.1413 2.90132 46.7013 6.36132C46.3013 9.49132 46.4314 11.5413 48.6914 11.8213C50.8514 12.0913 51.4913 10.3313 51.9313 6.90132C52.3613 3.50132 52.2714 1.63132 50.0314 1.35132V1.36132Z" fill="white"/>
<path d="M72.8114 6.22122L72.6814 6.67122L71.6814 6.38122L68.8514 16.2512L69.8514 16.5412L69.7214 16.9912L65.4214 15.7512L65.5514 15.3012L66.5514 15.5912L69.3214 5.95122L69.2614 5.93122L63.5714 15.2112L62.3114 14.8512L62.1514 3.87122L62.0914 3.85122L59.3214 13.5112L60.3214 13.8012L60.1914 14.2512L57.6514 13.5212L57.7814 13.0712L58.7814 13.3612L61.6114 3.49122L60.6114 3.20122L60.7414 2.75122L64.5214 3.84122L64.5914 12.5312L69.1014 5.15122L72.8214 6.22122H72.8114Z" fill="white"/>
</svg>
