<svg width="121" height="28" viewBox="0 0 121 28" fill="none" xmlns="http://www.w3.org/2000/svg">
<path d="M3.8 15.52L4.05 15.91L3.17 16.46L8.6 25.17L9.48 24.62L9.73 25.01L5.93 27.38L5.68 26.99L6.56 26.44L1.13 17.73L0.25 18.28L0 17.89L3.8 15.52Z" fill="#C8B59E"/>
<path d="M21.36 19.13L20.07 19.74L10.15 12.93L14.4 21.86L15.34 21.41L15.54 21.83L13.16 22.96L12.96 22.54L13.9 22.09L9.48997 12.81L8.54998 13.26L8.34998 12.84L11.85 11.18L19.49 16.47L16.23 9.61001L15.29 10.06L15.09 9.64001L17.47 8.51001L17.67 8.93001L16.73 9.38001L21.37 19.13H21.36Z" fill="#C8B59E"/>
<path d="M30.8999 4.4L29.6199 4.8L29.4799 4.36L32.2299 3.5L32.3699 3.94L31.4999 4.21L30.9899 15.7L30.1499 15.96L23.1099 6.85L22.2099 7.13L22.0699 6.69L26.7099 5.23L26.8499 5.67L25.5799 6.07L30.5599 12.84L30.9099 4.39L30.8999 4.4Z" fill="#C8B59E"/>
<path d="M41.27 1.63L41.36 2.09L40.34 2.29L42.31 12.37L43.33 12.17L43.42 12.63L39.02 13.49L38.93 13.03L39.95 12.83L37.98 2.75L36.96 2.95L36.87 2.49L41.27 1.63Z" fill="#C8B59E"/>
<path d="M56.16 3.58L55.76 3.61C54.94 1.08 54.24 0.58 52.55 0.72L52.34 0.74L53.21 10.97L54.66 10.85L54.7 11.31L49.43 11.76L49.39 11.3L50.84 11.18L49.97 0.95L49.75 0.97C48.06 1.11 47.44 1.79 47.08 4.36L46.66 4.4L46.52 0.78L55.7 0L56.16 3.59V3.58Z" fill="#C8B59E"/>
<path d="M65.03 7.54001L61.66 7.42001L60.37 10.64L61.63 10.69L61.61 11.15L58.78 11.05L58.8 10.59L59.74 10.62L64.15 0.0100098L65.05 0.0400098L68.61 10.93L69.57 10.97L69.55 11.43L64.77 11.26L64.79 10.8L66.02 10.84L65.04 7.54001H65.03ZM61.83 6.96001L64.9 7.07001L63.57 2.75001L61.83 6.96001Z" fill="#C8B59E"/>
<path d="M82.18 5.66999L81.78 5.60999C81.59 2.94999 81.03 2.3 79.35 2.03L79.14 2L77.53 12.15L78.97 12.38L78.9 12.84L73.67 12.01L73.74 11.55L75.18 11.78L76.79 1.63L76.57 1.59C74.89 1.32 74.13 1.82999 73.17 4.24L72.76 4.16999L73.49 0.619995L82.59 2.07L82.18 5.66999Z" fill="#C8B59E"/>
<path d="M91.96 4.45998L91.84 4.90998L90.84 4.63998L88.15 14.55L89.15 14.82L89.03 15.27L84.71 14.1L84.83 13.65L85.83 13.92L88.52 4.00998L87.52 3.73998L87.64 3.28998L91.96 4.46998V4.45998Z" fill="#C8B59E"/>
<path d="M102.14 7.84001C105.15 9.05001 106.06 11.69 104.72 15.03C103.38 18.37 100.95 19.79 97.7 18.49C94.54 17.22 93.69 14.66 95.02 11.33C96.37 7.97001 99.07 6.61001 102.14 7.84001ZM101.88 8.27001C99.71 7.40001 98.7 9.03001 97.4 12.26C96.23 15.18 95.83 17.2 97.94 18.04C99.96 18.85 101.02 17.31 102.31 14.11C103.58 10.93 103.97 9.11001 101.88 8.27001Z" fill="#C8B59E"/>
<path d="M113.96 26.62L112.73 25.91V13.88L107.77 22.44L108.67 22.96L108.44 23.36L106.16 22.04L106.39 21.64L107.29 22.16L112.44 13.27L111.54 12.75L111.77 12.35L115.12 14.29L115.08 23.58L118.89 17L117.99 16.48L118.22 16.08L120.5 17.4L120.27 17.8L119.37 17.28L113.96 26.62Z" fill="#C8B59E"/>
</svg>
