<svg width="105" height="24" viewBox="0 0 105 24" fill="none" xmlns="http://www.w3.org/2000/svg">
<path d="M4.66 10.82L4.86 11.24L3.34 11.99L7.85 21.22L8.66 20.83C10.6 19.88 10.92 18.57 10.55 16.34L10.91 16.16L12.32 19.55L4.91 23.17L4.71 22.75L5.7 22.26L1.19 13.04L0.2 13.52L0 13.1L4.67 10.82H4.66Z" fill="#C8B59E"/>
<path d="M17.4301 5.49999C20.5101 4.46999 22.9101 5.89999 24.0501 9.30999C25.1901 12.72 24.2501 15.38 20.9301 16.49C17.7001 17.57 15.3901 16.16 14.2501 12.76C13.1101 9.32999 14.2901 6.53999 17.4301 5.48999V5.49999ZM17.5101 5.99999C15.2901 6.73999 15.5701 8.63999 16.6801 11.95C17.6801 14.94 18.6801 16.73 20.8301 16.01C22.8901 15.32 22.7101 13.46 21.6201 10.18C20.5401 6.92999 19.6501 5.28999 17.5101 5.99999Z" fill="#C8B59E"/>
<path d="M31.3299 7.71003C31.9499 11.13 33.2599 12.74 35.2599 12.38C36.7599 12.11 37.6099 10.81 37.8799 8.68003L38.2099 8.62003L38.7299 12.07L38.4899 12.11C38.3699 11.92 38.2599 11.83 38.0399 11.87C37.5399 11.96 36.6299 12.63 35.0899 12.91C31.8799 13.5 29.5499 12.15 28.8399 8.26003C28.1499 4.50003 30.0099 2.11003 33.0599 1.55003C34.5099 1.29003 35.4999 1.61003 36.0099 1.51003C36.2499 1.47003 36.2899 1.34003 36.3299 1.13003L36.5699 1.09003L37.3099 4.40003L36.9599 4.46003C35.9899 2.62003 34.8199 1.73003 33.2699 2.01003C31.3999 2.35003 30.6199 3.89003 31.3199 7.70003L31.3299 7.71003Z" fill="#C8B59E"/>
<path d="M48.3299 7.58L44.9599 7.74L43.9499 11.05L45.2099 10.99L45.2299 11.45L42.3999 11.58L42.3799 11.12L43.3199 11.08L46.8299 0.159995L47.7299 0.119995L52.1799 10.67L53.1399 10.63L53.1599 11.09L48.3799 11.31L48.3599 10.85L49.5899 10.79L48.3399 7.58H48.3299ZM45.0999 7.27L48.1699 7.13L46.4799 2.93L45.0999 7.27Z" fill="#C8B59E"/>
<path d="M65.25 4.3L64.85 4.27C64.44 1.64 63.82 1.04 62.13 0.91L61.92 0.89L61.16 11.13L62.61 11.24L62.58 11.7L57.3 11.31L57.33 10.85L58.78 10.96L59.54 0.72L59.32 0.7C57.63 0.58 56.91 1.15 56.15 3.62L55.73 3.59L56.16 0L65.35 0.68L65.24 4.3H65.25Z" fill="#C8B59E"/>
<path d="M74.92 2.27997L74.84 2.73997L73.82 2.54997L71.96 12.66L72.98 12.85L72.9 13.31L68.49 12.5L68.57 12.04L69.59 12.23L71.45 2.11997L70.43 1.92997L70.51 1.46997L74.92 2.27997Z" fill="#C8B59E"/>
<path d="M85.3199 4.79001C88.4199 5.74001 89.5499 8.30001 88.4899 11.74C87.4299 15.18 85.1299 16.8 81.7799 15.77C78.5199 14.77 77.4599 12.29 78.5099 8.86001C79.5699 5.40001 82.1499 3.82001 85.3099 4.79001H85.3199ZM85.0999 5.24001C82.8699 4.55001 81.9899 6.26001 80.9699 9.59001C80.0399 12.6 79.8199 14.64 81.9899 15.31C84.0699 15.95 84.9999 14.33 86.0199 11.02C87.0199 7.75001 87.2599 5.90001 85.0999 5.23001V5.24001Z" fill="#C8B59E"/>
<path d="M98.7 22.51L97.41 21.9L96.39 9.90001L92.18 18.85L93.12 19.29L92.92 19.71L90.53 18.59L90.73 18.17L91.67 18.61L96.05 9.31001L95.11 8.87001L95.31 8.45001L98.81 10.1L99.56 19.37L102.8 12.49L101.86 12.05L102.06 11.63L104.45 12.75L104.25 13.17L103.31 12.73L98.71 22.5L98.7 22.51Z" fill="#C8B59E"/>
</svg>
