<svg width="96" height="22" viewBox="0 0 96 22" fill="none" xmlns="http://www.w3.org/2000/svg">
<path d="M5.75998 15.14L7.75998 19.8L9.00998 19.26L9.18998 19.69L4.62998 21.65L4.44998 21.22L5.54998 20.75L1.50998 11.31L0.40998 11.78L0.22998 11.35L4.19998 9.64996C6.85998 8.50996 8.64998 8.11996 9.55998 10.26C10.32 12.04 9.50998 13.07 7.91998 13.91L7.93998 13.95C9.71998 13.43 10.65 13.74 11.39 15.45L11.82 16.45C12.14 17.2 12.34 17.55 12.83 17.34C13.23 17.17 13.21 16.85 12.97 15.71L13.34 15.64C13.68 16.96 13.82 17.89 12.39 18.5C10.82 19.18 10.1 18.77 9.39998 17.14L8.74998 15.63C8.33998 14.67 7.74998 14.3 6.65998 14.77L5.77998 15.15L5.75998 15.14ZM5.57998 14.71L5.97998 14.54C7.48998 13.89 7.91998 12.97 7.18998 11.27C6.45998 9.55996 5.59998 9.54996 4.15998 10.17L3.71998 10.36L5.58998 14.71H5.57998Z" fill="#C8B59E"/>
<path d="M22.3697 3.45996L23.3497 6.38996L22.9997 6.48996C21.8697 4.52996 20.8897 4.34996 19.0097 4.87996L17.9897 5.15996L19.2697 9.76996L19.9297 9.58996C21.0397 9.27996 21.3297 8.54996 21.1997 7.10996L21.5397 7.01996L22.8097 11.58L22.4397 11.68C21.6897 10.16 21.1297 9.78996 19.9197 10.13L19.4097 10.27L20.7497 15.06L21.8397 14.76C23.9397 14.18 24.7197 12.93 24.5897 10.94L24.9097 10.85L25.7197 14.16L17.4897 16.45L17.3697 16L18.4297 15.7L15.6697 5.80996L14.6097 6.10996L14.4897 5.65996L22.3597 3.45996H22.3697Z" fill="#C8B59E"/>
<path d="M36.5701 10.85L36.2001 8.19997L34.9601 8.36997L34.9001 7.90997L39.2601 7.29997L39.3201 7.75997L38.5001 7.87997L39.0701 11.92L38.7701 11.96C38.6301 11.74 38.4601 11.6 38.0801 11.65C37.5101 11.73 36.4301 12.46 35.0601 12.66C31.8301 13.11 29.5601 11.67 29.0201 7.80997C28.4801 3.97997 30.4801 1.65997 33.5701 1.22997C34.9901 1.02997 35.9701 1.38997 36.4901 1.31997C36.7301 1.28997 36.7601 1.16997 36.8101 0.949973L37.1001 0.909973L37.6801 4.24997L37.3201 4.29997C36.4601 2.52997 35.2301 1.48997 33.6801 1.70997C31.8301 1.96997 30.9901 3.50997 31.5401 7.40997C32.0201 10.85 33.2401 12.42 35.1101 12.16C36.0901 12.02 36.5101 11.56 36.5901 10.85H36.5701Z" fill="#C8B59E"/>
<path d="M49.09 7.83998H45.71L44.55 11.12H45.81V11.58H42.98V11.13H43.92L47.92 0.349976H48.82L52.81 11.09H53.77V11.55L48.99 11.57V11.11H50.22L49.11 7.84998L49.09 7.83998ZM45.87 7.38998H48.94L47.44 3.10998L45.87 7.38998Z" fill="#C8B59E"/>
<path d="M61.35 6.78L60.67 11.81L62.02 11.99L61.96 12.45L57.04 11.79L57.1 11.33L58.29 11.49L59.66 1.31L58.47 1.15L58.53 0.690002L62.81 1.27C65.68 1.66 67.41 2.24 67.1 4.54C66.84 6.46 65.62 6.92 63.82 6.83V6.88C65.61 7.35 66.25 8.1 66 9.94L65.85 11.02C65.74 11.83 65.74 12.23 66.26 12.3C66.69 12.36 66.84 12.07 67.21 10.97L67.56 11.1C67.18 12.4 66.81 13.28 65.28 13.07C63.58 12.84 63.18 12.12 63.42 10.36L63.64 8.73C63.78 7.7 63.46 7.08 62.29 6.92L61.34 6.79L61.35 6.78ZM61.41 6.32L61.84 6.38C63.47 6.6 64.31 6.03 64.56 4.19C64.81 2.35 64.08 1.9 62.52 1.69L62.04 1.63L61.41 6.33V6.32Z" fill="#C8B59E"/>
<path d="M74.5502 14.9399L70.6802 13.8499L70.8102 13.3999L71.9802 13.7299L74.7702 3.84995L73.6002 3.51995L73.7302 3.06995L78.0302 4.27995C81.8002 5.34995 83.5902 7.32995 82.5002 11.1599C81.2702 15.4999 78.2002 15.9599 74.5502 14.9299V14.9399ZM74.9202 14.5599C77.4902 15.2899 78.9802 14.0799 79.9902 10.4899C81.1002 6.54995 80.1302 5.35995 77.4602 4.60995L77.0902 4.50995L74.3002 14.3899L74.9202 14.5599Z" fill="#C8B59E"/>
<path d="M91.6797 18.72C92.2597 17.38 91.3798 16.64 89.7598 15.33C88.2198 14.1 87.2997 13.01 88.1797 10.97C88.8597 9.39998 90.6198 8.34998 92.7998 9.28998C94.0298 9.81998 94.5697 10.6 95.0297 10.79C95.2497 10.89 95.3498 10.81 95.5198 10.66L95.7698 10.77L94.5898 13.78L94.2698 13.64C94.3698 11.8 94.0898 10.39 92.4798 9.68998C91.2798 9.16998 90.2497 9.52998 89.8597 10.44C89.3697 11.57 90.2697 12.4 91.4997 13.38C92.9197 14.5 94.4198 15.74 93.3997 18.09C92.5397 20.09 90.6098 20.91 88.4498 19.98C87.0498 19.38 86.2598 18.51 85.8398 18.33C85.6498 18.25 85.5098 18.38 85.2698 18.61L84.9897 18.49L86.3197 15L86.6397 15.14C86.4897 17.05 86.9698 18.81 88.6998 19.56C89.9198 20.09 91.1998 19.86 91.6898 18.74L91.6797 18.72Z" fill="#C8B59E"/>
</svg>
