<svg width="101" height="25" viewBox="0 0 101 25" fill="none" xmlns="http://www.w3.org/2000/svg">
<g clip-path="url(#clip0_633_75)">
<path d="M6.64023 12.14C6.70023 12.06 6.83023 12.01 6.93023 12.01C7.21023 12.01 7.74023 12.03 7.98023 12.07C8.07023 12.08 8.11023 12.14 8.12023 12.27L8.21023 12.99C8.71023 14.23 9.23023 15.79 9.58023 17.03L9.91023 17.05C10.0102 17.05 10.0802 17.1 10.1202 17.2C10.2502 17.5 10.2902 17.83 10.2202 17.99L5.95023 19.95C6.00023 20.21 5.98023 20.46 5.93023 20.73L5.04023 21.13C4.81023 20.87 4.56023 20.49 4.37023 20.15L2.02023 15.61C1.78023 15.49 1.42023 15.43 1.08023 15.45L0.990234 14.98C0.990234 14.91 1.02023 14.87 1.13023 14.82C1.68023 14.58 2.71023 14.2 3.32023 14.05C4.01023 13.76 5.49023 13.09 6.16023 12.72L6.63023 12.15L6.64023 12.14ZM5.55023 18.93C6.26023 18.63 7.37023 18.12 7.97023 17.82L8.21023 17.61L6.52023 13.73C5.66023 14.11 4.61023 14.6 3.78023 14.98L5.56023 18.92L5.55023 18.93ZM13.3202 12.73C13.7102 12.54 14.3102 12.31 14.5802 12.25C14.7602 12.22 14.9302 12.29 15.0102 12.44C15.1702 12.73 15.2202 13.07 15.1602 13.23C15.1202 13.36 14.9702 13.5 14.8302 13.56L12.7002 14.56L14.0502 17.6C14.4502 18.51 15.0102 20.28 15.1002 21.36L14.2102 21.76C13.8902 21.29 12.9802 19.45 12.7002 18.8L8.76023 9.94004C8.41023 9.72004 7.86023 9.60004 7.28023 9.63004L7.23023 9.08004C7.23023 9.01004 7.26023 8.95004 7.39023 8.89004C8.05023 8.63004 9.19023 8.37004 9.78023 8.35004C9.96023 8.35004 10.0702 8.45004 10.1502 8.63004L10.4502 9.50004L12.2702 13.6L13.0102 13.22L13.3202 12.74V12.73Z" fill="#C8B59E"/>
<path d="M28.1402 9.28002C28.7602 9.14002 29.6602 9.02002 30.0602 9.06002C30.2202 9.06002 30.3502 9.15002 30.3902 9.31002C30.4902 9.67002 30.3302 10.07 30.1702 10.23C29.7802 10.29 28.7802 10.54 28.3102 10.66C27.3102 10.92 21.3402 12.64 20.5002 12.93C20.1202 13.07 19.2902 13.45 18.9302 13.67C18.2902 13.61 17.5302 13.35 17.0302 13.09C16.9602 13.05 16.9202 12.98 16.9302 12.9L16.9902 12.62C17.5802 12.55 18.3502 12.4 18.8902 12.27C19.8502 12.02 26.5902 10.09 27.5902 9.72002L28.1402 9.27002V9.28002ZM19.1302 8.40002C18.7102 6.87002 19.8002 5.34002 21.8802 4.76002C23.9602 4.19002 25.6802 4.94002 26.1002 6.48002C26.5302 8.03002 25.4402 9.56002 23.3502 10.13C21.2702 10.7 19.5502 9.95002 19.1202 8.40002H19.1302ZM26.9202 12.09C27.0002 12.02 27.1102 11.99 27.2202 12.01C27.4602 12.05 27.9702 12.13 28.1602 12.2C28.2402 12.22 28.2602 12.3 28.2602 12.41L28.2402 13.12C28.3602 13.83 28.4402 14.64 28.4702 15.36L28.8002 15.44C28.9002 15.47 28.9802 15.53 29.0102 15.63C29.1002 15.96 29.0502 16.3 28.9602 16.45L23.6302 17.96C23.6302 18.15 23.5702 18.32 23.4802 18.5L22.5502 18.75C22.3602 18.52 22.1802 18.2 22.0602 17.87L21.0302 15.04C20.8002 14.89 20.4202 14.76 20.0702 14.73V14.25C20.0702 14.19 20.1102 14.14 20.2102 14.12C20.7702 13.96 21.8502 13.75 22.4502 13.67C23.3402 13.41 25.5102 12.78 26.3502 12.5L26.9002 12.08L26.9202 12.09ZM20.8102 7.93002C21.0802 8.93002 21.9902 9.35002 23.0602 9.05002C24.1202 8.76002 24.6802 7.93002 24.4102 6.93002C24.1402 5.95002 23.2302 5.51002 22.1702 5.80002C21.1002 6.09002 20.5402 6.93002 20.8102 7.92002V7.93002ZM23.4102 16.86C24.4102 16.6 25.9702 16.15 26.8102 15.86L27.0902 15.7L26.5602 13.62C25.3902 13.94 23.9202 14.38 22.8002 14.72L23.4002 16.86H23.4102Z" fill="#C8B59E"/>
<path d="M41.8401 6.72002C40.7501 8.02002 39.3701 9.23002 37.8301 10.16C37.7301 10.23 37.6401 10.23 37.5901 10.21L37.3201 9.98002C37.2601 9.92002 37.2401 9.88002 37.2901 9.79002C39.5101 7.91002 41.1401 5.48002 41.9101 3.37002C41.1501 3.41002 40.0701 3.51002 39.7701 3.56002C39.4701 3.60002 38.9101 3.75002 38.6201 3.89002C38.1401 3.70002 37.6201 3.36002 37.2501 3.06002C37.1901 2.99002 37.1701 2.93002 37.1901 2.87002L37.2901 2.65002C37.7601 2.69002 38.3501 2.67002 38.7601 2.65002C39.3001 2.61002 41.5701 2.41002 42.3001 2.32002L42.8901 2.00002C42.9901 1.95002 43.1301 1.94002 43.2301 1.97002C43.5101 2.05002 44.0501 2.24002 44.2501 2.33002C44.3301 2.38002 44.3501 2.49002 44.3001 2.58002L43.9801 3.16002C43.6401 4.06002 43.1301 4.99002 42.4901 5.88002L43.9801 7.06002L44.6701 7.22002C44.9501 7.51002 45.3001 8.01002 45.4401 8.29002C45.5601 8.52002 45.5901 8.68002 45.5401 8.81002C45.4401 9.07002 45.0601 9.27002 44.7901 9.20002C44.6501 9.16002 44.4901 9.04002 44.3601 8.93002L41.8101 6.73002L41.8401 6.72002ZM48.2401 12.49C48.7501 12.44 49.5001 12.44 49.8501 12.49C50.0201 12.52 50.1301 12.62 50.1401 12.78C50.1701 13.2 50.0601 13.51 49.9601 13.62C49.8901 13.69 49.7901 13.72 49.6701 13.73L43.2901 14.26C42.1701 14.35 41.7001 13.93 41.6301 13.03L41.4801 11.09C41.2301 10.9 40.8101 10.72 40.3901 10.62L40.4601 10.16C40.4601 10.08 40.5401 10.02 40.6701 10.01C41.3001 9.96002 42.4301 9.97002 42.9101 10.03C43.0901 10.06 43.1901 10.16 43.2101 10.37L43.2601 11.16L43.3901 12.84C43.4101 13.11 43.5201 13.22 43.7801 13.2C44.6801 13.15 46.7801 12.95 47.6601 12.86L48.2301 12.48L48.2401 12.49ZM43.9601 4.92002C44.3201 4.95002 44.7901 4.93002 45.1801 4.90002C45.5401 4.89002 46.2401 4.82002 46.8201 4.74002L46.5701 1.44002C46.3401 1.13002 45.8501 0.830023 45.3401 0.680023L45.4601 0.130023C45.4801 0.070023 45.5401 0.0200231 45.6901 0.0100231C46.3801 -0.00997695 47.5201 0.130023 48.0601 0.310023C48.2101 0.370023 48.3001 0.500023 48.3001 0.700023L48.3201 1.59002L48.7301 6.93002C48.8201 8.10002 48.7101 9.68002 48.4401 10.59L47.4501 10.67C47.2901 10.11 47.0901 8.32002 47.0301 7.59002L46.8901 5.74002C46.5201 5.78002 46.1301 5.83002 45.9401 5.87002C45.6901 5.91002 45.2801 6.06002 45.0501 6.18002C44.6101 5.96002 44.2101 5.66002 43.8901 5.37002C43.8301 5.30002 43.8101 5.24002 43.8501 5.16002L43.9701 4.94002L43.9601 4.92002Z" fill="#C8B59E"/>
<path d="M59.6904 3.81002C60.1504 3.87002 60.8004 4.01003 61.1004 4.14002C61.2004 4.19002 61.2704 4.30003 61.2604 4.44003C61.2304 4.80003 61.0104 5.13002 60.8404 5.22003C60.5704 5.16003 59.8004 5.10003 59.4404 5.07003C58.8704 5.02003 55.4104 4.84002 54.8504 4.85003C54.5304 4.85003 53.9704 4.91003 53.6804 4.98003C53.2304 4.71003 52.7704 4.28003 52.4604 3.91003C52.4004 3.85003 52.4104 3.79002 52.4404 3.73003L52.5604 3.53003C53.0504 3.64002 53.6904 3.73003 54.0604 3.76003C54.7004 3.82002 58.4804 4.01003 59.1404 4.02003L59.6804 3.82002L59.6904 3.81002ZM59.9204 8.56003C59.8004 10.21 58.2304 11.1 56.5304 10.98C54.8204 10.86 53.3804 9.75003 53.5004 8.10003C53.6204 6.45003 55.2004 5.53003 56.9104 5.65003C58.6204 5.77003 60.0404 6.91003 59.9204 8.56003ZM54.8604 1.23003C56.2204 1.57003 57.6804 1.73003 58.6604 1.79002C58.8404 1.80002 58.9304 1.84003 58.9904 1.98003C59.0904 2.21003 59.0204 2.77003 58.8304 2.93003C58.7504 3.00003 58.6604 3.01003 58.5204 3.00003C57.8604 2.95003 56.6804 2.91003 56.0304 2.91003C55.8304 2.91003 55.7304 2.89002 55.6204 2.81002C55.3204 2.56002 54.9404 2.05002 54.7104 1.62003C54.6704 1.53003 54.6804 1.47002 54.7104 1.41003L54.8604 1.24003V1.23003ZM58.2704 8.44002C58.3404 7.44002 57.6604 6.83003 56.8204 6.77003C55.9804 6.71003 55.2404 7.21003 55.1704 8.22003C55.1004 9.21003 55.7604 9.81002 56.6004 9.87002C57.4404 9.93003 58.2004 9.43002 58.2704 8.44002ZM64.8104 6.85003C65.2504 6.87003 65.8904 6.94003 66.1504 7.02003C66.3304 7.08003 66.4404 7.22003 66.4404 7.39003C66.4404 7.72003 66.3304 8.04003 66.2104 8.16003C66.1104 8.26003 65.9204 8.29002 65.7704 8.28002L63.4204 8.17003L63.2104 11.1C63.1404 12.09 62.8004 13.91 62.3704 14.9L61.4004 14.83C61.3304 14.27 61.4004 12.21 61.4604 11.51L62.1504 1.84003C61.9504 1.48003 61.5104 1.12003 60.9904 0.870025L61.2104 0.360025C61.2404 0.300025 61.2904 0.260025 61.4404 0.270025C62.1404 0.350025 63.2804 0.660025 63.8004 0.920025C63.9604 1.01003 64.0104 1.15003 64.0004 1.34003L63.8604 2.25003L63.5104 7.11003H64.3404L64.8404 6.84003L64.8104 6.85003Z" fill="#C8B59E"/>
<path d="M73.46 7.06001C72.23 8.09001 70.61 8.96002 68.77 9.47002C68.67 9.51002 68.6 9.49002 68.55 9.42001L68.34 9.13001C68.29 9.07001 68.32 9.00001 68.41 8.95001C70.74 7.75001 72.56 6.06001 73.47 4.34001C73.39 4.03001 73.11 3.66001 72.81 3.39001L73.15 2.99001C73.19 2.94001 73.25 2.94001 73.38 2.99001C73.99 3.20001 74.98 3.75001 75.32 4.05001C75.47 4.16001 75.54 4.31001 75.51 4.44001C75.47 4.60001 75.41 4.74001 75.35 4.82001C75.07 5.33001 74.71 5.83001 74.27 6.30001L75.48 7.84001L76.21 8.22002C76.4 8.60002 76.64 9.18001 76.73 9.49001C76.81 9.77001 76.8 9.95001 76.71 10.07C76.57 10.3 76.14 10.4 75.89 10.29C75.77 10.22 75.62 10.06 75.51 9.91001L73.47 7.06001H73.46ZM77.65 16.02C78.11 16.11 78.75 16.31 79.06 16.46C79.21 16.54 79.27 16.68 79.24 16.82C79.16 17.19 79 17.43 78.89 17.49C78.8 17.55 78.71 17.54 78.61 17.52L72.09 16.11H72.08C71.15 15.88 70.87 15.45 71.04 14.69L71.32 13.45C71.18 13.2 70.9 12.97 70.59 12.79L70.73 12.42C70.73 12.42 70.82 12.35 70.93 12.37C71.47 12.49 72.77 12.81 73.25 12.98C74.07 13.16 76.23 13.61 76.82 13.72H77.13C77.22 13.43 77.36 12.8 77.41 12.54C76.44 12.32 74.23 11.86 73.71 11.78C73.37 11.72 72.77 11.68 72.35 11.69C71.9 11.34 71.52 10.89 71.22 10.47C71.17 10.4 71.18 10.35 71.22 10.28L71.38 10.1C71.8 10.27 72.51 10.49 72.87 10.57C73.6 10.73 77.03 11.47 77.88 11.63L78.51 11.51C78.59 11.48 78.7 11.51 78.79 11.57C78.99 11.69 79.37 11.98 79.54 12.12C79.59 12.18 79.58 12.27 79.51 12.38L79.16 12.83C79.05 13.19 78.76 13.8 78.57 14.08L78.8 14.27C78.88 14.32 78.91 14.4 78.89 14.49C78.83 14.75 78.67 14.98 78.56 15.06L73.01 13.9L72.79 14.9C72.74 15.1 72.81 15.21 72.99 15.25C74 15.49 76.24 15.97 77.16 16.13L77.66 16.01L77.65 16.02ZM79.31 4.80001C79.18 4.43001 78.81 4.01001 78.35 3.71001L78.64 3.22001C78.67 3.17001 78.74 3.13001 78.88 3.17001C79.55 3.35001 80.61 3.82001 81.06 4.15001C81.2 4.26001 81.23 4.40001 81.18 4.59001L80.94 5.44001L80.21 8.70001C80.03 9.49001 79.52 10.67 79.11 11.17L78.13 10.95C78.11 10.47 78.31 9.25001 78.43 8.73001L79.31 4.79001V4.80001Z" fill="#C8B59E"/>
<path d="M95.4604 22C95.6704 22.41 95.9304 23.02 96.0104 23.37C96.0804 23.65 96.0604 23.85 95.9904 23.98C95.8104 24.24 95.3804 24.33 95.1504 24.18C95.0104 24.12 94.8604 23.94 94.7504 23.78L92.3004 20.03C90.8304 20.66 88.9404 20.9 86.9804 20.69C86.8704 20.69 86.8104 20.67 86.7904 20.61L86.6704 20.21C86.6504 20.12 86.6704 20.06 86.7804 20.04C89.0204 19.78 90.9404 19.15 92.2004 18.18C92.2004 17.9 92.0204 17.51 91.7704 17.22L92.1504 16.91C92.2204 16.87 92.2804 16.87 92.4004 16.94C92.9704 17.27 93.7904 17.96 94.0504 18.32C94.1504 18.46 94.2004 18.61 94.1404 18.74C94.0604 18.92 93.9904 19.02 93.8904 19.09C93.6804 19.26 93.4704 19.41 93.2404 19.56L94.5904 21.4L95.4604 21.99V22ZM98.7304 17.36C99.2904 17.64 100.06 18.13 100.35 18.4C100.47 18.5 100.52 18.65 100.45 18.82C100.31 19.15 99.9304 19.36 99.7104 19.38C99.3704 19.18 98.4404 18.74 98.0004 18.55C97.0604 18.12 91.3404 15.69 90.5104 15.39C90.1304 15.26 89.2404 15.03 88.8204 14.98C88.3604 14.53 87.9304 13.87 87.7104 13.33C87.6804 13.25 87.7004 13.18 87.7504 13.12L87.9804 12.94C88.4704 13.27 89.1604 13.64 89.6704 13.86C90.0704 14.03 91.5504 14.69 93.1704 15.36L93.9004 13.65C93.8304 13.41 93.5804 13.03 93.3304 12.79L93.6304 12.4C93.6304 12.4 93.7204 12.34 93.8704 12.4C94.3704 12.62 95.3704 13.19 95.7104 13.47C95.8404 13.58 95.8404 13.69 95.7604 13.84L95.3304 14.59L94.6804 16.01C96.2004 16.65 97.5904 17.22 98.0204 17.36H98.7304ZM97.0604 15.68C96.9704 15.63 96.9604 15.54 97.0404 15.38C97.5404 14.68 98.1804 13.39 98.5004 12.55C97.3704 12.04 95.0604 11.06 94.4404 10.83C94.0604 10.7 93.3604 10.52 92.9604 10.47C92.5604 10.03 92.1804 9.44004 91.9804 8.94004C91.9404 8.84004 91.9504 8.78004 92.0104 8.72004L92.2404 8.54004C92.7004 8.84004 93.3204 9.18004 93.7704 9.38004C94.5004 9.70004 98.1304 11.25 99.0804 11.61H99.8504C99.9604 11.61 100.07 11.67 100.14 11.75C100.35 11.94 100.72 12.38 100.86 12.57C100.89 12.65 100.87 12.72 100.79 12.8L100.26 13.3C99.7104 14.26 98.6904 15.39 97.8504 15.98C97.7404 16.05 97.6404 16.05 97.5404 16.01L97.0704 15.67L97.0604 15.68Z" fill="#C8B59E"/>
</g>
<defs>
<clipPath id="clip0_633_75">
<rect width="101" height="25" fill="white"/>
</clipPath>
</defs>
</svg>
