<svg width="150" height="39" viewBox="0 0 150 39" fill="none" xmlns="http://www.w3.org/2000/svg">
<path d="M9.36361 32.48C8.40361 31.38 7.35361 31.86 5.48361 32.76C3.71361 33.63 2.33361 33.99 0.863612 32.32C-0.266388 31.03 -0.456388 28.99 1.32361 27.43C2.33361 26.55 3.26361 26.39 3.63361 26.06C3.81361 25.9 3.78361 25.77 3.72361 25.55L3.93361 25.37L6.14361 27.73L5.88361 27.96C4.26361 27.08 2.87361 26.73 1.54361 27.89C0.553612 28.75 0.443612 29.83 1.09361 30.58C1.90361 31.51 3.03361 31.05 4.45361 30.36C6.07361 29.56 7.83361 28.74 9.52361 30.66C10.9536 32.3 10.8736 34.39 9.10361 35.94C7.96361 36.94 6.83361 37.29 6.49361 37.59C6.33361 37.73 6.39361 37.91 6.49361 38.22L6.26361 38.42L3.68361 35.72L3.94361 35.49C5.60361 36.44 7.39361 36.76 8.81361 35.52C9.81361 34.64 10.1536 33.39 9.35361 32.47L9.36361 32.48Z" fill="#C8B59E"/>
<path d="M16.9936 25L14.2036 26.9L15.0736 30.26L16.1136 29.55L16.3736 29.93L14.0336 31.52L13.7736 31.14L14.5536 30.61L11.8236 19.46L12.5636 18.95L21.8736 25.62L22.6636 25.08L22.9236 25.46L18.9736 28.15L18.7136 27.77L19.7336 27.08L16.9836 25H16.9936ZM14.0736 26.42L16.6136 24.69L12.9836 21.99L14.0736 26.41V26.42Z" fill="#C8B59E"/>
<path d="M27.2136 11.08L26.0236 11.7L25.8136 11.29L28.3736 9.96997L28.5836 10.38L27.7736 10.8L29.2336 22.2L28.4536 22.6L19.9536 14.84L19.1136 15.27L18.9036 14.86L23.2236 12.63L23.4336 13.04L22.2536 13.65L28.3236 19.46L27.2136 11.08Z" fill="#C8B59E"/>
<path d="M40.5636 5.30999L41.7536 8.15999L41.4036 8.27999C40.1336 6.39999 39.1436 6.29999 37.3136 6.95999L36.3236 7.31999L37.9336 11.82L38.5836 11.59C39.6636 11.2 39.9136 10.45 39.6736 9.02999L40.0036 8.90999L41.6036 13.37L41.2436 13.5C40.3836 12.04 39.8036 11.71 38.6136 12.13L38.1136 12.31L39.7936 16.99L40.8636 16.61C42.9136 15.88 43.6036 14.57 43.3336 12.6L43.6536 12.48L44.6936 15.73L36.6536 18.61L36.4936 18.17L37.5336 17.8L34.0736 8.12999L33.0336 8.49999L32.8736 8.05999L40.5736 5.29999L40.5636 5.30999Z" fill="#C8B59E"/>
<path d="M63.0836 4.19L62.6836 4.25C61.6936 1.78 60.9636 1.32 59.2836 1.58L59.0736 1.61L60.6136 11.76L62.0536 11.54L62.1236 12L56.8836 12.79L56.8136 12.33L58.2536 12.11L56.7136 1.95L56.4936 1.99C54.8136 2.24 54.2436 2.96001 54.0536 5.55L53.6436 5.61L53.2636 2.01L62.3736 0.630005L63.0736 4.18L63.0836 4.19Z" fill="#C8B59E"/>
<path d="M72.3636 0.07V0.53L71.2636 0.54L71.3136 5.28L75.3936 5.23L75.3436 0.5H74.2436V0.05L78.8536 0V0.46L77.7536 0.47L77.8736 10.74H78.9736V11.19L74.3636 11.24V10.78L75.4636 10.77L75.4036 5.81L71.3236 5.86L71.3836 10.82H72.4836V11.27L67.8736 11.32V10.86L68.9736 10.85L68.8536 0.58H67.7536V0.13L72.3636 0.08V0.07Z" fill="#C8B59E"/>
<path d="M92.3036 1.41L92.0736 4.49L91.7036 4.44C91.4236 2.2 90.5936 1.65 88.6536 1.41L87.6036 1.28L87.0036 6.03L87.6836 6.12C88.8236 6.27 89.3836 5.71 89.8136 4.33L90.1636 4.37L89.5636 9.07L89.1836 9.02001C89.0736 7.33001 88.7136 6.77 87.4536 6.61L86.9336 6.54L86.3036 11.48L87.4336 11.62C89.5936 11.89 90.7936 11.05 91.4536 9.16L91.7836 9.2L91.2436 12.57L82.7636 11.49L82.8236 11.03L83.9136 11.17L85.2036 0.980005L84.1136 0.840005L84.1736 0.380005L92.2836 1.41H92.3036Z" fill="#C8B59E"/>
<path d="M105.214 16.04L101.404 14.75L101.554 14.31L102.704 14.7L105.984 4.96L104.834 4.57L104.984 4.13L109.214 5.56C112.934 6.81 114.614 8.88 113.344 12.66C111.904 16.94 108.804 17.25 105.214 16.04ZM105.604 15.68C108.134 16.54 109.684 15.4 110.874 11.87C112.184 7.99 111.264 6.75 108.644 5.86L108.284 5.74L105.004 15.48L105.614 15.69L105.604 15.68Z" fill="#C8B59E"/>
<path d="M120.994 18.48L117.964 16.99L115.474 19.4L116.604 19.96L116.404 20.38L113.864 19.13L114.074 18.71L114.924 19.13L123.284 11.26L124.084 11.66L122.874 23.05L123.734 23.48L123.524 23.9L119.234 21.78L119.444 21.36L120.544 21.9L120.994 18.49V18.48ZM118.314 16.64L121.074 18L121.624 13.51L118.314 16.64Z" fill="#C8B59E"/>
<path d="M137.394 23.81L137.064 23.59C137.974 21.09 137.734 20.26 136.314 19.33L136.144 19.22L130.504 27.81L131.724 28.61L131.464 29L127.034 26.09L127.284 25.7L128.504 26.5L134.144 17.91L133.954 17.79C132.534 16.86 131.634 17.01 129.764 18.81L129.414 18.58L131.534 15.64L139.244 20.7L137.394 23.81Z" fill="#C8B59E"/>
<path d="M149.774 29.31L147.884 31.76L147.604 31.52C148.614 29.49 148.214 28.58 146.734 27.31L145.934 26.62L142.814 30.25L143.334 30.7C144.204 31.45 144.974 31.29 146.104 30.38L146.374 30.61L143.284 34.2L142.994 33.95C143.834 32.48 143.844 31.81 142.884 30.99L142.484 30.65L139.234 34.42L140.094 35.16C141.744 36.58 143.214 36.54 144.804 35.33L145.054 35.55L142.744 38.06L136.264 32.48L136.564 32.13L137.404 32.85L144.114 25.07L143.274 24.35L143.574 24L149.774 29.34V29.31Z" fill="#C8B59E"/>
</svg>
