<svg width="79" height="32" viewBox="0 0 79 32" fill="none" xmlns="http://www.w3.org/2000/svg">
<path d="M8.5501 19.5957C8.5501 18.8757 7.96725 18.2843 7.23867 18.2843C6.5101 18.2843 5.92725 18.8672 5.92725 19.5957C5.92725 20.3243 6.5101 20.9072 7.23867 20.9072C7.96725 20.9072 8.5501 20.3243 8.5501 19.5957Z" fill="white"/>
<path d="M17.1901 20.9072C17.9101 20.9072 18.5015 20.3243 18.5015 19.5957C18.5015 18.8672 17.9187 18.2843 17.1901 18.2843C16.4615 18.2843 15.8787 18.8672 15.8787 19.5957C15.8787 20.3243 16.4615 20.9072 17.1901 20.9072Z" fill="white"/>
<path d="M19.4958 27.3957H21.45L18.39 24.07C20.1129 23.7185 21.4158 22.1842 21.4158 20.3585V8.39282C21.4158 6.30139 19.7186 4.60425 17.6272 4.60425H6.37291C4.28148 4.60425 2.58433 6.30139 2.58433 8.39282V20.3585C2.58433 22.1842 3.88719 23.7185 5.61005 24.07L2.55005 27.3957H4.50433L7.53005 24.1471H16.4786L19.5043 27.3957H19.4958ZM3.87005 14.89V9.87568H11.3529V14.89H3.87005ZM12.6386 9.87568H20.1215V14.89H12.6386V9.87568ZM6.37291 5.88996H17.6272C19.0072 5.88996 20.13 7.01282 20.13 8.39282V8.58996H3.87005V8.39282C3.87005 7.01282 4.99291 5.88996 6.37291 5.88996ZM3.87005 20.3585V16.1757H20.13V20.3585C20.13 21.7385 19.0072 22.8614 17.6272 22.8614H6.37291C4.99291 22.8614 3.87005 21.7385 3.87005 20.3585Z" fill="white"/>
<path d="M40.592 17.88L38.928 16.296C39.76 15.256 40.4 14.168 40.816 13.112L41.168 12.6C41.232 12.52 41.232 12.424 41.152 12.376C40.96 12.264 40.464 12.04 40.224 11.944C40.128 11.912 40 11.912 39.904 11.944L39.296 12.216C38.56 12.248 35.712 12.28 35.104 12.28C34.688 12.28 34.08 12.248 33.616 12.184L33.504 12.392C33.472 12.456 33.488 12.52 33.552 12.568C33.904 12.888 34.4 13.208 34.864 13.416C35.184 13.288 35.792 13.176 36.112 13.16C36.496 13.128 38 13.112 38.896 13.128C37.936 15.608 35.84 18.408 33.072 20.536C32.992 20.616 33.008 20.68 33.056 20.728L33.328 20.968C33.376 21 33.44 21 33.536 20.936C35.328 19.912 36.976 18.552 38.272 17.08L41.024 19.976C41.136 20.104 41.312 20.248 41.44 20.296C41.664 20.376 42.032 20.248 42.144 20.008C42.208 19.896 42.176 19.704 42.08 19.448C41.936 19.128 41.6 18.536 41.344 18.152L40.592 17.88ZM42.224 9.896C42.784 10.104 43.296 10.424 43.552 10.776V21.464C43.552 22.184 43.616 24.12 43.696 24.744H44.576C44.896 23.736 45.088 21.96 45.088 20.968V11.08L45.152 10.168C45.152 9.976 45.088 9.848 44.928 9.784C44.416 9.56 43.264 9.336 42.592 9.304C42.448 9.304 42.4 9.336 42.384 9.4L42.224 9.896ZM50.0131 10.984C49.9811 11.048 49.9811 11.096 50.0131 11.176C50.2851 11.592 50.7171 12.04 51.0531 12.248C51.1651 12.328 51.2611 12.344 51.4531 12.328C52.1571 12.264 53.4211 12.232 54.2051 12.232C54.3171 12.232 54.4131 12.216 54.4771 12.136C54.6371 11.976 54.6691 11.48 54.5571 11.272C54.4931 11.144 54.4131 11.112 54.2371 11.112C53.1491 11.128 51.6131 11.064 50.1411 10.808L50.0131 10.984ZM52.6211 19.944C51.6291 19.944 50.7811 19.288 50.7811 18.152C50.7811 17 51.6291 16.344 52.6211 16.344C53.6291 16.344 54.4771 17 54.4771 18.152C54.4771 19.288 53.6291 19.944 52.6211 19.944ZM52.6211 15.304C50.8131 15.304 49.2611 16.424 49.2611 18.152C49.2611 19.864 50.8131 20.968 52.6211 20.968C54.4291 20.968 55.9811 19.864 55.9811 18.152C55.9811 16.424 54.4291 15.304 52.6211 15.304ZM55.0211 13.416C54.3171 13.464 50.0931 13.544 49.4051 13.528C49.0211 13.528 48.3491 13.48 47.8531 13.4L47.7411 13.608C47.7251 13.656 47.7251 13.72 47.7891 13.784C48.1251 14.104 48.6371 14.472 49.1171 14.68C49.4211 14.584 50.0131 14.472 50.3331 14.456C50.9251 14.408 54.7651 14.344 55.3891 14.344C55.7571 14.344 56.5571 14.36 56.8611 14.392C57.0051 14.296 57.2131 13.992 57.2131 13.64C57.2131 13.528 57.1331 13.432 57.0211 13.384C56.7171 13.288 56.0291 13.192 55.5491 13.16L55.0211 13.416ZM60.6211 16.44L59.6451 16.488V11.08L59.6931 10.168C59.7091 9.976 59.6451 9.848 59.4851 9.784C58.9571 9.56 57.8211 9.336 57.1331 9.304C56.9891 9.304 56.9571 9.336 56.9251 9.4L56.7651 9.896C57.3251 10.104 57.8371 10.424 58.0931 10.776V21.464C58.0931 22.184 58.1571 24.12 58.2371 24.744H59.1171C59.4531 23.736 59.6451 21.96 59.6451 20.968V17.448L62.2531 17.384C62.3971 17.384 62.5731 17.336 62.6691 17.256C62.7811 17.144 62.8771 16.856 62.8611 16.52C62.8451 16.376 62.7331 16.248 62.5571 16.2C62.2691 16.136 61.5971 16.104 61.1331 16.12L60.6211 16.44ZM74.8103 23.384C73.8663 23.416 71.2103 23.448 70.0903 23.432C69.8823 23.432 69.8023 23.336 69.8023 23.128V21.896L75.8503 21.832C75.9463 21.736 76.0263 21.512 76.0263 21.256C76.0263 21.192 75.9943 21.128 75.9143 21.08L75.6263 20.952C75.7543 20.616 75.9143 19.912 75.9463 19.496L76.1703 19.032C76.2183 18.92 76.2023 18.824 76.1383 18.776C75.9623 18.68 75.5463 18.488 75.3543 18.408C75.2423 18.376 75.1463 18.376 75.0663 18.408L74.5063 18.664C73.5623 18.696 69.7863 18.744 68.9863 18.744C68.5863 18.744 67.8823 18.68 67.4183 18.6L67.3063 18.792C67.2743 18.872 67.2743 18.92 67.3543 18.984C67.7223 19.304 68.2183 19.624 68.7303 19.848C69.1463 19.736 69.7703 19.624 70.1063 19.608C70.6823 19.576 73.2903 19.544 74.3143 19.56C74.3303 19.848 74.3143 20.584 74.2823 20.904L73.9943 20.984C73.4023 21.016 70.9223 21.048 69.8183 21.048C69.3383 21 68.0903 20.968 67.5463 20.968C67.4503 20.968 67.3863 21 67.3703 21.064L67.3063 21.416C67.6743 21.528 68.0103 21.688 68.2183 21.896V23.224C68.2183 24.008 68.5703 24.36 69.5623 24.36L76.6023 24.312C76.6983 24.312 76.7783 24.296 76.8423 24.232C76.9383 24.136 77.0503 23.896 77.0503 23.544C77.0503 23.4 76.9543 23.288 76.8103 23.256C76.4903 23.192 75.7703 23.128 75.3063 23.128L74.8103 23.384ZM71.4503 17.832C71.5783 17.944 71.7383 18.056 71.8663 18.088C72.0903 18.136 72.4263 17.96 72.5383 17.72C72.5703 17.608 72.5543 17.48 72.4583 17.272C72.3303 17 72.0423 16.552 71.8023 16.248L71.0343 16.024L69.9623 15.16C70.6343 14.536 71.1943 13.88 71.6423 13.208L71.9943 12.712C72.0423 12.632 72.0423 12.536 71.9623 12.472C71.8023 12.36 71.3383 12.152 71.1143 12.056C71.0183 12.008 70.8743 12.008 70.7783 12.056L70.1863 12.312C69.4183 12.376 66.5543 12.408 65.9623 12.408C65.5623 12.408 64.9863 12.376 64.5383 12.312L64.4263 12.52C64.3943 12.584 64.4103 12.632 64.4743 12.696C64.7943 13 65.2903 13.32 65.7383 13.512C66.0583 13.416 66.6343 13.304 66.9703 13.288C67.3383 13.256 68.8103 13.224 69.7223 13.208C68.4903 14.968 66.4263 16.824 63.8983 18.152C63.8343 18.216 63.8343 18.264 63.8983 18.328L64.1063 18.568C64.1383 18.6 64.2023 18.6 64.3143 18.552C66.1223 17.912 67.8183 16.936 69.2103 15.816L71.4503 17.832ZM66.1063 10.184C66.0743 10.248 66.0743 10.296 66.1223 10.376C66.3783 10.76 66.7783 11.16 67.0983 11.368C67.1943 11.448 67.2743 11.448 67.4343 11.432C68.0903 11.384 69.2103 11.368 69.9143 11.368C70.0263 11.368 70.1223 11.352 70.1703 11.272C70.2983 11.128 70.3303 10.696 70.2343 10.488C70.1863 10.376 70.1063 10.344 69.9463 10.344C68.9383 10.344 67.5943 10.28 66.2343 10.024L66.1063 10.184ZM71.3542 14.584C71.3063 14.664 71.3383 14.712 71.3863 14.776C71.7063 15.096 72.1063 15.4 72.5543 15.64C72.8263 15.512 73.2583 15.4 73.5303 15.384C73.7383 15.352 74.1383 15.336 74.5383 15.32V15.624C74.5383 16.2 74.5863 17.416 74.6983 17.912H75.6103C75.8823 17.32 76.0903 16.104 76.0903 15.208V11.064L76.1383 10.168C76.1383 9.976 76.0743 9.848 75.9303 9.784C75.4183 9.56 74.2983 9.336 73.6263 9.304C73.4823 9.304 73.4343 9.336 73.4023 9.4L73.2423 9.896C73.8023 10.104 74.2983 10.424 74.5383 10.776V14.424C73.8983 14.456 73.1623 14.472 72.7623 14.472C72.3623 14.472 71.8663 14.44 71.4823 14.392L71.3542 14.584Z" fill="white"/>
</svg>
